<?xml version="1.0" encoding="utf-8"?>
<!-- Generator: Adobe Illustrator 17.0.0, SVG Export Plug-In . SVG Version: 6.00 Build 0)  -->
<!DOCTYPE svg PUBLIC "-//W3C//DTD SVG 1.1//EN" "http://www.w3.org/Graphics/SVG/1.1/DTD/svg11.dtd">
<svg version="1.1" id="Layer_1" xmlns="http://www.w3.org/2000/svg" xmlns:xlink="http://www.w3.org/1999/xlink" x="0px" y="0px"
	 width="320.1px" height="204.4px" viewBox="0 0 320.1 204.4" style="enable-background:new 0 0 320.1 204.4;" xml:space="preserve"
	>
<style type="text/css">
	.st0{fill:#2DCC70;}
	.st1{fill:#20A056;}
	.st2{fill:#0D7F3B;}
	.st3{fill:#F75A92;}
	.st4{fill:#CC3E78;}
	.st5{fill:#B22465;}
	.st6{fill:#FFFFFF;}
	.st7{fill:#FC9D0E;}
	.st8{fill:#D87600;}
	.st9{fill:#B25D00;}
	.st10{fill:#217CCE;}
	.st11{fill:#0063AD;}
	.st12{fill:#005182;}
	.st13{fill:#353E4C;}
	.st14{fill:#1A2433;}
	.st15{fill:#050B14;}
	.st16{fill:#FFFFFF;stroke:#FFFFFF;stroke-miterlimit:10;}
	.st17{fill:#272727;}
	.st18{fill:#EC4348;}
	.st19{fill:#FD7174;}
	.st20{fill:#FCA2A4;}
	.st21{fill:#CD2C31;}
	.st22{fill:none;stroke:#FFFFFF;stroke-width:3;stroke-miterlimit:10;}
	.st23{fill:none;stroke:#FFFFFF;stroke-width:2;stroke-miterlimit:10;}
</style>
<g>
	<rect x="0" y="0" class="st18" width="320.1" height="204.4"/>
	<g>
		<rect x="20" y="34.3" class="st19" width="282.3" height="80.2"/>
		<rect x="20" y="16.3" class="st20" width="40.3" height="10.7"/>
		<rect x="274" y="16.2" class="st20" width="10.7" height="10.7"/>
		<rect x="256.4" y="16.2" class="st20" width="10.7" height="10.7"/>
		<rect x="291.6" y="16.2" class="st20" width="10.7" height="10.7"/>
		<rect x="20" y="121.7" class="st19" width="64.9" height="46"/>
		<rect x="92.4" y="121.7" class="st19" width="64.9" height="46"/>
		<rect x="164.8" y="121.7" class="st19" width="64.9" height="46"/>
		<rect x="237.3" y="121.7" class="st19" width="64.9" height="46"/>
		<polygon class="st20" points="74.2,121.7 84.9,121.7 84.9,132.4 		"/>
		<polygon class="st20" points="146.7,121.7 157.3,121.7 157.3,132.4 		"/>
		<polygon class="st20" points="219.1,121.7 229.8,121.7 229.8,132.4 		"/>
		<polygon class="st20" points="291.6,121.7 302.2,121.7 302.2,132.4 		"/>
		<g>
			<rect x="20" y="183.8" class="st20" width="64.9" height="4.4"/>
			<rect x="20" y="174.8" class="st20" width="64.9" height="4.4"/>
		</g>
		<g>
			<rect x="92.4" y="183.8" class="st20" width="64.9" height="4.4"/>
			<rect x="92.4" y="174.8" class="st20" width="64.9" height="4.4"/>
		</g>
		<g>
			<rect x="164.8" y="183.8" class="st20" width="64.9" height="4.4"/>
			<rect x="164.8" y="174.8" class="st20" width="64.9" height="4.4"/>
		</g>
		<g>
			<rect x="236.6" y="183.8" class="st20" width="64.9" height="4.4"/>
			<rect x="236.6" y="174.8" class="st20" width="64.9" height="4.4"/>
		</g>
		<g>
			<circle class="st20" cx="145.9" cy="105.5" r="3.4"/>
			<circle class="st21" cx="167.4" cy="105.5" r="3.4"/>
			<circle class="st21" cx="156.6" cy="105.5" r="3.4"/>
			<circle class="st21" cx="178.2" cy="105.5" r="3.4"/>
		</g>
	</g>
</g>
</svg>
