<?xml version="1.0" encoding="utf-8"?>
<!-- Generator: Adobe Illustrator 17.0.0, SVG Export Plug-In . SVG Version: 6.00 Build 0)  -->
<!DOCTYPE svg PUBLIC "-//W3C//DTD SVG 1.1//EN" "http://www.w3.org/Graphics/SVG/1.1/DTD/svg11.dtd">
<svg version="1.1" id="Layer_1" xmlns="http://www.w3.org/2000/svg" xmlns:xlink="http://www.w3.org/1999/xlink" x="0px" y="0px"
	 width="79.7px" height="100.3px" viewBox="0 0 79.7 100.3" style="enable-background:new 0 0 79.7 100.3;" xml:space="preserve">
<style type="text/css">
	.st0{fill:#2DCC70;}
	.st1{fill:#20A056;}
	.st2{fill:#0D7F3B;}
	.st3{fill:#F75A92;}
	.st4{fill:#CC3E78;}
	.st5{fill:#B22465;}
	.st6{fill:#FFFFFF;}
	.st7{fill:#FC9D0E;}
	.st8{fill:#D87600;}
	.st9{fill:#B25D00;}
	.st10{fill:#217CCE;}
	.st11{fill:#0063AD;}
	.st12{fill:#005182;}
	.st13{fill:#353E4C;}
	.st14{fill:#1A2433;}
	.st15{fill:#050B14;}
	.st16{fill:#FFFFFF;stroke:#FFFFFF;stroke-miterlimit:10;}
	.st17{fill:#272727;}
	.st18{fill:#EC4348;}
	.st19{fill:#FD7174;}
	.st20{fill:#FCA2A4;}
	.st21{fill:#CD2C31;}
	.st22{fill:none;stroke:#FFFFFF;stroke-width:3;stroke-miterlimit:10;}
	.st23{fill:none;stroke:#FFFFFF;stroke-width:2;stroke-miterlimit:10;}
</style>
<g>
	<path class="st10" d="M59.9,0H1.6C0.7,0,0,0.7,0,1.6v97.1c0,0.9,0.7,1.6,1.6,1.6h76.5c0.9,0,1.6-0.7,1.6-1.6V19.8L59.9,0z"/>
	<path class="st11" d="M59.9,18.2c0,0.9,0.7,1.6,1.6,1.6h18.2L59.9,0V18.2z"/>
	<g>
		<path class="st12" d="M61.5,19.8c-0.9,0-1.6-0.7-1.6-1.6v1.5c0,0.9,0.7,1.6,1.6,1.6h18.2v-1.5H61.5z"/>
	</g>
</g>
<g>
	<path class="st6" d="M64.2,30v48.6H15.6V30H64.2 M68.2,26H11.6v56.6h56.6V26L68.2,26z"/>
</g>
<g>
	<path class="st6" d="M25.3,42.8c1.8-0.3,4.2-0.6,7.5-0.6c3.6,0,6.3,0.8,8,2.2c1.6,1.3,2.6,3.5,2.6,6c0,2.6-0.8,4.7-2.3,6.1
		c-2,2-5.1,2.9-8.5,2.9c-0.9,0-1.8,0-2.4-0.2v10.2h-4.9V42.8z M30.1,55.4c0.6,0.2,1.4,0.2,2.4,0.2c3.7,0,5.9-1.8,5.9-5
		c0-3-2.1-4.6-5.5-4.6c-1.4,0-2.3,0.1-2.8,0.2V55.4z"/>
	<path class="st6" d="M44.4,65c1.1,0.7,3.3,1.4,5,1.4c2.2,0,3.1-0.9,3.1-2.2c0-1.3-0.8-2-3.2-2.8C45.5,60,43.9,58,44,55.7
		c0-3.5,2.8-6.1,7.4-6.1c2.2,0,4.1,0.6,5.2,1.2l-1,3.5c-0.8-0.5-2.4-1.1-4.1-1.1c-1.8,0-2.7,0.8-2.7,2c0,1.2,0.9,1.8,3.4,2.7
		c3.5,1.3,5.2,3.1,5.2,6c0,3.5-2.8,6.1-7.9,6.1c-2.4,0-4.5-0.6-5.9-1.4L44.4,65z"/>
</g>
</svg>
