<?xml version="1.0" encoding="utf-8"?>
<!-- Generator: Adobe Illustrator 17.0.0, SVG Export Plug-In . SVG Version: 6.00 Build 0)  -->
<!DOCTYPE svg PUBLIC "-//W3C//DTD SVG 1.1//EN" "http://www.w3.org/Graphics/SVG/1.1/DTD/svg11.dtd">
<svg version="1.1" id="Layer_1" xmlns="http://www.w3.org/2000/svg" xmlns:xlink="http://www.w3.org/1999/xlink" x="0px" y="0px"
	 width="107.3px" height="213.4px" viewBox="0 0 107.3 213.4" style="enable-background:new 0 0 107.3 213.4;" xml:space="preserve"
	>
<style type="text/css">
	.st0{fill:#2DCC70;}
	.st1{fill:#20A056;}
	.st2{fill:#0D7F3B;}
	.st3{fill:#F75A92;}
	.st4{fill:#CC3E78;}
	.st5{fill:#B22465;}
	.st6{fill:#FFFFFF;}
	.st7{fill:#FC9D0E;}
	.st8{fill:#D87600;}
	.st9{fill:#B25D00;}
	.st10{fill:#217CCE;}
	.st11{fill:#0063AD;}
	.st12{fill:#005182;}
	.st13{fill:#353E4C;}
	.st14{fill:#1A2433;}
	.st15{fill:#050B14;}
	.st16{fill:#FFFFFF;stroke:#FFFFFF;stroke-miterlimit:10;}
	.st17{fill:#272727;}
	.st18{fill:#EC4348;}
	.st19{fill:#FD7174;}
	.st20{fill:#FCA2A4;}
	.st21{fill:#CD2C31;}
	.st22{fill:none;stroke:#FFFFFF;stroke-width:3;stroke-miterlimit:10;}
	.st23{fill:none;stroke:#FFFFFF;stroke-width:2;stroke-miterlimit:10;}
</style>
<g>
	<rect x="11.3" y="33" class="st18" width="86.3" height="149.2"/>
	<g>
		<rect x="11.3" y="31.5" class="st22" width="86.3" height="150.7"/>
		<g>
			<path class="st22" d="M3.2,81.1v118c0,7.1,5.7,12.8,12.8,12.8h77c7.1,0,12.8-5.7,12.8-12.8V14.3c0-7.1-5.7-12.8-12.8-12.8H16
				C8.9,1.5,3.2,7.2,3.2,14.3v17.2"/>
			<line class="st22" x1="3.2" y1="64.4" x2="3.2" y2="69.8"/>
			<line class="st22" x1="3.2" y1="42.8" x2="3.2" y2="53.1"/>
			<path class="st22" d="M1.5,33.2v8c0,0.9,0.7,1.7,1.7,1.7V31.5C2.2,31.5,1.5,32.3,1.5,33.2z"/>
			<path class="st22" d="M1.5,54.8v8c0,0.9,0.7,1.7,1.7,1.7V53.1C2.2,53.1,1.5,53.9,1.5,54.8z"/>
			<line class="st22" x1="3.2" y1="53.1" x2="3.2" y2="64.4"/>
			<path class="st22" d="M1.5,71.5v8c0,0.9,0.7,1.7,1.7,1.7V69.8C2.2,69.8,1.5,70.6,1.5,71.5z"/>
			<line class="st22" x1="3.2" y1="69.8" x2="3.2" y2="81.1"/>
		</g>
		<circle class="st6" cx="54.7" cy="12.2" r="2.3"/>
		<path class="st6" d="M63.1,20.4c0,0.9-0.7,1.6-1.6,1.6H47.4c-0.9,0-1.6-0.7-1.6-1.6l0,0c0-0.9,0.7-1.6,1.6-1.6h14.1
			C62.4,18.8,63.1,19.5,63.1,20.4L63.1,20.4z"/>
		<g>
			<path class="st6" d="M54.5,190c3.8,0,6.9,3.1,6.9,6.9c0,3.8-3.1,6.9-6.9,6.9c-3.8,0-6.9-3.1-6.9-6.9
				C47.6,193.1,50.7,190,54.5,190 M54.5,187c-5.5,0-9.9,4.4-9.9,9.9c0,5.5,4.4,9.9,9.9,9.9c5.5,0,9.9-4.4,9.9-9.9
				C64.4,191.4,60,187,54.5,187L54.5,187z"/>
		</g>
	</g>
	<g>
		<rect x="16.9" y="171.7" class="st20" width="75.6" height="4.4"/>
		<rect x="16.9" y="162.7" class="st20" width="75.6" height="4.4"/>
	</g>
	<rect x="33.9" y="40.3" class="st20" width="40.3" height="10.7"/>
	<rect x="16.9" y="56.8" class="st19" width="75.3" height="47.4"/>
	<g>
		<circle class="st20" cx="46.2" cy="96.6" r="2.1"/>
		<circle class="st21" cx="59.5" cy="96.6" r="2.1"/>
		<circle class="st21" cx="52.9" cy="96.6" r="2.1"/>
		<circle class="st21" cx="66.1" cy="96.6" r="2.1"/>
	</g>
	<rect x="16.8" y="110" class="st19" width="75.3" height="47.4"/>
	<polygon class="st20" points="81.5,110 92.1,110 92.1,120.7 	"/>
</g>
</svg>
