<?xml version="1.0" encoding="utf-8"?>
<!-- Generator: Adobe Illustrator 17.0.0, SVG Export Plug-In . SVG Version: 6.00 Build 0)  -->
<!DOCTYPE svg PUBLIC "-//W3C//DTD SVG 1.1//EN" "http://www.w3.org/Graphics/SVG/1.1/DTD/svg11.dtd">
<svg version="1.1" id="Layer_1" xmlns="http://www.w3.org/2000/svg" xmlns:xlink="http://www.w3.org/1999/xlink" x="0px" y="0px"
	 width="41.1px" height="41.1px" viewBox="0 0 41.1 41.1" style="enable-background:new 0 0 41.1 41.1;" xml:space="preserve">
<style type="text/css">
	.st0{fill:#2DCC70;}
	.st1{fill:#20A056;}
	.st2{fill:#0D7F3B;}
	.st3{fill:#F75A92;}
	.st4{fill:#CC3E78;}
	.st5{fill:#B22465;}
	.st6{fill:#FFFFFF;}
	.st7{fill:#FC9D0E;}
	.st8{fill:#D87600;}
	.st9{fill:#B25D00;}
	.st10{fill:#217CCE;}
	.st11{fill:#0063AD;}
	.st12{fill:#005182;}
	.st13{fill:#353E4C;}
	.st14{fill:#1A2433;}
	.st15{fill:#050B14;}
	.st16{fill:#FFFFFF;stroke:#FFFFFF;stroke-miterlimit:10;}
	.st17{fill:#272727;}
	.st18{fill:#EC4348;}
	.st19{fill:#FD7174;}
	.st20{fill:#FCA2A4;}
	.st21{fill:#CD2C31;}
	.st22{fill:none;stroke:#FFFFFF;stroke-width:3;stroke-miterlimit:10;}
	.st23{fill:none;stroke:#FFFFFF;stroke-width:2;stroke-miterlimit:10;}
	.st24{fill:#F4CC0C;}
	.st25{fill:#E6E2E1;}
</style>
<g>
	<path class="st6" d="M37.1,20.6c0-2.6,1.6-4.6,4-6c-0.4-1.4-1-2.8-1.7-4.1c-2.7,0.7-4.8-0.3-6.6-2.2c-1.8-1.8-2.4-4-1.7-6.6
		C29.8,1,28.4,0.4,27,0c-1.4,2.4-3.9,4-6.5,4s-5.1-1.6-6.5-4c-1.4,0.4-2.8,1-4.1,1.7c0.7,2.7,0.1,4.8-1.7,6.6
		c-1.8,1.8-4,2.9-6.6,2.2C1,11.8,0.4,13.1,0,14.6c2.4,1.4,4,3.4,4,6S2.4,25.6,0,27c0.4,1.4,1,2.8,1.7,4.1c2.7-0.7,4.8-0.1,6.6,1.7
		c1.8,1.8,2.4,4,1.7,6.6c1.3,0.7,2.7,1.3,4.1,1.7c1.4-2.4,3.9-4,6.5-4s5.1,1.6,6.5,4c1.4-0.4,2.8-1,4.1-1.7
		c-0.7-2.7-0.1-4.8,1.7-6.6c1.8-1.8,4-2.9,6.6-2.2c0.7-1.3,1.3-2.7,1.7-4.1C38.7,25.1,37.1,23.1,37.1,20.6z M20.6,29.5
		c-4.9,0-8.9-4-8.9-8.9c0-4.9,4-8.9,8.9-8.9s8.9,4,8.9,8.9C29.5,25.5,25.5,29.5,20.6,29.5z"/>
</g>
</svg>
