<?xml version="1.0" encoding="utf-8"?>
<!-- Generator: Adobe Illustrator 17.0.0, SVG Export Plug-In . SVG Version: 6.00 Build 0)  -->
<!DOCTYPE svg PUBLIC "-//W3C//DTD SVG 1.1//EN" "http://www.w3.org/Graphics/SVG/1.1/DTD/svg11.dtd">
<svg version="1.1" id="Layer_1" xmlns="http://www.w3.org/2000/svg" xmlns:xlink="http://www.w3.org/1999/xlink" x="0px" y="0px"
	 width="81.7px" height="108.9px" viewBox="0 0 81.7 108.9" style="enable-background:new 0 0 81.7 108.9;" xml:space="preserve">
<style type="text/css">
	.st0{fill:#E6E2E1;}
	.st1{fill:#F0F3F4;}
	.st2{fill:#414141;}
	.st3{fill:#C03527;}
	.st4{fill:#F39C12;}
	.st5{fill:#27AE60;}
	.st6{fill:#373737;}
	.st7{fill:#FCA2A4;}
	.st8{fill:#5DBF87;}
	.st9{fill:#FFFFFF;}
	.st10{fill:#F4CC0C;}
	.st11{fill:#EE634C;}
	.st12{fill:none;stroke:#FFFFFF;stroke-width:3;stroke-miterlimit:10;}
	.st13{fill:none;stroke:#FFFFFF;stroke-width:3;stroke-linecap:round;stroke-miterlimit:10;}
	.st14{fill:#FD7174;}
	.st15{fill:#EC4348;}
	.st16{fill:#FD5459;}
	.st17{fill:#5D5D5D;}
	.st18{fill:#2DCC70;}
	.st19{fill:#D4D8D8;}
	.st20{fill:#C9CED1;}
	.st21{fill:#CD2C31;}
	.st22{fill:#20A056;}
	.st23{fill:none;stroke:#E6E2E1;stroke-width:4;stroke-miterlimit:10;}
	.st24{fill:none;stroke:#EC4348;stroke-miterlimit:10;}
	.st25{fill:none;stroke:#FFFFFF;stroke-width:4;stroke-miterlimit:10;}
	.st26{fill:none;stroke:#FFFFFF;stroke-miterlimit:10;}
	.st27{fill:none;stroke:#20A056;stroke-miterlimit:10;}
</style>
<g>
	<g>
		<path class="st12" d="M54.1,1.5H3.6c-1.2,0-2.1,0.9-2.1,2.1v101.7c0,1.2,0.9,2.1,2.1,2.1h74.5c1.2,0,2.1-0.9,2.1-2.1V27.6
			L54.1,1.5z"/>
		<g>
			<path class="st9" d="M57.1,8.7L73,24.6H57.1V8.7 M54.1,1.5v24c0,1.2,0.9,2.1,2.1,2.1h24L54.1,1.5L54.1,1.5z"/>
		</g>
	</g>
	<rect x="11.8" y="26" class="st9" width="21" height="4.7"/>
	<rect x="11.8" y="48.1" class="st9" width="58.6" height="4.7"/>
	<rect x="11.8" y="39.3" class="st9" width="58.6" height="4.7"/>
	<rect x="11.8" y="57.1" class="st9" width="58.6" height="4.7"/>
	<rect x="11.8" y="66" class="st9" width="58.6" height="4.7"/>
	<rect x="11.8" y="74.9" class="st9" width="58.6" height="4.7"/>
	<rect x="49.5" y="86.3" class="st9" width="21" height="4.7"/>
</g>
</svg>
