<?xml version="1.0" encoding="utf-8"?>
<!-- Generator: Adobe Illustrator 17.0.0, SVG Export Plug-In . SVG Version: 6.00 Build 0)  -->
<!DOCTYPE svg PUBLIC "-//W3C//DTD SVG 1.1//EN" "http://www.w3.org/Graphics/SVG/1.1/DTD/svg11.dtd">
<svg version="1.1" id="Layer_1" xmlns="http://www.w3.org/2000/svg" xmlns:xlink="http://www.w3.org/1999/xlink" x="0px" y="0px"
	 width="132.7px" height="105.9px" viewBox="0 0 132.7 105.9" style="enable-background:new 0 0 132.7 105.9;" xml:space="preserve"
	>
<style type="text/css">
	.st0{fill:#E6E2E1;}
	.st1{fill:#F0F3F4;}
	.st2{fill:#414141;}
	.st3{fill:#C03527;}
	.st4{fill:#F39C12;}
	.st5{fill:#27AE60;}
	.st6{fill:#373737;}
	.st7{fill:#FCA2A4;}
	.st8{fill:#5DBF87;}
	.st9{fill:#FFFFFF;}
	.st10{fill:#F4CC0C;}
	.st11{fill:#EE634C;}
	.st12{fill:none;stroke:#FFFFFF;stroke-width:3;stroke-miterlimit:10;}
	.st13{fill:none;stroke:#FFFFFF;stroke-width:3;stroke-linecap:round;stroke-miterlimit:10;}
	.st14{fill:#FD7174;}
	.st15{fill:#EC4348;}
	.st16{fill:#FD5459;}
	.st17{fill:#5D5D5D;}
	.st18{fill:#2DCC70;}
	.st19{fill:#D4D8D8;}
	.st20{fill:#C9CED1;}
	.st21{fill:#CD2C31;}
	.st22{fill:#20A056;}
	.st23{fill:none;stroke:#E6E2E1;stroke-width:4;stroke-miterlimit:10;}
	.st24{fill:none;stroke:#EC4348;stroke-miterlimit:10;}
	.st25{fill:none;stroke:#FFFFFF;stroke-width:4;stroke-miterlimit:10;}
	.st26{fill:none;stroke:#FFFFFF;stroke-miterlimit:10;}
	.st27{fill:none;stroke:#20A056;stroke-miterlimit:10;}
</style>
<g>
	<path class="st16" d="M72.9,6c0-3.3-2.7-6-6-6H6C2.7,0,0,2.7,0,6v43.9c0,3.3,2.7,6,6,6h60.9c3.3,0,6-2.7,6-6V6z"/>
	<g>
		<path class="st9" d="M75.9,10.7H58.3c-1.3,1.6-2.4,3-2.9,3.5L45.1,26.9h-4.2c0,0,11.9-14.6,13.2-16.2H11.9c-0.8,0-1.4,0.6-1.4,1.4
			v33.1h66.7V12.1C77.2,11.4,76.6,10.7,75.9,10.7z"/>
		<path class="st15" d="M65.4,4.5h-4.2c-1.7,0-4.8,3.4-7.2,6.2h4.2C60.6,7.9,63.8,4.5,65.4,4.5z"/>
		<path class="st0" d="M40.8,26.9h4.2l10.3-12.6c0.5-0.6,1.6-1.9,2.9-3.5H54c-1.3,1.6-2.4,3-2.9,3.5L40.8,26.9z"/>
	</g>
	<path class="st14" d="M126.7,4.5H65.3c-2.6,0-8.7,8.2-10.1,9.8L44.9,26.9H6c-3.3,0-6,2.7-6,6v67c0,3.3,2.7,6,6,6h120.7
		c3.3,0,6-2.7,6-6V44.3V32.9V10.5C132.7,7.2,130,4.5,126.7,4.5z"/>
</g>
</svg>
