<?xml version="1.0" encoding="utf-8"?>
<!-- Generator: Adobe Illustrator 17.0.0, SVG Export Plug-In . SVG Version: 6.00 Build 0)  -->
<!DOCTYPE svg PUBLIC "-//W3C//DTD SVG 1.1//EN" "http://www.w3.org/Graphics/SVG/1.1/DTD/svg11.dtd">
<svg version="1.1" id="Layer_1" xmlns="http://www.w3.org/2000/svg" xmlns:xlink="http://www.w3.org/1999/xlink" x="0px" y="0px"
	 width="107.5px" height="107.5px" viewBox="0 0 107.5 107.5" style="enable-background:new 0 0 107.5 107.5;" xml:space="preserve"
	>
<style type="text/css">
	.st0{fill:#E6E2E1;}
	.st1{fill:#F0F3F4;}
	.st2{fill:#414141;}
	.st3{fill:#C03527;}
	.st4{fill:#F39C12;}
	.st5{fill:#27AE60;}
	.st6{fill:#373737;}
	.st7{fill:#FCA2A4;}
	.st8{fill:#5DBF87;}
	.st9{fill:#FFFFFF;}
	.st10{fill:#F4CC0C;}
	.st11{fill:#EE634C;}
	.st12{fill:none;stroke:#FFFFFF;stroke-width:3;stroke-miterlimit:10;}
	.st13{fill:none;stroke:#FFFFFF;stroke-width:3;stroke-linecap:round;stroke-miterlimit:10;}
	.st14{fill:#FD7174;}
	.st15{fill:#EC4348;}
	.st16{fill:#FD5459;}
	.st17{fill:#5D5D5D;}
	.st18{fill:#2DCC70;}
	.st19{fill:#D4D8D8;}
	.st20{fill:#C9CED1;}
	.st21{fill:#CD2C31;}
	.st22{fill:#20A056;}
	.st23{fill:none;stroke:#E6E2E1;stroke-width:4;stroke-miterlimit:10;}
	.st24{fill:none;stroke:#EC4348;stroke-miterlimit:10;}
	.st25{fill:none;stroke:#FFFFFF;stroke-width:4;stroke-miterlimit:10;}
	.st26{fill:none;stroke:#FFFFFF;stroke-miterlimit:10;}
	.st27{fill:none;stroke:#20A056;stroke-miterlimit:10;}
</style>
<g>
	<circle class="st15" cx="53.8" cy="53.7" r="53.8"/>
	<circle class="st9" cx="53.8" cy="53.7" r="43.7"/>
	<polyline class="st23" points="78.8,29.5 53.8,53.8 70.8,71.7 	"/>
	<line class="st24" x1="53.8" y1="53.8" x2="22.5" y2="57.5"/>
	<circle class="st15" cx="53.8" cy="53.7" r="3.8"/>
	<g>
		<path class="st20" d="M53.8,14.1c23.3,0,42.4,18.3,43.7,41.3c0-0.8,0.1-1.6,0.1-2.4c0-24.2-19.6-43.7-43.7-43.7
			C29.6,9.3,10,28.8,10,53c0,0.8,0,1.6,0.1,2.4C11.3,32.4,30.4,14.1,53.8,14.1z"/>
	</g>
</g>
</svg>
