<?xml version="1.0" encoding="utf-8"?>
<!-- Generator: Adobe Illustrator 17.0.0, SVG Export Plug-In . SVG Version: 6.00 Build 0)  -->
<!DOCTYPE svg PUBLIC "-//W3C//DTD SVG 1.1//EN" "http://www.w3.org/Graphics/SVG/1.1/DTD/svg11.dtd">
<svg version="1.1" id="Layer_1" xmlns="http://www.w3.org/2000/svg" xmlns:xlink="http://www.w3.org/1999/xlink" x="0px" y="0px"
	 width="86.1px" height="104.8px" viewBox="0 0 86.1 104.8" style="enable-background:new 0 0 86.1 104.8;" xml:space="preserve">
<style type="text/css">
	.st0{fill:#E6E2E1;}
	.st1{fill:#F0F3F4;}
	.st2{fill:#414141;}
	.st3{fill:#C03527;}
	.st4{fill:#F39C12;}
	.st5{fill:#27AE60;}
	.st6{fill:#373737;}
	.st7{fill:#FCA2A4;}
	.st8{fill:#5DBF87;}
	.st9{fill:#FFFFFF;}
	.st10{fill:#F4CC0C;}
	.st11{fill:#EE634C;}
	.st12{fill:none;stroke:#FFFFFF;stroke-width:3;stroke-miterlimit:10;}
	.st13{fill:none;stroke:#FFFFFF;stroke-width:3;stroke-linecap:round;stroke-miterlimit:10;}
	.st14{fill:#FD7174;}
	.st15{fill:#EC4348;}
	.st16{fill:#FD5459;}
	.st17{fill:#5D5D5D;}
	.st18{fill:#2DCC70;}
	.st19{fill:#D4D8D8;}
	.st20{fill:#C9CED1;}
	.st21{fill:#CD2C31;}
	.st22{fill:#20A056;}
	.st23{fill:none;stroke:#E6E2E1;stroke-width:4;stroke-miterlimit:10;}
	.st24{fill:none;stroke:#EC4348;stroke-miterlimit:10;}
	.st25{fill:none;stroke:#FFFFFF;stroke-width:4;stroke-miterlimit:10;}
	.st26{fill:none;stroke:#FFFFFF;stroke-miterlimit:10;}
	.st27{fill:none;stroke:#20A056;stroke-miterlimit:10;}
</style>
<g>
	<g>
		<polygon class="st9" points="61.5,61.5 57.7,61.5 33.2,61.5 19.8,61.5 19.8,66.4 66.4,66.4 66.4,38.7 61.5,38.7 		"/>
		<polygon class="st9" points="8.8,61.5 4.9,61.5 4.9,4.9 61.5,4.9 61.5,35.7 66.4,35.7 66.4,0 0,0 0,66.4 16.8,66.4 16.8,61.5 		
			"/>
		<path class="st7" d="M19.8,49.5c6.1-2.3,8-4.2,8-8.4c0-1.3-0.5-1.7-1.2-2.5h-6.9V49.5z"/>
		<path class="st7" d="M4.9,4.9v56.6h3.8c0,0,0-3.8,0-5.5c0-1.4,3.1-3.4,8-5.4v-15h8.4c-0.1-0.3-0.1-0.6-0.2-0.9
			c-0.4-1.9-2.1,0-2.4-4.4c0-1.7,0.9-2.2,0.9-2.2s-0.5-2.6-0.7-4.6c-0.2-2.5,1.4-8.9,10.3-8.9c8.9,0,10.6,6.4,10.3,8.9
			c-0.2,2-0.7,4.6-0.7,4.6s0.9,0.4,0.9,2.2c-0.3,4.4-2.1,2.5-2.4,4.4c-0.1,0.3-0.1,0.6-0.2,0.9h20.3V4.9H4.9z"/>
		<path class="st7" d="M38.6,41.2c0,4.2,2,6.2,8.5,8.5c6.4,2.3,10.6,4.7,10.6,6.4c0,1.6,0,5.5,0,5.5h3.8V38.7H39.8
			C39.1,39.4,38.6,39.8,38.6,41.2z"/>
		<path class="st15" d="M41.4,34.8c0.4-1.9,2.1,0,2.4-4.4c0-1.7-0.9-2.2-0.9-2.2s0.5-2.6,0.7-4.6c0.2-2.5-1.4-8.9-10.3-8.9
			c-8.9,0-10.6,6.4-10.3,8.9c0.2,2,0.7,4.6,0.7,4.6s-0.9,0.4-0.9,2.2c0.3,4.4,2.1,2.5,2.4,4.4c0.1,0.3,0.1,0.6,0.2,0.9h16
			C41.3,35.4,41.4,35.1,41.4,34.8z"/>
		<path class="st15" d="M47.1,49.7c-6.4-2.3-8.5-4.3-8.5-8.5c0-1.3,0.5-1.7,1.2-2.5H26.7c0.6,0.7,1.2,1.2,1.2,2.5c0,4.1-2,6.1-8,8.4
			v12h13.4h24.4c0,0,0-3.8,0-5.5C57.7,54.4,53.5,52,47.1,49.7z"/>
		<path class="st15" d="M8.8,56c0,1.6,0,5.5,0,5.5h8V50.7C11.9,52.7,8.8,54.6,8.8,56z"/>
		<line class="st9" x1="66.4" y1="35.7" x2="66.4" y2="38.7"/>
		<rect x="16.8" y="61.5" class="st20" width="3" height="4.9"/>
		<rect x="61.5" y="35.7" class="st20" width="4.9" height="3"/>
		<path class="st14" d="M39.8,38.7h21.7v-3H41.2C40.8,37.3,40.3,38.1,39.8,38.7z"/>
		<path class="st14" d="M19.8,49.5V38.7h6.9c-0.5-0.6-1.1-1.4-1.5-3h-8.4v15c0.8-0.3,1.7-0.7,2.6-1C19.5,49.6,19.7,49.6,19.8,49.5z"
			/>
		<path class="st21" d="M19.4,49.7c-0.9,0.3-1.8,0.7-2.6,1v10.8h3v-12C19.7,49.6,19.5,49.6,19.4,49.7z"/>
		<path class="st21" d="M39.8,38.7c0.5-0.6,1.1-1.4,1.5-3h-16c0.4,1.6,1,2.4,1.5,3H39.8z"/>
	</g>
	<g>
		<rect x="19.6" y="38.4" class="st9" width="66.4" height="66.4"/>
		<rect x="24.6" y="43.3" class="st17" width="56.6" height="56.6"/>
		<g>
			<polygon class="st22" points="24.6,99.9 37.3,99.9 56.4,99.9 49,84.5 46.9,81.5 38.2,69.6 24.6,88.4 			"/>
			<polygon class="st18" points="64.9,62.7 50.9,82 41.3,95.1 37.9,99.9 81.1,99.9 81.1,85.1 			"/>
		</g>
		<circle class="st10" cx="42.5" cy="56" r="6.6"/>
	</g>
</g>
</svg>
