<?xml version="1.0" encoding="utf-8"?>
<!-- Generator: Adobe Illustrator 17.0.0, SVG Export Plug-In . SVG Version: 6.00 Build 0)  -->
<!DOCTYPE svg PUBLIC "-//W3C//DTD SVG 1.1//EN" "http://www.w3.org/Graphics/SVG/1.1/DTD/svg11.dtd">
<svg version="1.1" id="Layer_1" xmlns="http://www.w3.org/2000/svg" xmlns:xlink="http://www.w3.org/1999/xlink" x="0px" y="0px"
	 width="110.5px" height="110.4px" viewBox="0 0 110.5 110.4" style="enable-background:new 0 0 110.5 110.4;" xml:space="preserve"
	>
<style type="text/css">
	.st0{fill:#E6E2E1;}
	.st1{fill:#F0F3F4;}
	.st2{fill:#414141;}
	.st3{fill:#C03527;}
	.st4{fill:#F39C12;}
	.st5{fill:#27AE60;}
	.st6{fill:#373737;}
	.st7{fill:#FCA2A4;}
	.st8{fill:#5DBF87;}
	.st9{fill:#FFFFFF;}
	.st10{fill:#F4CC0C;}
	.st11{fill:#EE634C;}
	.st12{fill:none;stroke:#FFFFFF;stroke-width:3;stroke-miterlimit:10;}
	.st13{fill:none;stroke:#FFFFFF;stroke-width:3;stroke-linecap:round;stroke-miterlimit:10;}
	.st14{fill:#FD7174;}
	.st15{fill:#EC4348;}
	.st16{fill:#FD5459;}
	.st17{fill:#5D5D5D;}
	.st18{fill:#2DCC70;}
	.st19{fill:#D4D8D8;}
	.st20{fill:#C9CED1;}
	.st21{fill:#CD2C31;}
	.st22{fill:#20A056;}
	.st23{fill:none;stroke:#E6E2E1;stroke-width:4;stroke-miterlimit:10;}
	.st24{fill:none;stroke:#EC4348;stroke-miterlimit:10;}
	.st25{fill:none;stroke:#FFFFFF;stroke-width:4;stroke-miterlimit:10;}
	.st26{fill:none;stroke:#FFFFFF;stroke-miterlimit:10;}
	.st27{fill:none;stroke:#20A056;stroke-miterlimit:10;}
</style>
<g>
	<g>
		<path class="st12" d="M26.1,103.8c-1.2,1.2-1.2,3.1,0,4.2c1.2,1.2,3.1,1.2,4.2,0l18.4-18.4h-8.5L26.1,103.8z"/>
		<path class="st12" d="M80.1,108.1c1.2,1.2,3.1,1.2,4.2,0c1.2-1.2,1.2-3.1,0-4.2L70.2,89.6h-8.5L80.1,108.1z"/>
		<path class="st12" d="M105,1.5H5.5c-2.2,0-4,1.8-4,4v80.1c0,2.2,1.8,4,4,4h34.8h8.5h12.9h8.5H105c2.2,0,4-1.8,4-4V5.5
			C109,3.3,107.2,1.5,105,1.5z"/>
	</g>
	<g>
		<g>
			<path class="st9" d="M84.7,48.9c6.8,1.4,11.9,7.4,11.9,14.6c0,8.2-6.7,14.9-14.9,14.9c-7.2,0-13.2-5.1-14.6-11.9h14.6h3v-3V48.9
				 M81.7,45.6v17.9H63.8c0,9.9,8,17.9,17.9,17.9c9.9,0,17.9-8,17.9-17.9C99.6,53.6,91.5,45.6,81.7,45.6L81.7,45.6z"/>
		</g>
		<path class="st9" d="M79.5,43.4c-9.9,0-17.9,8-17.9,17.9h17.9V43.4z"/>
	</g>
	<g>
		<rect x="12.9" y="10.8" class="st9" width="6.5" height="5.8"/>
		<rect x="22.5" y="10.8" class="st9" width="21.3" height="5.8"/>
		<rect x="12.9" y="19.5" class="st9" width="6.5" height="5.8"/>
		<rect x="22.5" y="19.5" class="st9" width="36.5" height="5.8"/>
		<rect x="12.9" y="28.5" class="st9" width="6.5" height="5.8"/>
		<rect x="22.5" y="28.5" class="st9" width="21.3" height="5.8"/>
	</g>
	<g>
		<path class="st9" d="M31.9,54.3c0-4.8-2.6-7.5-7.4-7.5c-4.8,0-7.4,2.7-7.4,7.5s2.6,7.5,7.4,7.5C29.3,61.8,31.9,59.1,31.9,54.3z
			 M20.5,54.3c0-3.1,1.2-4.5,4-4.5c2.8,0,4,1.4,4,4.5c0,3.1-1.3,4.5-4,4.5C21.8,58.8,20.5,57.4,20.5,54.3z"/>
		<path class="st9" d="M42.5,48.6c0-0.9-0.8-1.6-1.7-1.6c-0.7,0-1.3,0.4-1.5,0.8L23.9,75.3c-0.2,0.3-0.2,0.5-0.2,0.7
			c0,0.9,0.8,1.6,1.7,1.6c0.6,0,1.2-0.3,1.5-0.8l15.3-27.4C42.4,49.1,42.5,48.8,42.5,48.6z"/>
		<path class="st9" d="M41.8,62.8c-4.8,0-7.4,2.7-7.4,7.5s2.6,7.5,7.4,7.5c4.8,0,7.4-2.7,7.4-7.5S46.6,62.8,41.8,62.8z M41.8,74.8
			c-2.7,0-4-1.4-4-4.5c0-3.1,1.2-4.5,4-4.5c2.8,0,4,1.4,4,4.5C45.8,73.4,44.6,74.8,41.8,74.8z"/>
	</g>
</g>
</svg>
