<?xml version="1.0" encoding="utf-8"?>
<!-- Generator: Adobe Illustrator 17.0.0, SVG Export Plug-In . SVG Version: 6.00 Build 0)  -->
<!DOCTYPE svg PUBLIC "-//W3C//DTD SVG 1.1//EN" "http://www.w3.org/Graphics/SVG/1.1/DTD/svg11.dtd">
<svg version="1.1" id="Layer_1" xmlns="http://www.w3.org/2000/svg" xmlns:xlink="http://www.w3.org/1999/xlink" x="0px" y="0px"
	 width="137.5px" height="110.5px" viewBox="0 0 137.5 110.5" style="enable-background:new 0 0 137.5 110.5;" xml:space="preserve"
	>
<style type="text/css">
	.st0{fill:#E6E2E1;}
	.st1{fill:#F0F3F4;}
	.st2{fill:#414141;}
	.st3{fill:#C03527;}
	.st4{fill:#F39C12;}
	.st5{fill:#27AE60;}
	.st6{fill:#373737;}
	.st7{fill:#FCA2A4;}
	.st8{fill:#5DBF87;}
	.st9{fill:#FFFFFF;}
	.st10{fill:#F4CC0C;}
	.st11{fill:#EE634C;}
	.st12{fill:none;stroke:#FFFFFF;stroke-width:3;stroke-miterlimit:10;}
	.st13{fill:none;stroke:#FFFFFF;stroke-width:3;stroke-linecap:round;stroke-miterlimit:10;}
	.st14{fill:#FD7174;}
	.st15{fill:#EC4348;}
	.st16{fill:#FD5459;}
	.st17{fill:#5D5D5D;}
	.st18{fill:#2DCC70;}
	.st19{fill:#D4D8D8;}
	.st20{fill:#C9CED1;}
	.st21{fill:#CD2C31;}
	.st22{fill:#20A056;}
	.st23{fill:none;stroke:#E6E2E1;stroke-width:4;stroke-miterlimit:10;}
	.st24{fill:none;stroke:#EC4348;stroke-miterlimit:10;}
	.st25{fill:none;stroke:#FFFFFF;stroke-width:4;stroke-miterlimit:10;}
	.st26{fill:none;stroke:#FFFFFF;stroke-miterlimit:10;}
	.st27{fill:none;stroke:#20A056;stroke-miterlimit:10;}
</style>
<g>
	<path class="st12" d="M130,1.5H7.5c-3.3,0-6,2.7-6,6v9H23h113v-9C136,4.2,133.3,1.5,130,1.5z"/>
	<path class="st12" d="M23,109h107c3.3,0,6-2.7,6-6V16.5H23V109z"/>
	<circle class="st9" cx="9.3" cy="8.7" r="2.8"/>
	<circle class="st9" cx="18" cy="8.7" r="2.8"/>
	<circle class="st9" cx="27.5" cy="8.7" r="2.8"/>
	<g>
		<polygon class="st12" points="1.5,16.5 1.5,16.5 1.5,16.5 		"/>
		<polygon class="st12" points="23,109 23,108.9 22.9,109 		"/>
		<path class="st13" d="M24.3,16.5H11.4H1.5l0,0v9.9v12.9v9.9v12.9V72v12.9v9.9v8.2c0,1.3,0.4,2.6,1.2,3.6c1.1,1.5,2.8,2.4,4.8,2.4
			h2.6H23h-0.1l0.1-0.1V99V86.1v-9.9V63.3v-9.9V40.5v-9.9V17.7v-1.2H24.3z"/>
	</g>
	<g>
		<rect x="45.7" y="44" class="st9" width="13.1" height="5.8"/>
		<rect x="93.9" y="44" class="st9" width="13.1" height="5.8"/>
		<rect x="62.2" y="44" class="st9" width="28.4" height="5.8"/>
	</g>
	<g>
		<rect x="77.1" y="54.5" class="st9" width="14.1" height="5.8"/>
		<rect x="45.7" y="54.5" class="st9" width="28.4" height="5.8"/>
		<rect x="93.9" y="54.5" class="st9" width="23.4" height="5.8"/>
	</g>
	<g>
		<rect x="92.9" y="65" class="st9" width="6.5" height="5.8"/>
		<rect x="102.5" y="65" class="st9" width="21.3" height="5.8"/>
		<rect x="77.1" y="65" class="st9" width="13.1" height="5.8"/>
		<rect x="45.7" y="65" class="st9" width="28.4" height="5.8"/>
	</g>
	<g>
		<rect x="45.7" y="96.6" class="st9" width="13.1" height="5.8"/>
		<rect x="61.2" y="96.6" class="st9" width="6.5" height="5.8"/>
		<rect x="69.9" y="96.6" class="st9" width="28.4" height="5.8"/>
	</g>
	<rect x="31.2" y="33.5" class="st9" width="28.4" height="5.8"/>
	<rect x="31.2" y="75.6" class="st9" width="21.1" height="5.8"/>
	<rect x="31.2" y="86.1" class="st9" width="21.1" height="5.8"/>
	<g>
		<rect x="31.2" y="22.9" class="st9" width="28.4" height="5.8"/>
		<rect x="63" y="22.9" class="st9" width="16.5" height="5.8"/>
	</g>
</g>
</svg>
