<?xml version="1.0" encoding="utf-8"?>
<!-- Generator: Adobe Illustrator 17.0.0, SVG Export Plug-In . SVG Version: 6.00 Build 0)  -->
<!DOCTYPE svg PUBLIC "-//W3C//DTD SVG 1.1//EN" "http://www.w3.org/Graphics/SVG/1.1/DTD/svg11.dtd">
<svg version="1.1" id="Layer_1" xmlns="http://www.w3.org/2000/svg" xmlns:xlink="http://www.w3.org/1999/xlink" x="0px" y="0px"
	 width="134.5px" height="107.5px" viewBox="0 0 134.5 107.5" style="enable-background:new 0 0 134.5 107.5;" xml:space="preserve"
	>
<style type="text/css">
	.st0{fill:#E6E2E1;}
	.st1{fill:#F0F3F4;}
	.st2{fill:#414141;}
	.st3{fill:#C03527;}
	.st4{fill:#F39C12;}
	.st5{fill:#27AE60;}
	.st6{fill:#373737;}
	.st7{fill:#FCA2A4;}
	.st8{fill:#5DBF87;}
	.st9{fill:#FFFFFF;}
	.st10{fill:#F4CC0C;}
	.st11{fill:#EE634C;}
	.st12{fill:none;stroke:#FFFFFF;stroke-width:3;stroke-miterlimit:10;}
	.st13{fill:none;stroke:#FFFFFF;stroke-width:3;stroke-linecap:round;stroke-miterlimit:10;}
	.st14{fill:#FD7174;}
	.st15{fill:#EC4348;}
	.st16{fill:#FD5459;}
	.st17{fill:#5D5D5D;}
	.st18{fill:#2DCC70;}
	.st19{fill:#D4D8D8;}
	.st20{fill:#C9CED1;}
	.st21{fill:#CD2C31;}
	.st22{fill:#20A056;}
	.st23{fill:none;stroke:#E6E2E1;stroke-width:4;stroke-miterlimit:10;}
	.st24{fill:none;stroke:#EC4348;stroke-miterlimit:10;}
	.st25{fill:none;stroke:#FFFFFF;stroke-width:4;stroke-miterlimit:10;}
	.st26{fill:none;stroke:#FFFFFF;stroke-miterlimit:10;}
	.st27{fill:none;stroke:#20A056;stroke-miterlimit:10;}
</style>
<g>
	<path class="st1" d="M128.5,0H6C2.7,0,0,2.7,0,6v9h21.5h113V6C134.5,2.7,131.8,0,128.5,0z"/>
	<path class="st2" d="M21.5,107.5h107c3.3,0,6-2.7,6-6V15h-113V107.5z"/>
	<circle class="st3" cx="7.8" cy="7.2" r="2.8"/>
	<circle class="st4" cx="16.5" cy="7.2" r="2.8"/>
	<circle class="st5" cx="26" cy="7.2" r="2.8"/>
	<g>
		<polygon class="st2" points="0,15 0,15 0,15 		"/>
		<polygon class="st2" points="21.5,107.5 21.5,107.4 21.4,107.5 		"/>
		<path class="st6" d="M22.8,15H9.9H0l0,0v9.9v12.9v9.9v12.9v9.9v12.9v9.9v8.2c0,1.3,0.4,2.6,1.2,3.6c1.1,1.5,2.8,2.4,4.8,2.4h2.6
			h12.9h-0.1l0.1-0.1v-9.9V84.6v-9.9V61.8v-9.9V39v-9.9V16.2V15H22.8z"/>
	</g>
	<g>
		<rect x="44.2" y="42.5" class="st7" width="13.1" height="5.8"/>
		<rect x="92.4" y="42.5" class="st8" width="13.1" height="5.8"/>
		<rect x="60.7" y="42.5" class="st9" width="28.4" height="5.8"/>
	</g>
	<g>
		<rect x="75.6" y="53" class="st8" width="14.1" height="5.8"/>
		<rect x="44.2" y="53" class="st10" width="28.4" height="5.8"/>
		<rect x="92.4" y="53" class="st11" width="23.4" height="5.8"/>
	</g>
	<g>
		<rect x="91.4" y="63.5" class="st8" width="6.5" height="5.8"/>
		<rect x="101" y="63.5" class="st9" width="21.3" height="5.8"/>
		<rect x="75.6" y="63.5" class="st11" width="13.1" height="5.8"/>
		<rect x="44.2" y="63.5" class="st9" width="28.4" height="5.8"/>
	</g>
	<g>
		<rect x="44.2" y="95.1" class="st10" width="13.1" height="5.8"/>
		<rect x="59.7" y="95.1" class="st8" width="6.5" height="5.8"/>
		<rect x="68.4" y="95.1" class="st9" width="28.4" height="5.8"/>
	</g>
	<rect x="29.7" y="32" class="st7" width="28.4" height="5.8"/>
	<rect x="29.7" y="74.1" class="st7" width="21.1" height="5.8"/>
	<rect x="29.7" y="84.6" class="st7" width="21.1" height="5.8"/>
	<g>
		<rect x="29.7" y="21.4" class="st7" width="28.4" height="5.8"/>
		<rect x="61.5" y="21.4" class="st10" width="16.5" height="5.8"/>
	</g>
</g>
</svg>
