<?xml version="1.0" encoding="utf-8"?>
<!-- Generator: Adobe Illustrator 17.0.0, SVG Export Plug-In . SVG Version: 6.00 Build 0)  -->
<!DOCTYPE svg PUBLIC "-//W3C//DTD SVG 1.1//EN" "http://www.w3.org/Graphics/SVG/1.1/DTD/svg11.dtd">
<svg version="1.1" id="Layer_1" xmlns="http://www.w3.org/2000/svg" xmlns:xlink="http://www.w3.org/1999/xlink" x="0px" y="0px"
	 width="531.2px" height="252.8px" viewBox="0 0 531.2 252.8" style="enable-background:new 0 0 531.2 252.8;" xml:space="preserve"
	>
<style type="text/css">
	.st0{fill:#E6E2E1;}
	.st1{fill:#F0F3F4;}
	.st2{fill:#414141;}
	.st3{fill:#C03527;}
	.st4{fill:#F39C12;}
	.st5{fill:#27AE60;}
	.st6{fill:#373737;}
	.st7{fill:#FCA2A4;}
	.st8{fill:#5DBF87;}
	.st9{fill:#FFFFFF;}
	.st10{fill:#F4CC0C;}
	.st11{fill:#EE634C;}
	.st12{fill:none;stroke:#FFFFFF;stroke-width:3;stroke-miterlimit:10;}
	.st13{fill:none;stroke:#FFFFFF;stroke-width:3;stroke-linecap:round;stroke-miterlimit:10;}
	.st14{fill:#FD7174;}
	.st15{fill:#EC4348;}
	.st16{fill:#FD5459;}
	.st17{fill:#5D5D5D;}
	.st18{fill:#2DCC70;}
	.st19{fill:#D4D8D8;}
	.st20{fill:#C9CED1;}
	.st21{fill:#CD2C31;}
	.st22{fill:#20A056;}
	.st23{fill:none;stroke:#E6E2E1;stroke-width:4;stroke-miterlimit:10;}
	.st24{fill:none;stroke:#EC4348;stroke-miterlimit:10;}
	.st25{fill:none;stroke:#FFFFFF;stroke-width:4;stroke-miterlimit:10;}
	.st26{fill:none;stroke:#FFFFFF;stroke-miterlimit:10;}
	.st27{fill:none;stroke:#20A056;stroke-miterlimit:10;}
</style>
<path class="st0" d="M512.6,217.5h-222V48.8c0-3.3-1.9-5.3-5.2-5.3H172.6v-16h-49v16H37.1l-36.5,35v166.8c0,3.3,3.4,6.2,6.8,6.2h278
	c0.4,0,0.8,0,1.2-0.1c0.7,0.1,1.3,0.1,2,0.1h224c9.4,0,17-7.6,17-17S522,217.5,512.6,217.5z"/>
<circle class="st12" cx="22.1" cy="90.5" r="9.1"/>
<circle class="st9" cx="22.1" cy="90.5" r="3.9"/>
<circle class="st9" cx="22.1" cy="117.3" r="7"/>
<circle class="st9" cx="22.1" cy="137.5" r="7"/>
<g>
	<path class="st9" d="M22.1,154.7c2.2,0,4,1.8,4,4s-1.8,4-4,4s-4-1.8-4-4S19.9,154.7,22.1,154.7 M22.1,151.7c-3.9,0-7,3.1-7,7
		s3.1,7,7,7s7-3.1,7-7S26,151.7,22.1,151.7L22.1,151.7z"/>
</g>
<g>
	<line class="st13" x1="271.7" y1="66.4" x2="271.7" y2="134.7"/>
	<line class="st13" x1="271.7" y1="134.7" x2="271.7" y2="220"/>
</g>
<g>
	<path class="st12" d="M512.7,217.2H291.5v28c0,2.9-2,5.3-4.8,5.9c0.7,0.1,1.3,0.1,2,0.1h224c9.4,0,17-7.6,17-17
		C529.7,224.8,522.1,217.2,512.7,217.2z"/>
	<path class="st12" d="M285.5,42.8H37.2L1.5,78.5v166.8c0,3.3,2.7,6,6,6h278c0.4,0,0.8,0,1.2-0.1c2.7-0.6,4.8-3,4.8-5.9v-28V48.8
		C291.5,45.5,288.8,42.8,285.5,42.8z"/>
</g>
<rect x="124.1" y="27.5" class="st12" width="49.3" height="15.3"/>
<g>
	<path class="st12" d="M166,25.6v-6.8c0-9.5-7.7-17.3-17.3-17.3c-9.5,0-17.3,7.7-17.3,17.3v6.8c0,0.6,0,1.2,0.1,1.8h34.4
		C166,26.7,166,26.1,166,25.6z"/>
</g>
<circle class="st12" cx="310.1" cy="234.2" r="9.9"/>
<circle class="st12" cx="338.9" cy="234.2" r="9.9"/>
<circle class="st12" cx="367.6" cy="234.2" r="9.9"/>
<circle class="st12" cx="396.4" cy="234.2" r="9.9"/>
<circle class="st12" cx="425.1" cy="234.2" r="9.9"/>
<circle class="st12" cx="453.9" cy="234.2" r="9.9"/>
<circle class="st12" cx="482.6" cy="234.2" r="9.9"/>
<circle class="st12" cx="511.4" cy="234.2" r="9.9"/>
<rect x="42.2" y="64" class="st12" width="212" height="156"/>
</svg>
