<?xml version="1.0" encoding="utf-8"?>
<!-- Generator: Adobe Illustrator 17.0.0, SVG Export Plug-In . SVG Version: 6.00 Build 0)  -->
<!DOCTYPE svg PUBLIC "-//W3C//DTD SVG 1.1//EN" "http://www.w3.org/Graphics/SVG/1.1/DTD/svg11.dtd">
<svg version="1.1" id="Layer_1" xmlns="http://www.w3.org/2000/svg" xmlns:xlink="http://www.w3.org/1999/xlink" x="0px" y="0px"
	 width="196.3px" height="32.8px" viewBox="0 0 196.3 32.8" style="enable-background:new 0 0 196.3 32.8;" xml:space="preserve">
<style type="text/css">
	.st0{fill:#FFFFFF;}
</style>
<g>
	<path class="st0" d="M6.4,9.5H0V5.2h0.6c2.2,0,3.9-0.4,5.2-1.2C7,3.1,7.8,1.8,8.2,0H13v32.3H6.4V9.5z"/>
	<path class="st0" d="M24.5,10.8c0.2-2.1,0.6-3.9,1.2-5.5c0.7-1.6,1.7-2.9,3-3.8C30.1,0.5,32,0,34.4,0c2,0,3.6,0.3,4.9,0.8
		c1.3,0.6,2.3,1.5,3.1,2.7c0.8,1.2,1.3,2.9,1.6,4.9c0.3,2,0.5,4.4,0.5,7.3c0,2.2-0.1,4.4-0.2,6.5c-0.2,2.1-0.6,3.9-1.2,5.5
		c-0.7,1.6-1.7,2.8-3,3.8c-1.4,0.9-3.2,1.4-5.6,1.4c-1.9,0-3.6-0.3-4.9-0.8c-1.3-0.5-2.3-1.4-3.1-2.6s-1.3-2.9-1.6-4.9
		c-0.3-2-0.5-4.4-0.5-7.3C24.2,15,24.3,12.8,24.5,10.8z M31,23.6c0.1,1.3,0.3,2.3,0.6,3.1c0.3,0.7,0.6,1.3,1.1,1.5
		c0.5,0.3,1,0.4,1.7,0.4c0.7,0,1.3-0.2,1.8-0.5c0.5-0.3,0.8-0.9,1.1-1.8c0.3-0.8,0.4-2,0.5-3.4c0.1-1.4,0.2-3.1,0.2-5.2v-3.5
		c0-2-0.1-3.7-0.2-5C37.7,8,37.5,7,37.2,6.2c-0.3-0.7-0.6-1.3-1.1-1.5c-0.5-0.3-1-0.4-1.7-0.4c-0.7,0-1.3,0.2-1.8,0.5
		c-0.5,0.3-0.8,0.9-1.1,1.8c-0.3,0.8-0.4,2-0.5,3.4c-0.1,1.4-0.2,3.1-0.2,5.2v3.5C30.8,20.7,30.9,22.3,31,23.6z"/>
	<path class="st0" d="M49.8,10.8c0.2-2.1,0.6-3.9,1.2-5.5c0.7-1.6,1.7-2.9,3-3.8c1.4-1,3.2-1.4,5.6-1.4c2,0,3.6,0.3,4.9,0.8
		c1.3,0.6,2.3,1.5,3.1,2.7c0.8,1.2,1.3,2.9,1.6,4.9c0.3,2,0.5,4.4,0.5,7.3c0,2.2-0.1,4.4-0.2,6.5c-0.2,2.1-0.6,3.9-1.2,5.5
		c-0.7,1.6-1.7,2.8-3,3.8c-1.4,0.9-3.2,1.4-5.6,1.4c-1.9,0-3.6-0.3-4.9-0.8c-1.3-0.5-2.3-1.4-3.1-2.6s-1.3-2.9-1.6-4.9
		c-0.3-2-0.5-4.4-0.5-7.3C49.5,15,49.6,12.8,49.8,10.8z M56.3,23.6c0.1,1.3,0.3,2.3,0.6,3.1c0.3,0.7,0.6,1.3,1.1,1.5
		c0.5,0.3,1,0.4,1.7,0.4c0.7,0,1.3-0.2,1.8-0.5c0.5-0.3,0.8-0.9,1.1-1.8c0.3-0.8,0.4-2,0.5-3.4c0.1-1.4,0.2-3.1,0.2-5.2v-3.5
		c0-2-0.1-3.7-0.2-5C63,8,62.8,7,62.5,6.2c-0.3-0.7-0.6-1.3-1.1-1.5c-0.5-0.3-1-0.4-1.7-0.4c-0.7,0-1.3,0.2-1.8,0.5
		c-0.5,0.3-0.8,0.9-1.1,1.8c-0.3,0.8-0.4,2-0.5,3.4c-0.1,1.4-0.2,3.1-0.2,5.2v3.5C56.1,20.7,56.2,22.3,56.3,23.6z"/>
	<path class="st0" d="M75.1,10.8c0.2-2.1,0.6-3.9,1.2-5.5c0.7-1.6,1.7-2.9,3-3.8C80.7,0.5,82.6,0,85,0c2,0,3.6,0.3,4.9,0.8
		c1.3,0.6,2.3,1.5,3.1,2.7c0.8,1.2,1.3,2.9,1.6,4.9c0.3,2,0.5,4.4,0.5,7.3c0,2.2-0.1,4.4-0.2,6.5c-0.2,2.1-0.6,3.9-1.2,5.5
		c-0.7,1.6-1.7,2.8-3,3.8c-1.4,0.9-3.2,1.4-5.6,1.4c-1.9,0-3.6-0.3-4.9-0.8c-1.3-0.5-2.3-1.4-3.1-2.6s-1.3-2.9-1.6-4.9
		c-0.3-2-0.5-4.4-0.5-7.3C74.8,15,74.9,12.8,75.1,10.8z M81.6,23.6c0.1,1.3,0.3,2.3,0.6,3.1c0.3,0.7,0.6,1.3,1.1,1.5
		c0.5,0.3,1,0.4,1.7,0.4c0.7,0,1.3-0.2,1.8-0.5c0.5-0.3,0.8-0.9,1.1-1.8c0.3-0.8,0.4-2,0.5-3.4c0.1-1.4,0.2-3.1,0.2-5.2v-3.5
		c0-2-0.1-3.7-0.2-5C88.3,8,88.1,7,87.8,6.2c-0.3-0.7-0.6-1.3-1.1-1.5c-0.5-0.3-1-0.4-1.7-0.4c-0.7,0-1.3,0.2-1.8,0.5
		c-0.5,0.3-0.8,0.9-1.1,1.8c-0.3,0.8-0.4,2-0.5,3.4c-0.1,1.4-0.2,3.1-0.2,5.2v3.5C81.4,20.7,81.5,22.3,81.6,23.6z"/>
	<path class="st0" d="M100.4,10.8c0.2-2.1,0.6-3.9,1.2-5.5c0.7-1.6,1.7-2.9,3-3.8c1.4-1,3.2-1.4,5.6-1.4c2,0,3.6,0.3,4.9,0.8
		c1.3,0.6,2.3,1.5,3.1,2.7c0.8,1.2,1.3,2.9,1.6,4.9c0.3,2,0.5,4.4,0.5,7.3c0,2.2-0.1,4.4-0.2,6.5c-0.2,2.1-0.6,3.9-1.2,5.5
		c-0.7,1.6-1.7,2.8-3,3.8c-1.4,0.9-3.2,1.4-5.6,1.4c-1.9,0-3.6-0.3-4.9-0.8c-1.3-0.5-2.3-1.4-3.1-2.6s-1.3-2.9-1.6-4.9
		c-0.3-2-0.5-4.4-0.5-7.3C100.1,15,100.2,12.8,100.4,10.8z M106.9,23.6c0.1,1.3,0.3,2.3,0.6,3.1c0.3,0.7,0.6,1.3,1.1,1.5
		c0.5,0.3,1,0.4,1.7,0.4c0.7,0,1.3-0.2,1.8-0.5c0.5-0.3,0.8-0.9,1.1-1.8s0.4-2,0.5-3.4c0.1-1.4,0.2-3.1,0.2-5.2v-3.5
		c0-2-0.1-3.7-0.2-5c-0.1-1.3-0.3-2.3-0.6-3.1c-0.3-0.7-0.6-1.3-1.1-1.5s-1-0.4-1.7-0.4c-0.7,0-1.3,0.2-1.8,0.5
		c-0.5,0.3-0.8,0.9-1.1,1.8c-0.3,0.8-0.4,2-0.5,3.4c-0.1,1.4-0.2,3.1-0.2,5.2v3.5C106.7,20.7,106.8,22.3,106.9,23.6z"/>
	<path class="st0" d="M125.7,10.8c0.2-2.1,0.6-3.9,1.2-5.5c0.7-1.6,1.7-2.9,3-3.8s3.2-1.4,5.6-1.4c2,0,3.6,0.3,4.9,0.8
		c1.3,0.6,2.3,1.5,3.1,2.7c0.8,1.2,1.3,2.9,1.6,4.9c0.3,2,0.5,4.4,0.5,7.3c0,2.2-0.1,4.4-0.2,6.5s-0.6,3.9-1.2,5.5
		c-0.7,1.6-1.7,2.8-3,3.8c-1.4,0.9-3.2,1.4-5.6,1.4c-1.9,0-3.6-0.3-4.9-0.8c-1.3-0.5-2.3-1.4-3.1-2.6s-1.3-2.9-1.6-4.9
		c-0.3-2-0.5-4.4-0.5-7.3C125.4,15,125.5,12.8,125.7,10.8z M132.2,23.6c0.1,1.3,0.3,2.3,0.6,3.1c0.3,0.7,0.6,1.3,1.1,1.5
		c0.5,0.3,1,0.4,1.7,0.4c0.7,0,1.3-0.2,1.8-0.5c0.5-0.3,0.8-0.9,1.1-1.8c0.3-0.8,0.4-2,0.5-3.4c0.1-1.4,0.2-3.1,0.2-5.2v-3.5
		c0-2-0.1-3.7-0.2-5c-0.1-1.3-0.3-2.3-0.6-3.1c-0.3-0.7-0.6-1.3-1.1-1.5c-0.5-0.3-1-0.4-1.7-0.4c-0.7,0-1.3,0.2-1.8,0.5
		c-0.5,0.3-0.8,0.9-1.1,1.8c-0.3,0.8-0.4,2-0.5,3.4c-0.1,1.4-0.2,3.1-0.2,5.2v3.5C132,20.7,132.1,22.3,132.2,23.6z"/>
	<path class="st0" d="M151,10.8c0.2-2.1,0.6-3.9,1.2-5.5c0.7-1.6,1.7-2.9,3-3.8c1.4-1,3.2-1.4,5.6-1.4c2,0,3.6,0.3,4.9,0.8
		c1.3,0.6,2.3,1.5,3.1,2.7c0.8,1.2,1.3,2.9,1.6,4.9c0.3,2,0.5,4.4,0.5,7.3c0,2.2-0.1,4.4-0.2,6.5s-0.6,3.9-1.2,5.5
		c-0.7,1.6-1.7,2.8-3,3.8c-1.4,0.9-3.2,1.4-5.6,1.4c-1.9,0-3.6-0.3-4.9-0.8s-2.3-1.4-3.1-2.6c-0.8-1.2-1.3-2.9-1.6-4.9
		c-0.3-2-0.5-4.4-0.5-7.3C150.7,15,150.8,12.8,151,10.8z M157.5,23.6c0.1,1.3,0.3,2.3,0.6,3.1c0.3,0.7,0.6,1.3,1.1,1.5
		c0.5,0.3,1,0.4,1.7,0.4c0.7,0,1.3-0.2,1.8-0.5c0.5-0.3,0.8-0.9,1.1-1.8c0.3-0.8,0.4-2,0.5-3.4c0.1-1.4,0.2-3.1,0.2-5.2v-3.5
		c0-2-0.1-3.7-0.2-5C164.1,8,164,7,163.7,6.2c-0.3-0.7-0.6-1.3-1.1-1.5c-0.5-0.3-1-0.4-1.7-0.4c-0.7,0-1.3,0.2-1.8,0.5
		c-0.5,0.3-0.8,0.9-1.1,1.8c-0.3,0.8-0.4,2-0.5,3.4c-0.1,1.4-0.2,3.1-0.2,5.2v3.5C157.3,20.7,157.4,22.3,157.5,23.6z"/>
	<path class="st0" d="M176.3,10.8c0.2-2.1,0.6-3.9,1.2-5.5c0.7-1.6,1.7-2.9,3-3.8c1.4-1,3.2-1.4,5.6-1.4c2,0,3.6,0.3,4.9,0.8
		c1.3,0.6,2.3,1.5,3.1,2.7c0.8,1.2,1.3,2.9,1.6,4.9c0.3,2,0.5,4.4,0.5,7.3c0,2.2-0.1,4.4-0.2,6.5c-0.2,2.1-0.6,3.9-1.2,5.5
		c-0.7,1.6-1.7,2.8-3,3.8c-1.4,0.9-3.2,1.4-5.6,1.4c-1.9,0-3.6-0.3-4.9-0.8c-1.3-0.5-2.3-1.4-3.1-2.6c-0.8-1.2-1.3-2.9-1.6-4.9
		c-0.3-2-0.5-4.4-0.5-7.3C176,15,176.1,12.8,176.3,10.8z M182.8,23.6c0.1,1.3,0.3,2.3,0.6,3.1c0.3,0.7,0.6,1.3,1.1,1.5
		c0.5,0.3,1,0.4,1.7,0.4c0.7,0,1.3-0.2,1.8-0.5c0.5-0.3,0.8-0.9,1.1-1.8s0.4-2,0.5-3.4c0.1-1.4,0.2-3.1,0.2-5.2v-3.5
		c0-2-0.1-3.7-0.2-5C189.4,8,189.3,7,189,6.2c-0.3-0.7-0.6-1.3-1.1-1.5s-1-0.4-1.7-0.4c-0.7,0-1.3,0.2-1.8,0.5
		c-0.5,0.3-0.8,0.9-1.1,1.8c-0.3,0.8-0.4,2-0.5,3.4c-0.1,1.4-0.2,3.1-0.2,5.2v3.5C182.6,20.7,182.7,22.3,182.8,23.6z"/>
</g>
</svg>
