<?xml version="1.0" encoding="utf-8"?>
<!-- Generator: Adobe Illustrator 17.0.0, SVG Export Plug-In . SVG Version: 6.00 Build 0)  -->
<!DOCTYPE svg PUBLIC "-//W3C//DTD SVG 1.1//EN" "http://www.w3.org/Graphics/SVG/1.1/DTD/svg11.dtd">
<svg version="1.1" id="Layer_1" xmlns="http://www.w3.org/2000/svg" xmlns:xlink="http://www.w3.org/1999/xlink" x="0px" y="0px"
	 width="96px" height="96px" viewBox="0 0 96 96" style="enable-background:new 0 0 96 96;" xml:space="preserve">
<style type="text/css">
	.st0{fill:#3FA9E2;}
	.st1{fill:#2487B2;}
	.st2{fill:#FFFFFF;}
	.st3{fill:#0063AD;}
	.st4{fill:#004F7F;}
	.st5{fill:#F4CC0C;}
	.st6{fill:#2DCC70;}
	.st7{fill:#EC4348;}
	.st8{fill:#FCA2A4;}
</style>
<g>
	<circle class="st3" cx="48" cy="48" r="48"/>
	<g>
		<path class="st4" d="M37,67.5c-0.1,0-0.2,0-0.2,0H36H24.6h-0.8c-0.1,0-0.2,0-0.2,0c-0.3-0.1-0.6-0.4-0.6-0.8v2.8
			c0,0.4,0.2,0.7,0.6,0.8c0.1,0,0.2,0,0.2,0h0.8H36h0.8c0.1,0,0.2,0,0.2,0c0.3-0.1,0.6-0.4,0.6-0.8h0l0-2.8
			C37.6,67.1,37.4,67.4,37,67.5z"/>
		<path class="st2" d="M37.6,66.7C37.6,66.7,37.6,66.7,37.6,66.7L37.6,66.7C37.6,66.7,37.6,66.7,37.6,66.7L37.6,66.7z"/>
		<path class="st2" d="M36.8,43.2h-13c-0.5,0-0.8,0.4-0.8,0.8v2v20.6v0c0,0.4,0.2,0.7,0.6,0.8c0.1,0,0.2,0,0.2,0h0.8H36h0.8
			c0.1,0,0.2,0,0.2,0c0.3-0.1,0.6-0.4,0.6-0.8v0c0,0,0,0,0,0h0l0-20.6l0-2C37.6,43.6,37.2,43.2,36.8,43.2z M34.5,65.7
			c-0.9,0-1.6-0.7-1.6-1.6c0-0.9,0.7-1.6,1.6-1.6s1.6,0.7,1.6,1.6C36,65,35.3,65.7,34.5,65.7z"/>
		<circle class="st4" cx="34.5" cy="64.2" r="1.6"/>
		<g>
			<path class="st4" d="M69.2,61.2l-0.8,0.3l0.2,0.8c0,0,0.1,0.3,0.1,0.9c0,0.1,0,0.1,0,0.2l0.5-0.2c1.2-0.4,1.6-2.1,1.6-3.6
				c0-0.4,0-1.7,0-2C70.9,59.1,70.5,60.8,69.2,61.2z"/>
			<path class="st4" d="M40.4,64.5c0,0-0.1,2,0.4,2.9c0.4,0.9,1.6,1.9,2.6,2h1.9h19.9c1.3,0,2.9-1.5,3.4-3.1
				c0.3-0.8,0.1-2.8,0.1-3.1c-0.1,1.2-0.4,2.6-3.5,3.3H45.9h-0.3h-0.3h-1.9C42.4,66.5,41.2,66,40.4,64.5"/>
			<path class="st4" d="M73,46.9c0,0.6-0.2,1.5-0.8,2.5l-0.3,0.4l0.2,0.5c0,0,0.1,0.3,0.2,0.8c0.5-0.9,0.6-1.4,0.6-2.1
				C73,48.5,73,47.2,73,46.9z"/>
			<path class="st4" d="M71.2,55l-0.6,0.3l0.1,0.7c0,0,0.1,0.5,0.1,1.2l0.4-0.2c1-0.6,1.1-1,1.3-2.4c0.1-0.4,0-1.9,0-2.2
				C72.5,53.5,72.3,54.4,71.2,55z"/>
			<path class="st4" d="M55.8,43c0.4-1.3,1.2-4.2,1.2-7.2c0-0.3,0-0.6,0-1c-0.2,3.7-1.4,6.9-1.4,6.9L55.1,43"/>
			<polygon class="st4" points="68.7,63.4 68.7,63.4 68.7,63.4 			"/>
			<path class="st4" d="M70.9,57.6C70.9,57.6,70.9,57.6,70.9,57.6C70.9,57.6,70.9,57.6,70.9,57.6c0-0.1,0-0.2,0-0.3l0,0
				C70.9,57.3,70.9,57.4,70.9,57.6z"/>
			<path class="st4" d="M72.5,52.5C72.5,52.5,72.5,52.5,72.5,52.5c0-0.3,0-0.5-0.1-0.8C72.5,51.9,72.5,52.2,72.5,52.5
				C72.5,52.5,72.5,52.5,72.5,52.5z"/>
			<path class="st4" d="M72.5,51.7c0-0.2-0.1-0.5-0.1-0.7l0,0C72.4,51.2,72.4,51.4,72.5,51.7z"/>
			<polyline class="st4" points="73,46.9 73,46.9 73,46.9 			"/>
		</g>
		<path class="st2" d="M71.9,49.8l0.3-0.4c0.6-1,0.8-1.8,0.8-2.5c0,0,0,0,0,0c0-0.9-0.4-1.7-1.1-2.3c-0.2-0.2-0.4-0.4-0.7-0.6
			c-0.7-0.5-1.4-0.8-1.7-0.9H55.1l0.5-1.3c0,0,1.2-3.2,1.4-6.9c0,0,0,0,0,0c0-0.3,0-0.7,0-1c0-2.1-0.4-4.2-1.4-5.8
			c-0.3-0.5-0.7-0.9-1-1.2c0,0,0,0,0,0c-0.2-0.2-0.3-0.3-0.4-0.4c-0.6-0.5-1.1-0.7-1.5-0.7c0,0-0.1,0-0.1,0c-0.5,0-1,0.2-1.3,0.5
			c-0.1,0.1-0.2,0.2-0.3,0.3c0,0,0,0,0,0c0.1,0.7,1,3.6,0.5,4.3c-0.1,2-0.8,2.9-1,3.3c0,0,0,0,0,0c-3.1,8.2-8.1,11.9-10,13.1v17.4
			c0.8,1.5,2,1.9,3,2.1h1.9h0.3h0.3h19.4c3.1-0.6,3.4-2.1,3.5-3.3c0,0,0,0,0,0l0,0c0-0.1,0-0.1,0-0.2c0-0.5-0.1-0.9-0.1-0.9
			l-0.2-0.8l0.8-0.3c1.2-0.4,1.6-2.1,1.6-3.6c0,0,0,0,0,0c0-0.1,0-0.2,0-0.3l0,0c0-0.7-0.1-1.2-0.1-1.2l-0.1-0.7l0.6-0.3
			c1-0.6,1.3-1.5,1.3-2.5c0,0,0,0,0,0c0-0.3,0-0.5-0.1-0.7c0,0,0,0,0,0c0-0.2-0.1-0.5-0.1-0.7l0,0c-0.1-0.5-0.2-0.8-0.2-0.8
			L71.9,49.8z"/>
	</g>
</g>
</svg>
