<?xml version="1.0" encoding="utf-8"?>
<!-- Generator: Adobe Illustrator 17.0.0, SVG Export Plug-In . SVG Version: 6.00 Build 0)  -->
<!DOCTYPE svg PUBLIC "-//W3C//DTD SVG 1.1//EN" "http://www.w3.org/Graphics/SVG/1.1/DTD/svg11.dtd">
<svg version="1.1" id="Layer_1" xmlns="http://www.w3.org/2000/svg" xmlns:xlink="http://www.w3.org/1999/xlink" x="0px" y="0px"
	 width="96px" height="96px" viewBox="0 0 96 96" style="enable-background:new 0 0 96 96;" xml:space="preserve">
<style type="text/css">
	.st0{fill:#3FA9E2;}
	.st1{fill:#2487B2;}
	.st2{fill:#FFFFFF;}
	.st3{fill:#0063AD;}
	.st4{fill:#004F7F;}
	.st5{fill:#F4CC0C;}
	.st6{fill:#2DCC70;}
	.st7{fill:#EC4348;}
	.st8{fill:#FCA2A4;}
</style>
<g>
	<circle class="st2" cx="48" cy="48" r="48"/>
	<g>
		<path class="st2" d="M44.4,43.1c0.3-0.5,0.8-0.6,1.3-0.7c0.4,0,0.8,0,1.2,0c0.6,0,1.3,0.1,1.9,0.1c0-0.1,0-0.2-0.1-0.2
			c-1.4-3.9-2.7-7.8-4.1-11.7c-0.5-1.3-1.1-2.6-1.6-3.8c-0.2-0.4-0.5-0.8-0.9-1.1c-0.8-0.7-1.9-0.4-2.3,0.6
			c-0.2,0.4-0.2,0.8-0.2,1.3c0,1.2,0.4,2.4,0.7,3.5c1,3.6,2.3,7.1,3.6,10.6C44.1,42.2,44.3,42.6,44.4,43.1z"/>
		<path class="st2" d="M43.3,57.8c0.4,0.4,0.9,0.7,1.4,1c0.9,0.5,1.7,0.2,2.1-0.7c0.2-0.4,0.2-0.8,0.1-1.3c-0.9-3.2-2.3-6.1-4.3-8.7
			c-0.4-0.5-0.9-1-1.5-1.4c-0.4-0.3-0.8-0.5-1.3-0.5c-0.2,0.1-0.5,0.1-0.7,0.3c-0.7,0.4-1.2,0.9-1.5,1.6c-0.1,0.3-0.2,0.7-0.2,1
			c0.1,0.5,0.2,1,0.4,1.4C39.2,53.3,41,55.7,43.3,57.8z"/>
		<path class="st2" d="M60.4,46.9c-0.3-0.1-0.7-0.3-1-0.4c-4-1.4-8-1.9-12.2-1.9c-0.3,0-0.5,0.1-0.8,0.1c-0.5,0.1-0.9,0.5-1,1.1
			c-0.2,1.3,0.2,2.4,1.2,3.2c0.7,0.5,1.4,0.8,2.2,1c1.9,0.5,3.8,0.6,5.7,0.7c1,0,2,0,3.1,0c0.6,0,0.9,0.2,1.1,0.8
			c0,0.1,0,0.1,0.1,0.2c0.1,0.5,0.1,0.5-0.3,0.8c-0.7,0.4-1.4,0.7-2.1,1c-2.9,1.1-4.9,3-6.3,5.6c-0.9,1.7-1.1,3.4-0.5,5.3
			c0.2,0.8,0.5,1.5,0.7,2.3c0.1,0.3,0,0.6,0,0.9c-0.5,0-1-0.2-1.4-0.5c-0.5-0.4-0.9-0.9-1.2-1.5c-0.4-1-0.6-2-0.7-3.1
			c0-0.4,0-0.8,0-1.3c0,0-0.1,0-0.1,0c-0.7,0.6-1.4,0.4-2.2,0.2c0,0.1,0,0.2,0.1,0.3c0.5,2.1-0.7,3.3-1.9,3.8
			c-0.9,0.4-1.8,0.4-2.7,0c-2.2-0.8-3.9-2.3-4.9-4.4c-0.3-0.5-0.4-1.1-0.3-1.7c0-0.4,0.1-0.7,0.4-1c0.3,0.4,0.6,0.8,0.9,1.2
			c0.7,0.8,1.3,1.6,2,2.4c0.5,0.5,1.1,1,1.9,1.1c0.7,0.2,1.4,0.1,1.9-0.5c0.3-0.3,0.5-0.7,0.3-1.1c-0.2-0.4-0.3-0.8-0.5-1.1
			c-0.7-1.2-1.5-2.3-2.3-3.3c-0.7-0.8-1.4-1.7-2.2-2.4c-0.8-0.7-1.5-0.7-2.5,0c-0.8,0.5-1.3,1.3-1.5,2.2c-0.4,1.1-0.3,2.2,0,3.2
			c0.8,2.9,2.4,5.3,4.7,7.2c2.3,2,5,3,7.9,3.2c2.3,0.2,4.6,0,6.8-0.9c3.4-1.3,5.9-3.6,7.8-6.7c1.4-2.2,2.1-4.7,2.4-7.2
			c0.2-1.9,0.2-3.8-0.1-5.7C62.4,48.5,61.7,47.5,60.4,46.9z"/>
		<path class="st2" d="M56.9,43.7c0.3,0.1,0.4,0,0.5-0.3c0.8-2.2,1.5-4.3,2.3-6.5c0.8-2.4,1.7-4.9,2.3-7.4c0.2-0.6,0.2-1.3,0-1.9
			c-0.3-1.1-1.5-1.5-2.4-0.7c-0.4,0.4-0.8,0.9-1.1,1.4c-0.5,0.8-0.9,1.7-1.2,2.6C56.1,33.9,55,37,54,40c-0.3,1-0.7,2-1,3
			c0.1,0,0.1,0,0.2,0C54.4,43.3,55.6,43.5,56.9,43.7z"/>
		<path class="st2" d="M50.8,54.5c0.6-0.5,1.2-1,1.8-1.5c-1.8-0.1-3.5-0.4-5.1-0.9c0.5,1.4,1.1,2.8,1.6,4.2
			C49.7,55.6,50.2,55,50.8,54.5z"/>
		<path d="M63.8,46.6c-0.9-1.2-2.1-1.8-3.4-2.1c-0.2-0.1-0.4-0.1-0.7-0.2c0.1-0.2,0.1-0.3,0.1-0.4c1.4-4,2.8-8,3.9-12.2
			c0.3-1.2,0.6-2.4,0.6-3.7c0-0.9-0.3-1.8-0.8-2.5c-0.9-1.3-3.3-2.2-4.9-0.4c-0.5,0.5-0.9,1.1-1.3,1.6c-1.2,1.8-2.2,3.8-3,5.8
			c-1.1,2.8-2.1,5.6-3.1,8.4c0,0.1-0.1,0.2-0.1,0.3c-0.1-0.2-0.1-0.3-0.1-0.3c-1.1-3.2-2.3-6.3-3.4-9.5c-0.8-2.1-1.7-4-3-5.9
			c-0.4-0.6-0.9-1.2-1.5-1.7c-0.4-0.4-0.8-0.6-1.4-0.6c-1.2,0-2.2,0.3-3,1.2c-1,1.2-1.3,2.6-1,4.1c0.2,1.3,0.5,2.6,0.9,3.9
			c1.1,4.1,2.5,8,3.9,12c0,0.1,0.1,0.2,0.1,0.3c-0.5-0.2-1-0.5-1.4-0.6c-1-0.4-2-0.4-2.9,0.2c-1.1,0.6-2,1.5-2.7,2.7
			c-0.5,0.8-0.6,1.6-0.3,2.5c0.3,0.8,0.5,1.6,0.8,2.4c-0.4,0.1-0.8,0.2-1.2,0.4c-1.8,0.6-3.1,1.7-3.6,3.6c-0.6,2.2-0.5,4.3,0.2,6.4
			c1.3,3.7,3.8,6.4,7.1,8.3c3.9,2.3,8.2,2.8,12.7,1.8c5.5-1.1,9.4-4.4,12-9.3c2.2-4.3,2.6-8.9,1.9-13.6
			C64.8,48.5,64.4,47.5,63.8,46.6z M54,40c1.1-3,2.1-6.1,3.2-9.1c0.3-0.9,0.8-1.8,1.2-2.6c0.3-0.5,0.7-1,1.1-1.4
			c0.9-0.8,2.1-0.4,2.4,0.7c0.2,0.7,0.1,1.3,0,1.9c-0.6,2.5-1.4,5-2.3,7.4c-0.7,2.2-1.5,4.3-2.3,6.5c-0.1,0.3-0.2,0.3-0.5,0.3
			c-1.3-0.2-2.5-0.4-3.8-0.7c0,0-0.1,0-0.2,0C53.3,42,53.6,41,54,40z M40.4,31.2c-0.3-1.2-0.6-2.3-0.7-3.5c0-0.4,0-0.9,0.2-1.3
			c0.4-1,1.5-1.3,2.3-0.6c0.3,0.3,0.7,0.7,0.9,1.1c0.6,1.3,1.2,2.5,1.6,3.8c1.4,3.9,2.7,7.8,4.1,11.7c0,0.1,0,0.1,0.1,0.2
			c-0.7-0.1-1.3-0.1-1.9-0.1c-0.4,0-0.8,0-1.2,0c-0.5,0-1,0.1-1.3,0.7c-0.2-0.4-0.3-0.8-0.5-1.3C42.7,38.3,41.4,34.8,40.4,31.2z
			 M37.7,48.1c0.3-0.7,0.9-1.2,1.5-1.6c0.2-0.1,0.5-0.2,0.7-0.3c0.5,0.1,0.9,0.2,1.3,0.5c0.5,0.4,1.1,0.9,1.5,1.4
			c2,2.6,3.4,5.6,4.3,8.7c0.1,0.4,0.1,0.9-0.1,1.3c-0.5,0.9-1.3,1.2-2.1,0.7c-0.5-0.3-1-0.6-1.4-1c-2.2-2.1-4-4.5-5.3-7.3
			c-0.2-0.4-0.4-0.9-0.4-1.4C37.4,48.8,37.5,48.4,37.7,48.1z M62.8,55.6c-0.3,2.6-1,5-2.4,7.2c-1.9,3.1-4.4,5.4-7.8,6.7
			c-2.2,0.8-4.5,1.1-6.8,0.9c-3-0.3-5.7-1.3-7.9-3.2c-2.3-1.9-3.9-4.3-4.7-7.2c-0.3-1.1-0.3-2.2,0-3.2c0.3-0.9,0.8-1.6,1.5-2.2
			c1-0.7,1.7-0.7,2.5,0c0.9,0.7,1.6,1.5,2.2,2.4c0.9,1.1,1.7,2.1,2.3,3.3c0.2,0.4,0.4,0.7,0.5,1.1c0.2,0.4,0,0.8-0.3,1.1
			c-0.6,0.5-1.2,0.6-1.9,0.5c-0.7-0.2-1.4-0.6-1.9-1.1c-0.7-0.8-1.4-1.6-2-2.4c-0.3-0.4-0.6-0.8-0.9-1.2c-0.3,0.3-0.4,0.7-0.4,1
			c0,0.6,0.1,1.1,0.3,1.7c1,2.1,2.7,3.6,4.9,4.4c0.9,0.3,1.8,0.3,2.7,0c1.2-0.5,2.4-1.7,1.9-3.8c0-0.1,0-0.2-0.1-0.3
			c0.8,0.2,1.5,0.4,2.2-0.2c0,0,0.1,0,0.1,0c0,0.4,0,0.8,0,1.3c0.1,1.1,0.2,2.1,0.7,3.1c0.3,0.6,0.6,1.1,1.2,1.5
			c0.4,0.3,0.8,0.5,1.4,0.5c0-0.3,0.1-0.6,0-0.9c-0.2-0.8-0.4-1.5-0.7-2.3c-0.6-1.8-0.4-3.6,0.5-5.3c1.4-2.7,3.5-4.6,6.3-5.6
			c0.7-0.3,1.4-0.6,2.1-1c0.4-0.2,0.4-0.3,0.3-0.8c0-0.1,0-0.1-0.1-0.2c-0.2-0.5-0.5-0.8-1.1-0.8c-1,0-2,0-3.1,0
			c-1.9-0.1-3.8-0.2-5.7-0.7c-0.8-0.2-1.6-0.5-2.2-1c-1-0.8-1.4-1.9-1.2-3.2c0.1-0.5,0.4-0.9,1-1.1c0.3-0.1,0.5-0.1,0.8-0.1
			c4.2-0.1,8.3,0.5,12.2,1.9c0.4,0.1,0.7,0.3,1,0.4c1.3,0.6,2,1.6,2.3,3.1C63,51.8,63,53.7,62.8,55.6z M47.5,52
			c1.6,0.6,3.3,0.8,5.1,0.9c-0.6,0.5-1.3,1-1.8,1.5c-0.6,0.5-1.1,1.1-1.6,1.7C48.6,54.8,48.1,53.4,47.5,52z"/>
	</g>
</g>
</svg>
