<?xml version="1.0" encoding="utf-8"?>
<!-- Generator: Adobe Illustrator 17.0.0, SVG Export Plug-In . SVG Version: 6.00 Build 0)  -->
<!DOCTYPE svg PUBLIC "-//W3C//DTD SVG 1.1//EN" "http://www.w3.org/Graphics/SVG/1.1/DTD/svg11.dtd">
<svg version="1.1" id="Layer_1" xmlns="http://www.w3.org/2000/svg" xmlns:xlink="http://www.w3.org/1999/xlink" x="0px" y="0px"
	 width="96px" height="96px" viewBox="0 0 96 96" style="enable-background:new 0 0 96 96;" xml:space="preserve">
<style type="text/css">
	.st0{fill:#3FA9E2;}
	.st1{fill:#2487B2;}
	.st2{fill:#FFFFFF;}
	.st3{fill:#0063AD;}
	.st4{fill:#004F7F;}
	.st5{fill:#F4CC0C;}
	.st6{fill:#2DCC70;}
	.st7{fill:#EC4348;}
	.st8{fill:#FCA2A4;}
</style>
<g>
	<circle class="st3" cx="48" cy="48" r="48"/>
	<g>
		<path class="st2" d="M39.5,30c0,2.4-1.8,4.3-4.7,4.3c-2.7,0-4.5-1.9-4.5-4.3c0-2.5,1.8-4.3,4.6-4.3C37.7,25.7,39.4,27.6,39.5,30z
			 M30.5,65.8v-28h8.7v28H30.5z"/>
		<path class="st2" d="M44.4,46.7c0-3.5-0.1-6.4-0.2-8.9h7.5l0.4,3.9h0.2c1.1-1.8,3.9-4.5,8.6-4.5c5.7,0,10,3.8,10,12.1v16.5h-8.7
			V50.3c0-3.6-1.3-6.1-4.4-6.1c-2.4,0-3.8,1.7-4.5,3.3c-0.2,0.6-0.3,1.4-0.3,2.2v16.1h-8.7V46.7z"/>
	</g>
</g>
</svg>
