<?xml version="1.0" encoding="utf-8"?>
<!-- Generator: Adobe Illustrator 17.0.0, SVG Export Plug-In . SVG Version: 6.00 Build 0)  -->
<!DOCTYPE svg PUBLIC "-//W3C//DTD SVG 1.1//EN" "http://www.w3.org/Graphics/SVG/1.1/DTD/svg11.dtd">
<svg version="1.1" id="Layer_1" xmlns="http://www.w3.org/2000/svg" xmlns:xlink="http://www.w3.org/1999/xlink" x="0px" y="0px"
	 width="98.9px" height="265.7px" viewBox="0 0 98.9 265.7" enable-background="new 0 0 98.9 265.7" xml:space="preserve">
<g>
	<circle fill="#353E4C" cx="48.1" cy="21.7" r="21.7"/>
	<path fill="#353E4C" d="M22.5,253.6c0,6.7,5.4,12.2,12.2,12.2c6.7,0,12.2-5.4,12.2-12.2v-102h5.4v102c0,6.7,5.4,12.2,12.2,12.2
		s12.2-5.4,12.2-12.2l0.1-175.8h5.3v64.8c0,13,17,13,17,0V76.4c0-14.4-8.5-28.5-25.3-28.5H25.2C9.6,47.9,0,60.4,0,76v66.6
		c0,12.9,17.1,12.9,17.1,0V77.8h5.4V253.6z"/>
</g>
</svg>
