<?xml version="1.0" encoding="utf-8"?>
<!-- Generator: Adobe Illustrator 17.0.0, SVG Export Plug-In . SVG Version: 6.00 Build 0)  -->
<!DOCTYPE svg PUBLIC "-//W3C//DTD SVG 1.1//EN" "http://www.w3.org/Graphics/SVG/1.1/DTD/svg11.dtd">
<svg version="1.1" id="Layer_1" xmlns="http://www.w3.org/2000/svg" xmlns:xlink="http://www.w3.org/1999/xlink" x="0px" y="0px"
	 width="96px" height="96px" viewBox="0 0 96 96" style="enable-background:new 0 0 96 96;" xml:space="preserve">
<style type="text/css">
	.st0{fill:#3FA9E2;}
	.st1{fill:#2487B2;}
	.st2{fill:#FFFFFF;}
	.st3{fill:#0063AD;}
	.st4{fill:#004F7F;}
	.st5{fill:#F4CC0C;}
	.st6{fill:#2DCC70;}
	.st7{fill:#EC4348;}
	.st8{fill:#FCA2A4;}
</style>
<g>
	<path class="st6" d="M96,48c0,26.5-20,48-46.6,48C22.9,96,0,74.5,0,48C0,21.5,22.9,0,49.4,0C76,0,96,21.5,96,48z"/>
	<path class="st2" d="M26.4,36.1c0,4,1.3,6.9,4,8.6c2.2,1.4,4.7,1.6,6,1.6c0.3,0,0.6,0,0.7,0c0,0-0.4,2.7,1.6,5.4l-0.1,0
		c-3.5,0-14.8,0.7-14.8,10c0,9.5,10.4,9.9,12.5,9.9c0.2,0,0.3,0,0.3,0c0,0,0.2,0,0.4,0c1.3,0,4.8-0.2,8-1.7c4.2-2,6.3-5.5,6.3-10.5
		c0-4.7-3.2-7.6-5.6-9.6c-1.4-1.3-2.7-2.3-2.7-3.4c0-1.1,0.9-1.9,2-2.9c1.9-1.7,3.6-4,3.6-8.5c0-3.9-0.5-6.6-3.6-8.2
		c0.3-0.2,1.5-0.3,2.1-0.4c1.7-0.2,4.2-0.5,4.2-1.9v-0.3H39C38.8,24.3,26.4,24.8,26.4,36.1z M46.4,60.4c0.2,3.8-3,6.6-7.9,6.9
		c-4.9,0.4-9-1.9-9.2-5.6c-0.1-1.8,0.7-3.6,2.2-5c1.6-1.4,3.8-2.3,6.1-2.5c0.3,0,0.6,0,0.8,0C43.1,54.1,46.2,56.8,46.4,60.4z
		 M43.2,33.5c1.2,4.3-0.6,8.7-3.5,9.6c-0.3,0.1-0.7,0.1-1,0.1c-2.7,0-5.3-2.7-6.3-6.4c-0.5-2.1-0.5-3.9,0.1-5.7
		c0.6-1.7,1.7-2.9,3.1-3.3c0.3-0.1,0.7-0.1,1-0.1C39.8,27.7,41.9,29,43.2,33.5z M64,42.8v-8.1h-5.1v8.1h-8.1V48h8.1V56H64V48h8.1
		v-5.1H64z"/>
</g>
</svg>
