<?xml version="1.0" encoding="utf-8"?>
<!-- Generator: Adobe Illustrator 17.0.0, SVG Export Plug-In . SVG Version: 6.00 Build 0)  -->
<!DOCTYPE svg PUBLIC "-//W3C//DTD SVG 1.1//EN" "http://www.w3.org/Graphics/SVG/1.1/DTD/svg11.dtd">
<svg version="1.1" id="Layer_1" xmlns="http://www.w3.org/2000/svg" xmlns:xlink="http://www.w3.org/1999/xlink" x="0px" y="0px"
	 width="135.419px" height="156.363px" viewBox="0 0 135.419 156.363" enable-background="new 0 0 135.419 156.363"
	 xml:space="preserve">
<g>
	<g>
		<g>
			<polygon fill="#FFFFFF" points="0.005,117.277 0,39.095 67.705,0 135.414,39.086 135.419,117.268 67.715,156.363 			"/>
		</g>
	</g>
	<g>
		<path fill="#FCA2A4" d="M108.412,55.564c-0.021-0.091-0.041-0.183-0.063-0.274c-0.059-0.25-0.129-0.496-0.195-0.745
			c-0.197-0.746-0.441-1.475-0.693-2.201c-0.132-0.378-0.271-0.753-0.418-1.125c-0.039-0.1-0.071-0.202-0.112-0.301l-0.016-0.003
			c-5.227-12.933-19.17-22.202-35.595-22.202c-11.056,0-21.001,4.195-27.918,10.88c-4.569,4.417-7.814,9.921-9.183,16.023
			c-0.324,1.444-0.539,2.922-0.646,4.426c-0.208,1.586-0.343,2.767-0.343,2.767l-6.777,17.627c-0.16,0.315-0.234,0.678-0.234,1.052
			c0,1.486,1.36,2.693,3.055,2.693h3.956v9.366v5.569c0,4.422,4.063,8.007,9.076,8.007h11.841v0.014
			c2.431,0.076,4.379,1.826,4.379,3.989v17.243l36.149-11.345V98.907V88.582c4.533-3.145,8.238-7.186,10.771-11.818
			c2.404-4.396,3.752-9.325,3.752-14.527C109.2,59.947,108.919,57.719,108.412,55.564z"/>
	</g>
	<ellipse fill="#FD5459" cx="71.617" cy="61.935" rx="28.488" ry="25.058"/>
	<path fill="#EC4348" d="M82.852,59.877c-0.02-0.048-0.055-0.093-0.076-0.141c-0.011-0.025-0.025-0.05-0.035-0.075
		c-0.25-1.694,0.83-3.95,0.83-3.95l-1.401-1.399l-1.4-1.4c0,0-2.293,1.101-3.99,0.828c-0.155-0.068-0.312,0.02-0.47-0.041
		c-1.431-0.985-2.298-3.328-2.298-3.328h-1.979h-1.979c0,0-0.875,2.37-2.319,3.344c-0.105,0.042-0.21,0.006-0.313,0.05
		c-1.715,0.372-4.189-0.867-4.189-0.867l-1.399,1.379l-1.433,1.357c0,0,1.298,2.633,0.817,4.352
		c-0.88,1.552-3.642,2.499-3.642,2.499v1.887v0.091l-0.027,1.979c0,0,2.78,0.954,3.659,2.508c0.485,1.721-0.823,4.382-0.823,4.382
		l1.397,1.399l1.399,1.399c0,0,2.588-1.101,4.31-0.671c1.6,0.832,2.584,3.914,2.584,3.914h1.978h1.979c0,0,1.088-3.383,2.834-4.021
		c1.701-0.244,3.985,0.78,3.985,0.78l1.399-1.441l1.399-1.42c0,0-1.22-2.524-0.819-4.24c0.008-0.018,0.039-0.042,0.047-0.061
		c0.857-1.574,3.697-2.546,3.697-2.546v-1.979V64.37v-1.907C86.575,62.463,83.678,61.478,82.852,59.877z M76.698,64.467
		c0,2.571-2.084,4.647-4.655,4.647c-2.571,0-4.656-2.073-4.656-4.644c0-0.039,0.005-0.101,0.005-0.101
		c0.061-2,2.117-4.542,4.651-4.542c2.533,0,4.59,2.542,4.65,4.542C76.693,64.37,76.698,64.429,76.698,64.467z"/>
	<g>
		<g>
			<path fill="none" d="M72.072,67.312c2.571,0,4.655-2.303,4.655-4.874c0-0.039-0.005-0.332-0.006-0.332h-9.299
				c0,0-0.006,0.294-0.006,0.332C67.417,65.009,69.501,67.312,72.072,67.312z"/>
			<path fill="#FFFFFF" d="M76.728,62.672c0,2.571-2.084,4.647-4.655,4.647c-2.571,0-4.656-2.073-4.656-4.644
				c0-0.039,0.005-0.101,0.005-0.101c0.061-2,2.117-4.542,4.651-4.542c2.533,0,4.589,2.542,4.65,4.542
				C76.723,62.575,76.728,62.634,76.728,62.672z M82.882,58.082c-0.02-0.048-0.055-0.094-0.076-0.141
				c-0.011-0.025-0.026-0.05-0.035-0.075c-0.25-1.693,0.83-3.95,0.83-3.95L82.2,52.517l-1.4-1.4c0,0-2.293,1.101-3.99,0.828
				c-0.155-0.068-0.312,0.02-0.47-0.041c-1.431-0.985-2.298-3.328-2.298-3.328h-1.979h-1.979c0,0-0.875,2.37-2.319,3.344
				c-0.105,0.042-0.21,0.006-0.313,0.05c-1.715,0.372-4.189-0.867-4.189-0.867l-1.399,1.379l-1.433,1.357
				c0,0,1.298,2.633,0.817,4.352c-0.88,1.552-3.642,2.499-3.642,2.499v1.887v0.091l-0.028,1.979c0,0,2.78,0.954,3.659,2.508
				c0.485,1.721-0.823,4.382-0.823,4.382l1.397,1.399l1.399,1.399c0,0,2.588-1.101,4.31-0.671c1.6,0.832,2.584,3.914,2.584,3.914
				h1.978h1.979c0,0,1.088-3.383,2.834-4.021c1.701-0.244,3.985,0.78,3.985,0.78l1.399-1.441l1.399-1.42c0,0-1.22-2.524-0.819-4.24
				c0.008-0.018,0.039-0.042,0.047-0.061c0.857-1.574,3.697-2.546,3.697-2.546v-1.979v-0.071v-1.907
				C86.605,60.668,83.708,59.683,82.882,58.082z"/>
		</g>
		<path fill="#FCA2A4" d="M72.062,56.445c-3.368,0-6.098,2.73-6.098,6.098c0,3.368,2.73,6.098,6.098,6.098
			c3.368,0,6.098-2.73,6.098-6.098C78.16,59.175,75.43,56.445,72.062,56.445z M72.062,66.908c-2.411,0-4.366-1.954-4.366-4.365
			c0-2.411,1.955-4.365,4.366-4.365c2.411,0,4.366,1.954,4.366,4.365C76.427,64.954,74.473,66.908,72.062,66.908z"/>
	</g>
	<g>
		<path fill="#EC4348" d="M71.617,39.067c15.32,0,27.811,10.638,28.457,23.973c0.02-0.366,0.031-0.734,0.031-1.105
			c0-13.839-12.755-25.057-28.488-25.057S43.129,48.097,43.129,61.935c0,0.371,0.011,0.739,0.031,1.105
			C43.806,49.705,56.297,39.067,71.617,39.067z"/>
	</g>
</g>
</svg>
