<?xml version="1.0" encoding="utf-8"?>
<!-- Generator: Adobe Illustrator 17.0.0, SVG Export Plug-In . SVG Version: 6.00 Build 0)  -->
<!DOCTYPE svg PUBLIC "-//W3C//DTD SVG 1.1//EN" "http://www.w3.org/Graphics/SVG/1.1/DTD/svg11.dtd">
<svg version="1.1" id="Layer_1" xmlns="http://www.w3.org/2000/svg" xmlns:xlink="http://www.w3.org/1999/xlink" x="0px" y="0px"
	 width="135.419px" height="156.363px" viewBox="0 0 135.419 156.363" enable-background="new 0 0 135.419 156.363"
	 xml:space="preserve">
<g>
	<polygon fill="#FFFFFF" points="0.005,117.277 0,39.095 67.705,0 135.414,39.086 135.419,117.268 67.715,156.363 	"/>
	<path fill="#FD5459" d="M107.86,112.311c0,0.877-0.711,1.589-1.589,1.589H28.354c-0.877,0-1.589-0.711-1.589-1.589V80.578
		c0-0.877,0.711-1.589,1.589-1.589h77.917c0.877,0,1.589,0.711,1.589,1.589V112.311z"/>
	<path fill="#FD7174" d="M110.64,86.4c0,0.877-0.711,1.589-1.589,1.589H26.368c-0.877,0-1.589-0.711-1.589-1.589V54.667
		c0-0.877,0.711-1.589,1.589-1.589h82.682c0.877,0,1.589,0.711,1.589,1.589V86.4z"/>
	<g>
		<path fill="#CD2C31" d="M48.732,53.034v-1.627c0-3.268,2.65-5.918,5.918-5.918h26.12c3.268,0,5.918,2.649,5.918,5.918v1.627
			c0,0.015-0.002,0.029-0.002,0.044h4.291v-2.037c0-4.737-3.84-8.577-8.577-8.577H53.021c-4.737,0-8.577,3.84-8.577,8.577v2.037
			h4.291C48.734,53.063,48.732,53.049,48.732,53.034z"/>
	</g>
	<g>
		<path fill="#CD2C31" d="M47.542,50.012h-2.123c-2,0-3.684,1.284-4.318,3.066H51.86C51.227,51.296,49.542,50.012,47.542,50.012z"/>
	</g>
	<g>
		<path fill="#CD2C31" d="M89.764,50.012h-2.123c-2,0-3.685,1.284-4.318,3.066h10.759C93.449,51.296,91.764,50.012,89.764,50.012z"
			/>
	</g>
	<rect x="26.766" y="87.988" fill="#CD2C31" width="81.094" height="2.224"/>
	<rect x="44.444" y="53.078" fill="#EC4348" width="4.387" height="34.91"/>
	<rect x="86.509" y="53.078" fill="#EC4348" width="4.387" height="34.91"/>
	<rect x="44.444" y="96.444" fill="#EC4348" width="4.387" height="15.66"/>
	<rect x="86.509" y="96.444" fill="#EC4348" width="4.387" height="15.66"/>
	<g>
		<g>
			<path fill="#FFFFFF" d="M39.522,91.762c0,2.084,1.69,3.774,3.774,3.774h6.369c2.084,0,3.774-1.69,3.774-3.774v-3.774H39.522
				V91.762z"/>
			<path fill="#C9CED1" d="M49.665,77.845h-6.369c-2.084,0-3.774,1.69-3.774,3.774v6.369h13.917V81.62
				C53.439,79.535,51.749,77.845,49.665,77.845z"/>
		</g>
		<path fill="#CD2C31" d="M48.466,90.371c0,0.877-0.711,1.589-1.589,1.589h-0.794c-0.877,0-1.589-0.711-1.589-1.589v-4.766
			c0-0.877,0.711-1.589,1.589-1.589h0.794c0.877,0,1.589,0.711,1.589,1.589V90.371z"/>
	</g>
	<g>
		<g>
			<path fill="#FFFFFF" d="M81.745,91.762c0,2.084,1.69,3.774,3.774,3.774h6.369c2.084,0,3.774-1.69,3.774-3.774v-3.774H81.745
				V91.762z"/>
			<path fill="#C9CED1" d="M91.887,77.845h-6.369c-2.084,0-3.774,1.69-3.774,3.774v6.369h13.917V81.62
				C95.661,79.535,93.972,77.845,91.887,77.845z"/>
		</g>
		<path fill="#CD2C31" d="M90.689,90.371c0,0.877-0.711,1.589-1.589,1.589h-0.794c-0.877,0-1.589-0.711-1.589-1.589v-4.766
			c0-0.877,0.711-1.589,1.589-1.589H89.1c0.877,0,1.589,0.711,1.589,1.589V90.371z"/>
	</g>
	<g>
		<path fill="#CD2C31" d="M49.665,95.536h-6.369c-2.084,0-3.774-1.69-3.774-3.774v1.853c0,2.084,1.69,3.774,3.774,3.774h6.369
			c2.085,0,3.774-1.69,3.774-3.774v-1.853C53.439,93.846,51.75,95.536,49.665,95.536z"/>
	</g>
	<g>
		<path fill="#CD2C31" d="M91.887,95.536h-6.369c-2.084,0-3.774-1.69-3.774-3.774v1.853c0,2.084,1.69,3.774,3.774,3.774h6.369
			c2.084,0,3.774-1.69,3.774-3.774v-1.853C95.661,93.846,93.972,95.536,91.887,95.536z"/>
	</g>
</g>
</svg>
