<?xml version="1.0" encoding="utf-8"?>
<!-- Generator: Adobe Illustrator 17.0.0, SVG Export Plug-In . SVG Version: 6.00 Build 0)  -->
<!DOCTYPE svg PUBLIC "-//W3C//DTD SVG 1.1//EN" "http://www.w3.org/Graphics/SVG/1.1/DTD/svg11.dtd">
<svg version="1.1" id="Layer_1" xmlns="http://www.w3.org/2000/svg" xmlns:xlink="http://www.w3.org/1999/xlink" x="0px" y="0px"
	 width="135.419px" height="156.363px" viewBox="0 0 135.419 156.363" enable-background="new 0 0 135.419 156.363"
	 xml:space="preserve">
<g>
	<polygon fill="#FCA2A4" points="0.005,117.277 0,39.095 67.705,0 135.414,39.086 135.419,117.268 67.715,156.363 	"/>
	<rect x="56.351" y="103.048" fill="#EC4348" width="23.753" height="16.122"/>
	<g>
		<path fill="#F4CC0C" d="M68.227,35.113c-14.561,0-29.123,9.107-29.123,28.552c0,19.445,10.517,19.432,14.561,28.798
			c2.364,5.475,2.685,10.584,2.685,10.584h11.876h11.876c0,0,0.321-5.109,2.685-10.584c4.045-9.366,14.561-9.353,14.561-28.798
			C97.349,44.22,82.788,35.113,68.227,35.113z"/>
		<polygon fill="#FD7174" points="80.103,107.124 56.351,109.524 56.351,106.586 80.103,104.186 		"/>
		<polygon fill="#FD7174" points="80.103,114.231 56.351,116.631 56.351,113.693 80.103,111.293 		"/>
		<rect x="59.542" y="119.17" fill="#FD7174" width="17.369" height="2.989"/>
	</g>
	<path fill="#FC9D0E" d="M75.879,65.272c-3.932,0-7.13,3.198-7.13,7.13v4.129h-2.304h-2.304v-4.129c0-3.932-3.198-7.13-7.13-7.13
		c-3.931,0-7.129,3.198-7.129,7.13c0,3.931,3.198,7.129,7.129,7.129h4.13v23.494h3V79.531h2.304h2.304v23.494h3V79.531h4.13
		c3.932,0,7.13-3.198,7.13-7.129C83.009,68.47,79.811,65.272,75.879,65.272z M61.142,76.531h-4.13c-2.277,0-4.129-1.853-4.129-4.129
		c0-2.277,1.853-4.13,4.129-4.13c2.277,0,4.13,1.853,4.13,4.13V76.531z M75.879,76.531h-4.13v-4.129c0-2.277,1.853-4.13,4.13-4.13
		s4.13,1.853,4.13,4.13C80.009,74.678,78.156,76.531,75.879,76.531z"/>
	<path fill="#FFFFFF" d="M77.66,63.273c-3.932,0-7.13,3.198-7.13,7.13v4.129h-2.304h-2.304v-4.129c0-3.932-3.198-7.13-7.13-7.13
		c-3.931,0-7.129,3.198-7.129,7.13c0,3.931,3.198,7.129,7.129,7.129h4.13v25.516h3V77.532h2.304h2.304v25.516h3V77.532h4.13
		c3.932,0,7.13-3.198,7.13-7.129C84.79,66.471,81.592,63.273,77.66,63.273z M62.923,74.532h-4.13c-2.277,0-4.129-1.853-4.129-4.129
		c0-2.277,1.853-4.13,4.129-4.13c2.277,0,4.13,1.853,4.13,4.13V74.532z M77.66,74.532h-4.13v-4.129c0-2.277,1.853-4.13,4.13-4.13
		c2.277,0,4.13,1.853,4.13,4.13C81.79,72.679,79.938,74.532,77.66,74.532z"/>
	<path fill="#FFFFFF" d="M90.672,61.649c0.124-0.81,0.208-1.633,0.208-2.478c0-8.804-7.005-15.954-15.743-16.224
		c2.034,0.838,4.03,1.957,5.913,3.378C86.491,50.429,89.838,56.096,90.672,61.649z"/>
</g>
</svg>
