<?xml version="1.0" encoding="utf-8"?>
<!-- Generator: Adobe Illustrator 17.0.0, SVG Export Plug-In . SVG Version: 6.00 Build 0)  -->
<!DOCTYPE svg PUBLIC "-//W3C//DTD SVG 1.1//EN" "http://www.w3.org/Graphics/SVG/1.1/DTD/svg11.dtd">
<svg version="1.1" id="Layer_1" xmlns="http://www.w3.org/2000/svg" xmlns:xlink="http://www.w3.org/1999/xlink" x="0px" y="0px"
	 width="135.419px" height="156.363px" viewBox="0 0 135.419 156.363" enable-background="new 0 0 135.419 156.363"
	 xml:space="preserve">
<g>
	<polygon fill="#FCA2A4" points="0.005,117.277 0,39.095 67.705,0 135.414,39.086 135.419,117.268 67.715,156.363 	"/>
	<g>
		<g>
			<path fill="#FFFFFF" d="M81.98,32.697H35.452c-1.169,0-2.117,0.948-2.117,2.117v84.677c0,1.169,0.948,2.117,2.117,2.117h64.514
				c1.169,0,2.117-0.948,2.117-2.117V52.801L81.98,32.697z"/>
			<path fill="#3FA9E2" d="M81.98,50.684c0,1.169,0.948,2.117,2.117,2.117h17.987L81.98,32.697V50.684z"/>
			<g>
				<path fill="#C9CED1" d="M84.096,52.9c-1.169,0-2.117-0.948-2.117-2.117v1.919c0,1.169,0.948,2.117,2.117,2.117h17.987V52.9
					H84.096z"/>
			</g>
		</g>
		<rect x="43.666" y="50.182" fill="#C9CED1" width="10.964" height="4.702"/>
		<rect x="43.666" y="72.32" fill="#C9CED1" width="48.596" height="4.702"/>
		<rect x="43.666" y="63.486" fill="#C9CED1" width="48.596" height="4.702"/>
		<rect x="43.666" y="81.254" fill="#C9CED1" width="48.596" height="4.702"/>
		<rect x="43.666" y="90.188" fill="#C9CED1" width="48.596" height="4.702"/>
		<rect x="71.299" y="100.476" fill="#C9CED1" width="20.963" height="4.702"/>
	</g>
	<circle fill="#F4CC0C" cx="46.478" cy="109.957" r="8.714"/>
	<g>
		<path fill="#FD5459" d="M41.312,118.962v8.645l5.167-4l5.167,4v-8.645c-1.447,1.069-3.23,1.708-5.167,1.708
			C44.542,120.671,42.759,120.031,41.312,118.962z"/>
		<path fill="#CD2C31" d="M46.478,118.693c-1.935,0-3.721-0.633-5.167-1.701v1.97c1.447,1.069,3.23,1.708,5.167,1.708
			c1.937,0,3.72-0.64,5.167-1.708v-1.97C50.2,118.06,48.414,118.693,46.478,118.693z"/>
	</g>
</g>
</svg>
