<?xml version="1.0" encoding="utf-8"?>
<!-- Generator: Adobe Illustrator 17.0.0, SVG Export Plug-In . SVG Version: 6.00 Build 0)  -->
<!DOCTYPE svg PUBLIC "-//W3C//DTD SVG 1.1//EN" "http://www.w3.org/Graphics/SVG/1.1/DTD/svg11.dtd">
<svg version="1.1" id="Layer_1" xmlns="http://www.w3.org/2000/svg" xmlns:xlink="http://www.w3.org/1999/xlink" x="0px" y="0px"
	 width="57px" height="57px" viewBox="0 0 57 57" enable-background="new 0 0 57 57" xml:space="preserve">
<polygon fill="#FD5459" points="-650.277,181.358 -773.001,110.513 -773.011,-31.192 -650.295,-102.053 -527.57,-31.208 
	-527.561,110.497 "/>
<g>
	<path fill="#FCA2A4" d="M-343.424-17.211l21.325-21.325c0.586-0.586,0.586-1.535,0-2.121s-1.535-0.586-2.121,0l-21.322,21.322
		C-344.822-18.642-344.116-17.934-343.424-17.211z"/>
	<path fill="#FCA2A4" d="M-449.54,84.662l-21.322,21.322c-0.586,0.586-0.586,1.535,0,2.121c0.293,0.293,0.677,0.439,1.061,0.439
		s0.768-0.146,1.061-0.439l21.326-21.326C-448.138,86.088-448.846,85.382-449.54,84.662z"/>
	<path fill="#FCA2A4" d="M-447.491-19.408l-21.25-21.25c-0.586-0.586-1.535-0.586-2.121,0s-0.586,1.535,0,2.121l21.25,21.25
		C-448.919-18.008-448.212-18.715-447.491-19.408z"/>
	<path fill="#FCA2A4" d="M-345.618,86.707l21.398,21.398c0.293,0.293,0.677,0.439,1.061,0.439s0.768-0.146,1.061-0.439
		c0.586-0.586,0.586-1.535,0-2.121l-21.398-21.398C-344.189,85.308-344.896,86.015-345.618,86.707z"/>
	<path fill="#FCA2A4" d="M-470.089,32.279h-30.082c-0.828,0-1.5,0.672-1.5,1.5s0.672,1.5,1.5,1.5h30.086
		c-0.011-1-0.04-1.046-0.04-1.573C-470.125,33.227-470.098,32.279-470.089,32.279z"/>
	<path fill="#FCA2A4" d="M-292.79,32.279h-30.23c0.009,0,0.036,0.948,0.036,1.427c0,0.528-0.029,0.573-0.04,1.573h30.234
		c0.828,0,1.5-0.672,1.5-1.5S-291.961,32.279-292.79,32.279z"/>
	<path fill="#FCA2A4" d="M-397.604,107.184v30.23c0,0.828,0.672,1.5,1.5,1.5s1.5-0.672,1.5-1.5v-30.234
		c-1,0.011-1.046,0.04-1.573,0.04C-396.656,107.22-397.604,107.193-397.604,107.184z"/>
	<path fill="#FCA2A4" d="M-394.604-39.881v-30.086c0-0.828-0.672-1.5-1.5-1.5s-1.5,0.672-1.5,1.5v30.082
		c0-0.009,0.948-0.036,1.427-0.036C-395.65-39.921-395.604-39.892-394.604-39.881z"/>
	<path fill="#FCA2A4" d="M-493.084,71.43c-0.768,0.312-1.136,1.188-0.824,1.955c0.237,0.582,0.798,0.935,1.391,0.935
		c0.188,0,0.38-0.035,0.564-0.11l27.871-11.346c-0.397-0.916-0.769-1.845-1.129-2.78L-493.084,71.43z"/>
	<path fill="#FCA2A4" d="M-299.877-3.983c0.768-0.312,1.136-1.188,0.824-1.955c-0.312-0.767-1.188-1.137-1.955-0.824l-27.938,11.373
		c0.394,0.917,0.763,1.848,1.121,2.783L-299.877-3.983z"/>
	<path fill="#FCA2A4" d="M-434.187-62.88c-0.312-0.767-1.188-1.139-1.955-0.824c-0.768,0.312-1.136,1.188-0.824,1.955l11.323,27.814
		c0.917-0.395,1.847-0.765,2.782-1.123L-434.187-62.88z"/>
	<path fill="#FCA2A4" d="M-358.774,130.327c0.237,0.582,0.798,0.935,1.391,0.935c0.188,0,0.38-0.035,0.564-0.11
		c0.768-0.312,1.136-1.188,0.824-1.955l-11.396-27.995c-0.916,0.396-1.846,0.767-2.781,1.127L-358.774,130.327z"/>
	<path fill="#FCA2A4" d="M-491.453-7.922c-0.761-0.325-1.643,0.036-1.964,0.8c-0.322,0.763,0.036,1.643,0.8,1.964l27.684,11.665
		c0.37-0.931,0.757-1.852,1.163-2.764L-491.453-7.922z"/>
	<path fill="#FCA2A4" d="M-301.508,75.37c0.189,0.081,0.387,0.118,0.581,0.118c0.586,0,1.142-0.345,1.383-0.918
		c0.322-0.763-0.036-1.643-0.8-1.964l-27.861-11.74c-0.371,0.93-0.759,1.851-1.167,2.763L-301.508,75.37z"/>
	<path fill="#FCA2A4" d="M-354.834-61.249c0.322-0.763-0.036-1.643-0.8-1.964c-0.761-0.324-1.643,0.036-1.964,0.8l-11.686,27.734
		c0.93,0.372,1.85,0.761,2.761,1.169L-354.834-61.249z"/>
	<path fill="#FCA2A4" d="M-438.126,128.696c-0.322,0.763,0.036,1.643,0.8,1.964c0.189,0.081,0.387,0.118,0.581,0.118
		c0.586,0,1.142-0.345,1.383-0.918l11.719-27.811c-0.931-0.369-1.853-0.755-2.765-1.161L-438.126,128.696z"/>
	<path fill="#FCA2A4" d="M-322.742-13.392c0.69-0.458,0.879-1.389,0.421-2.079c-0.459-0.692-1.392-0.879-2.079-0.421l-11.637,7.72
		c0.569,0.822,1.117,1.658,1.653,2.503L-322.742-13.392z"/>
	<path fill="#FCA2A4" d="M-470.22,80.839c-0.69,0.458-0.879,1.389-0.421,2.079c0.289,0.436,0.766,0.671,1.251,0.671
		c0.285,0,0.573-0.081,0.828-0.25l11.609-7.701c-0.571-0.82-1.123-1.654-1.661-2.498L-470.22,80.839z"/>
	<path fill="#FCA2A4" d="M-349.365,107.462c0.289,0.436,0.766,0.671,1.251,0.671c0.285,0,0.573-0.081,0.828-0.25
		c0.69-0.458,0.879-1.389,0.421-2.079l-7.767-11.709c-0.821,0.57-1.656,1.121-2.5,1.658L-349.365,107.462z"/>
	<path fill="#FCA2A4" d="M-443.596-40.016c-0.459-0.691-1.391-0.878-2.079-0.421c-0.69,0.458-0.879,1.389-0.421,2.079l7.654,11.538
		c0.821-0.57,1.656-1.12,2.501-1.656L-443.596-40.016z"/>
	<path fill="#FCA2A4" d="M-311.024,52.548c0.101,0.021,0.201,0.03,0.3,0.03c0.698,0,1.324-0.491,1.468-1.202
		c0.165-0.812-0.36-1.604-1.172-1.768l-13.755-2.784c-0.179,0.987-0.375,1.967-0.592,2.94L-311.024,52.548z"/>
	<path fill="#FCA2A4" d="M-481.938,14.898c-0.812-0.164-1.604,0.36-1.768,1.172c-0.165,0.812,0.36,1.604,1.172,1.768l13.588,2.75
		c0.177-0.987,0.371-1.968,0.587-2.941L-481.938,14.898z"/>
	<path fill="#FCA2A4" d="M-415.306,119.18c-0.165,0.812,0.36,1.604,1.172,1.768c0.101,0.021,0.201,0.03,0.3,0.03
		c0.698,0,1.324-0.491,1.468-1.202l2.779-13.73c-0.987-0.177-1.968-0.37-2.942-0.585L-415.306,119.18z"/>
	<path fill="#FCA2A4" d="M-377.656-51.734c0.165-0.812-0.36-1.604-1.172-1.768c-0.81-0.162-1.604,0.36-1.768,1.172l-2.755,13.613
		c0.987,0.179,1.967,0.376,2.94,0.594L-377.656-51.734z"/>
	<path fill="#FCA2A4" d="M-310.233,18.938c0.814-0.153,1.35-0.938,1.195-1.752c-0.153-0.815-0.946-1.347-1.752-1.195l-13.742,2.599
		c0.203,0.975,0.375,1.961,0.539,2.951L-310.233,18.938z"/>
	<path fill="#FCA2A4" d="M-482.729,48.508c-0.814,0.153-1.35,0.938-1.195,1.752c0.136,0.721,0.766,1.222,1.472,1.222
		c0.093,0,0.187-0.009,0.28-0.026l13.634-2.579c-0.205-0.975-0.381-1.96-0.547-2.949L-482.729,48.508z"/>
	<path fill="#FCA2A4" d="M-411.266-52.525c-0.153-0.815-0.947-1.349-1.752-1.195c-0.814,0.153-1.35,0.938-1.195,1.752l2.572,13.602
		c0.975-0.203,1.961-0.376,2.95-0.54L-411.266-52.525z"/>
	<path fill="#FCA2A4" d="M-381.696,119.971c0.136,0.721,0.766,1.222,1.472,1.222c0.093,0,0.187-0.009,0.28-0.026
		c0.814-0.153,1.35-0.938,1.195-1.752l-2.605-13.775c-0.975,0.205-1.96,0.38-2.949,0.546L-381.696,119.971z"/>
	<path fill="#FCA2A4" d="M-325.039,84.255c0.258,0.177,0.553,0.261,0.844,0.261c0.479,0,0.95-0.229,1.24-0.655
		c0.467-0.685,0.29-1.617-0.395-2.084l-11.608-7.915c-0.548,0.838-1.115,1.661-1.695,2.475L-325.039,84.255z"/>
	<path fill="#FCA2A4" d="M-467.922-16.809c-0.682-0.468-1.617-0.29-2.084,0.395c-0.467,0.685-0.29,1.617,0.395,2.084l11.44,7.801
		c0.547-0.838,1.113-1.662,1.694-2.476L-467.922-16.809z"/>
	<path fill="#FCA2A4" d="M-345.949-37.718c0.467-0.684,0.29-1.617-0.395-2.084c-0.682-0.468-1.618-0.29-2.084,0.395l-7.845,11.505
		c0.837,0.549,1.66,1.117,2.472,1.698L-345.949-37.718z"/>
	<path fill="#FCA2A4" d="M-447.013,105.165c-0.467,0.685-0.29,1.617,0.395,2.084c0.258,0.177,0.553,0.261,0.844,0.261
		c0.479,0,0.95-0.229,1.24-0.655l7.871-11.542c-0.839-0.547-1.664-1.111-2.478-1.69L-447.013,105.165z"/>
	<path fill="#FD5459" d="M-470.089,32.279c-0.009,0-0.036,0.948-0.036,1.427c0,0.528,0.029,0.573,0.04,1.573"/>
</g>
<g>
	<polygon fill="#FD5459" points="-2317.925,-409.749 -2317.93,-487.93 -2250.226,-527.026 -2182.516,-487.939 -2182.511,-409.758 
		-2250.216,-370.662 	"/>
	<g>
		<g>
			<path fill="#0063AD" d="M-2204.491-465.829h-27.688v31.75c0,2.209-1.791,4-4,4h-29.022v8.25c0,2.209,1.791,4,4,4h31.624
				l14.5,10.25l-0.25-10.25h10.835c2.209,0,4-1.791,4-4v-40C-2200.491-464.039-2202.281-465.829-2204.491-465.829z"/>
			<path fill="#004F7F" d="M-2232.179-434.079v-31.75h-5.165v26.269c0,2.209-1.791,4-4,4h-23.857v6.481h29.022
				C-2234.135-429.079-2232.179-431.329-2232.179-434.079z"/>
		</g>
		<path fill="#FFFFFF" d="M-2222.012-452.592h-5.237c-0.619,0-1.311,0.814-1.311,1.904v3.782h6.548v5.39h-6.548v16.187h-6.181
			v-16.187h-5.604v-5.39h5.604v-3.173c0-4.549,3.158-8.25,7.492-8.25h5.237V-452.592z"/>
		<g>
			<path fill="#C9CED1" d="M-2232.179-433.635v-22.728c-1.594,1.514-2.562,3.766-2.562,6.28v3.173h-2.602v5.39h2.602l-0.02,12.011
				C-2233.265-430.088-2232.179-431.935-2232.179-433.635z"/>
		</g>
		<path fill="#3FA9E2" d="M-2235.241-437.579c0,2.209-1.791,4-4,4h-31.624l-14.5,10.25l0.25-10.25h-10.836c-2.209,0-4-1.791-4-4v-40
			c0-2.209,1.791-4,4-4h56.71c2.209,0,4,1.791,4,4V-437.579z"/>
		<path fill="#FFFFFF" d="M-2250.021-466.409c-1.118,0.496-2.318,0.83-3.578,0.981c1.286-0.771,2.274-1.991,2.739-3.446
			c-1.204,0.714-2.537,1.232-3.955,1.511c-1.136-1.211-2.755-1.967-4.546-1.967c-3.44,0-6.229,2.788-6.229,6.228
			c0,0.488,0.055,0.964,0.161,1.419c-5.176-0.259-9.767-2.739-12.838-6.508c-0.536,0.92-0.844,1.99-0.844,3.131
			c0,2.161,1.099,4.067,2.771,5.184c-1.02-0.032-1.981-0.312-2.821-0.779c-0.001,0.026-0.001,0.051-0.001,0.078
			c0,3.018,2.147,5.535,4.996,6.107c-0.522,0.142-1.073,0.219-1.641,0.219c-0.401,0-0.791-0.039-1.172-0.112
			c0.793,2.474,3.094,4.275,5.819,4.325c-2.132,1.671-4.817,2.667-7.735,2.667c-0.503,0-0.998-0.03-1.486-0.088
			c2.756,1.768,6.029,2.799,9.548,2.799c11.456,0,17.721-9.491,17.721-17.722c0-0.269-0.006-0.538-0.018-0.806
			C-2251.912-464.063-2250.856-465.16-2250.021-466.409z"/>
	</g>
</g>
<g>
	<polyline fill="#FD5459" points="-1814.204,-358.34 -1814.199,-280.159 -1881.904,-241.064 -1949.614,-280.15 -1949.619,-358.332 
		-1881.914,-397.427 	"/>
	<g>
		<path fill="#FCA2A4" d="M-1883.194-282.302l-2.543,3.497c0.259,0.553,0.63,1.064,1.114,1.497l1.87,1.822
			c1.922,1.719,4.873,1.554,6.592-0.367c0.094-0.105,0.164-0.223,0.245-0.335C-1879.117-278.714-1883.236-281.596-1883.194-282.302z
			"/>
		<path fill="#FCA2A4" d="M-1868.314-298.157c0.087-0.494,0.46-0.923,0.783-1.216l-12.371-10.792l1.427-9.157l0.764-16.739
			c0,0-10.656-1.322-18.006-0.578c-5.122,0.518-11.62,1.663-15.096,2.31l0.677,0.471c0,0-3.524,23.787-11.894,33.258l-0.617,0.835
			l34.629,11.467l4.072,3.552c-0.376,0.231-0.734,0.499-1.044,0.845c-1.076,1.203-1.413,2.81-1.044,4.266l2.629-3.615
			c1.556-2.055,1.151-4.983-0.905-6.539c-1.58-1.196-3.669-1.223-5.26-0.244c0.814-1.922,0.273-4.219-1.468-5.536
			c-1.306-0.989-2.961-1.18-4.396-0.665c1.625-1.588,4.199-1.807,6.065-0.394c1.74,1.317,2.282,3.614,1.468,5.536
			c1.592-0.98,3.681-0.952,5.26,0.244c2.056,1.556,2.461,4.484,0.905,6.539l-0.981,1.349c0.943,0.739,7.054,5.525,7.308,5.675
			c0.015,0.036,0.037,0.079,0.053,0.116c0.008-0.02,0.021-0.038,0.029-0.058l0.013,0.011c2.2,1.919,5.539,1.691,7.458-0.508
			l0.29-0.332c1.598-1.832,1.687-4.443,0.408-6.378l3.73,3.253c2.2,1.919,5.539,1.692,7.458-0.508l0.29-0.332
			c0.89-1.021,1.298-2.286,1.282-3.541C-1857.662-288.293-1868.449-297.389-1868.314-298.157z"/>
		<path fill="#3F3F3F" d="M-1882.851-283.065c-0.164,0.22-0.301,0.469-0.349,0.74c-0.001,0.006,0.005,0.016,0.005,0.022l0.478-0.657
			C-1882.796-283.021-1882.851-283.065-1882.851-283.065z"/>
		<path fill="#FD7174" d="M-1882.717-282.96l-0.478,0.657c-0.041,0.707,4.078,3.588,7.278,6.114c0.226-0.31,0.418-0.637,0.561-0.98
			c-0.017-0.038-0.038-0.08-0.053-0.116C-1875.662-277.435-1881.773-282.22-1882.717-282.96z"/>
		<path fill="#FFFFFF" d="M-1863.721-324.178l-14.776,1.556l29.558,27.859l6.345-6.091c-5.9-9.506-11.939-26.091-12.996-29.054
			L-1863.721-324.178z"/>
		<g>
			<path fill="#FD7174" d="M-1910.137-333.858l0.025-0.6l-0.702,0.13c-1.513,0.282-2.461,0.471-2.461,0.471
				s-3.524,23.787-11.894,33.258l0,0l2.522,0.835l0.617-0.835C-1913.661-310.071-1910.137-333.858-1910.137-333.858z"/>
			<path fill="#FFFFFF" d="M-1923.547-340.996l-2.724-1.893c0,0-5.286,25.769-14.536,40.967l13.726,3.91l0.545-0.739l1.366-1.85
				c8.37-9.471,11.894-33.258,11.894-33.258L-1923.547-340.996z"/>
		</g>
		<path fill="#3787AF" d="M-1853.997-331.045l-1.762,0.661c0,0,0.062,0.177,0.169,0.475l1.597-1.126
			C-1853.994-331.035-1853.997-331.045-1853.997-331.045z"/>
		<polygon fill="#C9CED1" points="-1847.814,-295.844 -1846.559,-297.049 -1876.918,-321.32 		"/>
		<path fill="#FD7174" d="M-1875.007-305.092c-0.164,0.22-0.301,0.469-0.349,0.74c-0.135,0.768,17.694,16.059,20.957,18.79
			c-0.009-0.683-0.156-1.36-0.421-1.996c-0.274-0.163-0.542-0.344-0.791-0.561L-1875.007-305.092z"/>
		<path fill="#FD7174" d="M-1881.622-296.97c-0.164,0.22-0.301,0.469-0.349,0.74c-0.135,0.768,12.37,11.201,15.634,13.932
			c-0.009-0.683-0.523-1.509-0.788-2.145C-1867.399-284.605-1881.622-296.97-1881.622-296.97z"/>
		<path fill="#FCA2A4" d="M-1848.37-296.417l-28.548-24.903c-2.2-1.919-5.539-1.691-7.458,0.509l-0.289,0.332
			c-1.919,2.2-1.691,5.539,0.508,7.458l16.192,14.125l12.356,10.779c0.249,0.217,0.516,0.398,0.791,0.561
			c2.151,1.273,4.966,0.882,6.668-1.069l0.29-0.332C-1845.943-291.158-1846.17-294.498-1848.37-296.417z"/>
		<g>
			<g>
				<path fill="#FD7174" d="M-1885.667-322.413c-0.91,6.372-10.095,10.283-14.203,10.086c0.188,0.306,1.777,1.115,2.403,1.435
					c3.403,1.735,13.225-2.893,14.277-10.256c0.235-1.648,2.477-1.994,5.282-0.85
					C-1881.765-324.343-1885.365-324.526-1885.667-322.413z"/>
			</g>
			<path fill="#FFFFFF" d="M-1853.979-331.045h-9.742c0,0-4.199-5.711-14.277-5.711c-10.078,0-13.438,4.031-14.949,5.711
				c-1.512,1.68-3.191,7.559-4.367,10.078s-5.375,6.906-2.184,8.912c3.191,2.006,13.225-2.892,14.277-10.256
				c0.316-2.212,4.246-1.65,8.303,0.99c4.273,2.781,9.612,4.875,9.612,4.875L-1853.979-331.045z"/>
		</g>
		<g>
			<path fill="none" d="M-1897.373-294.893c0.083-0.098,0.17-0.19,0.26-0.28C-1897.205-295.087-1897.287-294.988-1897.373-294.893z"
				/>
			<path fill="#FD7174" d="M-1882.64-290.848c-1.58-1.196-3.669-1.223-5.26-0.244c0.814-1.922,0.273-4.219-1.468-5.536
				c-1.841-1.393-4.366-1.193-5.994,0.336c1.425-0.496,3.061-0.295,4.354,0.684c1.74,1.318,2.282,3.614,1.468,5.537
				c1.591-0.98,3.681-0.952,5.26,0.244c2.056,1.556,2.461,4.484,0.905,6.539l-2.658,3.656c0.072,0.283,0.171,0.56,0.297,0.828
				l4.002-5.503C-1880.179-286.365-1880.584-289.292-1882.64-290.848z"/>
			<path fill="#FD7174" d="M-1900.051-299.182c2.056,1.556,2.461,4.484,0.905,6.539l1.599-2.062c0.053-0.07,0.119-0.122,0.174-0.188
				c0.085-0.095,0.168-0.194,0.26-0.28c0.142-0.143,0.29-0.274,0.446-0.395c0.338-1.699-0.27-3.518-1.744-4.634
				c-1.561-1.181-3.601-1.195-5.179-0.243l-0.338,0.468C-1902.626-300.289-1901.204-300.056-1900.051-299.182z"/>
			<path fill="#FFFFFF" d="M-1906.414-298.459c0.249-1.638-0.362-3.356-1.776-4.426c-1.306-0.988-2.961-1.179-4.396-0.665
				c0.023-0.022,0.05-0.037,0.072-0.059c-0.841,0.292-1.608,0.826-2.186,1.589l-1.664,2.013c-1.556,2.056-1.151,4.983,0.905,6.54
				c1.515,1.147,3.501,1.222,5.065,0.363l3.981-5.355C-1906.414-298.46-1906.414-298.46-1906.414-298.459z"/>
			<path fill="#FFFFFF" d="M-1883.405-283.25c1.556-2.055,1.151-4.983-0.905-6.539c-1.58-1.196-3.669-1.223-5.26-0.244
				c0.814-1.922,0.273-4.219-1.468-5.536c-1.306-0.989-2.961-1.18-4.396-0.665c0.022-0.022,0.049-0.037,0.072-0.058
				c-0.468,0.163-0.903,0.415-1.305,0.726c-0.001,0.007-0.001,0.013-0.003,0.02c-0.153,0.117-0.301,0.242-0.443,0.375
				c-0.089,0.089-0.177,0.182-0.26,0.28c-0.068,0.076-0.141,0.145-0.204,0.227l-2.528,3.339l0.929-1.277
				c1.556-2.056,1.151-4.983-0.905-6.539c-1.154-0.874-2.575-1.109-3.877-0.793l-7.815,10.817c0.125,1.247,0.736,2.441,1.814,3.258
				c1.79,1.355,4.24,1.22,5.872-0.194c-1.516,2.053-1.107,4.947,0.933,6.492c2.056,1.556,4.983,1.151,6.539-0.905l0.745-0.984
				c-0.483,1.784,0.118,3.76,1.682,4.944c2.056,1.556,4.983,1.151,6.539-0.905l1.615-2.221l0-0.001L-1883.405-283.25z"/>
			<path fill="#FD5459" d="M-1884.28-289.829c-1.58-1.196-3.669-1.223-5.26-0.244c0.814-1.922,0.273-4.219-1.468-5.537
				c-1.293-0.978-2.93-1.179-4.354-0.684c-0.023,0.021-0.049,0.036-0.072,0.058c1.435-0.515,3.09-0.324,4.396,0.665
				c1.74,1.317,2.282,3.614,1.468,5.536c1.591-0.979,3.681-0.952,5.26,0.244c2.056,1.556,2.46,4.484,0.905,6.539l-2.629,3.615
				l0,0.001l2.658-3.656C-1881.819-285.346-1882.224-288.273-1884.28-289.829z"/>
			<path fill="#FD5459" d="M-1899.146-292.643c1.556-2.056,1.151-4.983-0.905-6.539c-1.154-0.873-2.575-1.106-3.878-0.794
				l-0.029,0.041c1.302-0.316,2.723-0.081,3.877,0.793c2.056,1.556,2.46,4.484,0.905,6.539l-0.929,1.277l2.528-3.339
				c0.063-0.083,0.136-0.152,0.204-0.227c-0.056,0.066-0.122,0.118-0.174,0.188L-1899.146-292.643z"/>
			<path fill="#FD5459" d="M-1897.113-295.173c0.142-0.133,0.29-0.258,0.443-0.375c0.001-0.007,0.001-0.013,0.003-0.02
				C-1896.823-295.447-1896.971-295.315-1897.113-295.173z"/>
			<path fill="#FD7174" d="M-1904.818-300.39c-0.063-1.325-0.836-2.612-1.977-3.476c-1.84-1.393-4.473-1.118-6.101,0.409
				c1.424-0.495,3.169-0.369,4.462,0.61c1.414,1.07,2.218,2.788,1.969,4.426c0.466-0.539,1.037-0.932,1.653-1.205
				C-1904.784-299.881-1904.806-300.135-1904.818-300.39z"/>
			<path fill="#C9CED1" d="M-1904.466-299.784c0.021-0.02,0.046-0.034,0.067-0.054c-0.112,0.04-0.222,0.086-0.332,0.135
				c-0.001,0.009,0.001,0.018,0,0.027c-0.627,0.273-1.209,0.669-1.682,1.216l-3.981,5.355c0.021-0.012,0.044-0.019,0.065-0.031
				l-0.535,0.736c-0.74,0.978-1.023,2.151-0.909,3.282l7.815-10.817C-1904.13-299.894-1904.3-299.845-1904.466-299.784z"/>
			<path fill="#C9CED1" d="M-1888.584-290.534c0.021-0.02,0.045-0.035,0.067-0.055c-0.112,0.04-0.222,0.086-0.332,0.135
				c-0.001,0.009,0.001,0.018,0,0.027c-0.627,0.273-1.209,0.669-1.682,1.216l-3.981,5.355c0.021-0.012,0.044-0.019,0.065-0.031
				l-0.535,0.736c-0.74,0.978-1.023,2.151-0.909,3.282l7.815-10.817C-1888.247-290.644-1888.417-290.594-1888.584-290.534z"/>
			<path fill="#C9CED1" d="M-1895.505-296.227c0.021-0.02,0.046-0.035,0.067-0.055c-0.112,0.04-0.222,0.086-0.332,0.135
				c-0.001,0.009,0.001,0.018,0,0.027c-0.627,0.273-1.209,0.669-1.682,1.216l-6.138,8.233c0.021-0.012,2.202-2.897,2.223-2.909
				l-2.591,3.367c-0.74,0.978-1.135,2.189-1.011,3.529l9.972-13.695C-1895.168-296.337-1895.338-296.287-1895.505-296.227z"/>
		</g>
		<path fill="#FD7174" d="M-1853.979-331.029c0,0,10.625,30.385,18.114,35.495l12.885-7.445c0,0-14.59-30.363-15.581-33.887
			L-1853.979-331.029z"/>
		<path fill="#C9CED1" d="M-1853.994-331.034h-1.997l0.4,1.126c1.057,2.963,7.096,19.547,12.996,29.054l1.368-1.313
			C-1847.563-312.695-1853.932-330.857-1853.994-331.034z"/>
	</g>
</g>
<g>
	<polygon fill="none" stroke="#FFFFFF" stroke-width="3" stroke-linejoin="round" stroke-miterlimit="10" points="-2004.15,-439.55 
		-2004.155,-517.732 -1936.45,-556.827 -1868.741,-517.741 -1868.736,-439.559 -1936.44,-400.464 	"/>
	<g>
		
			<circle fill="none" stroke="#FFFFFF" stroke-width="3" stroke-linejoin="round" stroke-miterlimit="10" cx="-1935.681" cy="-495.738" r="24.999"/>
		
			<circle fill="none" stroke="#FFFFFF" stroke-width="3" stroke-linejoin="round" stroke-miterlimit="10" cx="-1956.065" cy="-461.553" r="24.999"/>
		
			<circle fill="none" stroke="#FFFFFF" stroke-width="3" stroke-linejoin="round" stroke-miterlimit="10" cx="-1916.825" cy="-462.653" r="24.999"/>
	</g>
</g>
<g>
	<polygon fill="none" stroke="#FFFFFF" stroke-width="3" stroke-linejoin="round" stroke-miterlimit="10" points="
		-2412.554,-288.176 -2412.559,-366.357 -2344.854,-405.452 -2277.145,-366.366 -2277.14,-288.184 -2344.844,-249.089 	"/>
	<g>
		<polygon fill="none" stroke="#FFFFFF" stroke-width="3" stroke-linejoin="round" stroke-miterlimit="10" points="
			-2388.85,-296.579 -2388.85,-316.928 -2367.884,-322.524 -2345.85,-337.245 -2322.183,-338.579 -2300.85,-357.912 
			-2300.85,-296.579 		"/>
		<circle fill="#FFFFFF" cx="-2366.85" cy="-323.245" r="4"/>
		<circle fill="#FFFFFF" cx="-2345.85" cy="-336.579" r="4"/>
		<circle fill="#FFFFFF" cx="-2322.183" cy="-338.579" r="4"/>
		<circle fill="#FFFFFF" cx="-2300.85" cy="-357.912" r="4"/>
		<circle fill="#FFFFFF" cx="-2388.85" cy="-316.928" r="4"/>
		
			<line fill="none" stroke="#FFFFFF" stroke-width="3" stroke-linejoin="round" stroke-miterlimit="10" x1="-2366.85" y1="-323.245" x2="-2366.85" y2="-296.579"/>
		
			<line fill="none" stroke="#FFFFFF" stroke-width="3" stroke-linejoin="round" stroke-miterlimit="10" x1="-2345.85" y1="-336.579" x2="-2345.85" y2="-296.579"/>
		
			<line fill="none" stroke="#FFFFFF" stroke-width="3" stroke-linejoin="round" stroke-miterlimit="10" x1="-2322.183" y1="-338.579" x2="-2322.183" y2="-296.579"/>
	</g>
</g>
<g>
	<polygon fill="#FCA2A4" points="-2474.813,-475.01 -2474.818,-553.192 -2407.113,-592.287 -2339.403,-553.2 -2339.398,-475.019 
		-2407.103,-435.924 	"/>
	<g>
		<g>
			<path fill="#FFFFFF" d="M-2392.838-559.59h-46.527c-1.169,0-2.117,0.948-2.117,2.117v84.677c0,1.169,0.948,2.117,2.117,2.117
				h64.514c1.169,0,2.116-0.948,2.116-2.117v-66.689L-2392.838-559.59z"/>
			<path fill="#3FA9E2" d="M-2392.838-541.602c0,1.169,0.948,2.117,2.116,2.117h17.987l-20.104-20.104V-541.602z"/>
			<g>
				<path fill="#C9CED1" d="M-2390.722-539.387c-1.169,0-2.117-0.948-2.117-2.116v1.919c0,1.169,0.948,2.117,2.117,2.117h17.987
					v-1.919H-2390.722z"/>
			</g>
		</g>
		<rect x="-2431.152" y="-542.104" fill="#C9CED1" width="10.964" height="4.702"/>
		<rect x="-2431.152" y="-519.967" fill="#C9CED1" width="48.596" height="4.702"/>
		<rect x="-2431.152" y="-528.8" fill="#C9CED1" width="48.596" height="4.702"/>
		<rect x="-2431.152" y="-511.033" fill="#C9CED1" width="48.596" height="4.702"/>
		<rect x="-2431.152" y="-502.099" fill="#C9CED1" width="48.596" height="4.702"/>
		<rect x="-2403.519" y="-491.811" fill="#C9CED1" width="20.963" height="4.702"/>
	</g>
	<circle fill="#F4CC0C" cx="-2428.339" cy="-482.33" r="8.714"/>
	<g>
		<path fill="#FD5459" d="M-2433.506-473.324v8.645l5.167-4l5.167,4v-8.645c-1.447,1.069-3.23,1.709-5.167,1.709
			C-2430.276-471.616-2432.059-472.256-2433.506-473.324z"/>
		<path fill="#CD2C31" d="M-2428.339-473.594c-1.935,0-3.721-0.633-5.167-1.701v1.97c1.447,1.069,3.23,1.709,5.167,1.709
			c1.937,0,3.72-0.64,5.167-1.709v-1.97C-2424.618-474.227-2426.404-473.594-2428.339-473.594z"/>
	</g>
</g>
<g>
	<polygon fill="none" stroke="#FFFFFF" stroke-width="3" stroke-linejoin="round" stroke-miterlimit="10" points="
		-2103.927,-322.817 -2103.932,-400.998 -2036.228,-440.094 -1968.518,-401.007 -1968.513,-322.826 -2036.218,-283.73 	"/>
	
		<circle fill="none" stroke="#FFFFFF" stroke-width="3" stroke-linejoin="round" stroke-miterlimit="10" cx="-2013.737" cy="-331.286" r="9.7"/>
	
		<circle fill="none" stroke="#FFFFFF" stroke-width="3" stroke-linejoin="round" stroke-miterlimit="10" cx="-2070.761" cy="-381.647" r="9.7"/>
	<g>
		<path fill="#FFFFFF" d="M-1993.389-359.478l-6.83-6.83l-6.79,6.79c-0.639,0.639-1.677,0.639-2.316,0
			c-0.639-0.639-0.639-1.677,0-2.316l6.79-6.79l-6.83-6.83c-0.599-0.599-0.599-1.558,0-2.157c0.599-0.599,1.557-0.599,2.157,0
			l6.83,6.83l6.829-6.829c0.639-0.639,1.677-0.639,2.317,0c0.639,0.639,0.639,1.677,0,2.317l-6.829,6.829l6.83,6.83
			c0.599,0.599,0.599,1.558,0,2.157C-1991.831-358.879-1992.79-358.879-1993.389-359.478z"/>
	</g>
	<g>
		<path fill="#FFFFFF" d="M-2057.898-331.497l-6.83-6.83l-6.79,6.79c-0.639,0.639-1.677,0.639-2.316,0
			c-0.639-0.639-0.639-1.677,0-2.316l6.79-6.79l-6.83-6.83c-0.599-0.599-0.599-1.558,0-2.157c0.599-0.599,1.558-0.599,2.157,0
			l6.83,6.83l6.829-6.829c0.639-0.639,1.677-0.639,2.317,0c0.639,0.639,0.639,1.677,0,2.317l-6.829,6.829l6.83,6.83
			c0.599,0.599,0.599,1.558,0,2.157C-2056.341-330.898-2057.299-330.898-2057.898-331.497z"/>
	</g>
	<g>
		<g>
			<path fill="none" stroke="#FFFFFF" stroke-width="3" stroke-linecap="round" stroke-linejoin="round" d="M-2029.422-341.409
				c0,0-27.76-20.523,6.533-59.938"/>
			<g>
				<polygon fill="#FFFFFF" points="-2019.72,-385.785 -2022.718,-385.616 -2023.534,-400.385 -2038.206,-398.492 
					-2038.588,-401.47 -2020.718,-403.772 				"/>
			</g>
		</g>
	</g>
</g>
<g>
	<circle fill="#FFFFFF" cx="28.5" cy="28.5" r="28.5"/>
	
		<text transform="matrix(0.9878 -0.156 0.156 0.9878 11.7124 39.3893)" fill="#3FA9E2" font-family="'HelveticaNeue-CondensedBold'" font-size="21.7814">new</text>
</g>
<g>
	<polygon fill="#FFFFFF" points="-2161.038,-467.362 -2161.042,-545.543 -2093.338,-584.638 -2025.628,-545.552 -2025.623,-467.371 
		-2093.328,-428.275 	"/>
	<path fill="#FD5459" d="M-2053.183-472.328c0,0.877-0.711,1.589-1.589,1.589h-77.917c-0.877,0-1.588-0.711-1.588-1.589v-31.733
		c0-0.877,0.711-1.589,1.588-1.589h77.917c0.877,0,1.589,0.711,1.589,1.589V-472.328z"/>
	<path fill="#FD7174" d="M-2050.403-498.239c0,0.877-0.711,1.589-1.589,1.589h-82.682c-0.877,0-1.589-0.711-1.589-1.589v-31.733
		c0-0.877,0.711-1.589,1.589-1.589h82.682c0.877,0,1.589,0.711,1.589,1.589V-498.239z"/>
	<g>
		<path fill="#CD2C31" d="M-2112.31-531.604v-1.628c0-3.268,2.649-5.918,5.918-5.918h26.119c3.268,0,5.918,2.649,5.918,5.918v1.628
			c0,0.015-0.002,0.029-0.002,0.044h4.291v-2.037c0-4.737-3.84-8.577-8.577-8.577h-29.378c-4.737,0-8.577,3.84-8.577,8.577v2.037
			h4.291C-2112.308-531.575-2112.31-531.589-2112.31-531.604z"/>
	</g>
	<g>
		<path fill="#CD2C31" d="M-2113.5-534.627h-2.123c-2,0-3.685,1.284-4.318,3.066h10.759
			C-2109.816-533.343-2111.501-534.627-2113.5-534.627z"/>
	</g>
	<g>
		<path fill="#CD2C31" d="M-2071.278-534.627h-2.123c-2,0-3.685,1.284-4.318,3.066h10.759
			C-2067.594-533.343-2069.279-534.627-2071.278-534.627z"/>
	</g>
	<rect x="-2134.277" y="-496.65" fill="#CD2C31" width="81.094" height="2.224"/>
	<rect x="-2116.599" y="-531.56" fill="#EC4348" width="4.387" height="34.91"/>
	<rect x="-2074.533" y="-531.56" fill="#EC4348" width="4.387" height="34.91"/>
	<rect x="-2116.599" y="-488.194" fill="#EC4348" width="4.387" height="15.66"/>
	<rect x="-2074.533" y="-488.194" fill="#EC4348" width="4.387" height="15.66"/>
	<g>
		<g>
			<path fill="#FFFFFF" d="M-2121.52-492.876c0,2.084,1.69,3.774,3.774,3.774h6.369c2.084,0,3.774-1.69,3.774-3.774v-3.774h-13.917
				V-492.876z"/>
			<path fill="#C9CED1" d="M-2111.378-506.793h-6.369c-2.084,0-3.774,1.69-3.774,3.774v6.369h13.917v-6.369
				C-2107.604-505.103-2109.293-506.793-2111.378-506.793z"/>
		</g>
		<path fill="#CD2C31" d="M-2112.576-494.267c0,0.877-0.711,1.589-1.589,1.589h-0.794c-0.877,0-1.589-0.711-1.589-1.589v-4.766
			c0-0.877,0.711-1.589,1.589-1.589h0.794c0.877,0,1.589,0.711,1.589,1.589V-494.267z"/>
	</g>
	<g>
		<g>
			<path fill="#FFFFFF" d="M-2079.298-492.876c0,2.084,1.69,3.774,3.774,3.774h6.369c2.084,0,3.774-1.69,3.774-3.774v-3.774h-13.917
				V-492.876z"/>
			<path fill="#C9CED1" d="M-2069.155-506.793h-6.369c-2.084,0-3.774,1.69-3.774,3.774v6.369h13.917v-6.369
				C-2065.381-505.103-2067.071-506.793-2069.155-506.793z"/>
		</g>
		<path fill="#CD2C31" d="M-2070.354-494.267c0,0.877-0.711,1.589-1.589,1.589h-0.794c-0.877,0-1.589-0.711-1.589-1.589v-4.766
			c0-0.877,0.711-1.589,1.589-1.589h0.794c0.877,0,1.589,0.711,1.589,1.589V-494.267z"/>
	</g>
	<g>
		<path fill="#CD2C31" d="M-2111.378-489.102h-6.369c-2.084,0-3.774-1.69-3.774-3.774v1.853c0,2.084,1.69,3.774,3.774,3.774h6.369
			c2.085,0,3.774-1.69,3.774-3.774v-1.853C-2107.604-490.792-2109.293-489.102-2111.378-489.102z"/>
	</g>
	<g>
		<path fill="#CD2C31" d="M-2069.155-489.102h-6.369c-2.084,0-3.774-1.69-3.774-3.774v1.853c0,2.084,1.69,3.774,3.774,3.774h6.369
			c2.084,0,3.774-1.69,3.774-3.774v-1.853C-2065.381-490.792-2067.071-489.102-2069.155-489.102z"/>
	</g>
</g>
<g>
	<polygon fill="#FCA2A4" points="-2258.241,-269.479 -2258.246,-347.661 -2190.541,-386.756 -2122.831,-347.67 -2122.826,-269.488 
		-2190.531,-230.393 	"/>
	<rect x="-2201.895" y="-283.708" fill="#EC4348" width="23.753" height="16.122"/>
	<g>
		<path fill="#F4CC0C" d="M-2190.019-351.643c-14.561,0-29.123,9.107-29.123,28.552c0,19.445,10.517,19.432,14.561,28.798
			c2.364,5.475,2.685,10.584,2.685,10.584h11.876h11.876c0,0,0.321-5.109,2.685-10.584c4.044-9.366,14.561-9.353,14.561-28.798
			C-2160.896-342.536-2175.458-351.643-2190.019-351.643z"/>
		<polygon fill="#FD7174" points="-2178.143,-279.632 -2201.895,-277.232 -2201.895,-280.17 -2178.143,-282.57 		"/>
		<polygon fill="#FD7174" points="-2178.143,-272.524 -2201.895,-270.124 -2201.895,-273.063 -2178.143,-275.463 		"/>
		<rect x="-2198.704" y="-267.586" fill="#FD7174" width="17.369" height="2.989"/>
	</g>
	<path fill="#FC9D0E" d="M-2182.367-321.484c-3.932,0-7.13,3.198-7.13,7.13v4.129h-2.304h-2.304v-4.129
		c0-3.932-3.198-7.13-7.13-7.13c-3.931,0-7.129,3.198-7.129,7.13c0,3.931,3.198,7.129,7.129,7.129h4.13v23.494h3v-23.494h2.304
		h2.304v23.494h3v-23.494h4.13c3.932,0,7.13-3.198,7.13-7.129C-2175.237-318.285-2178.435-321.484-2182.367-321.484z
		 M-2197.104-310.225h-4.13c-2.277,0-4.129-1.853-4.129-4.129c0-2.277,1.853-4.13,4.129-4.13c2.277,0,4.13,1.853,4.13,4.13V-310.225
		z M-2182.367-310.225h-4.13v-4.129c0-2.277,1.853-4.13,4.13-4.13s4.13,1.853,4.13,4.13
		C-2178.237-312.077-2180.089-310.225-2182.367-310.225z"/>
	<path fill="#FFFFFF" d="M-2180.585-323.483c-3.932,0-7.13,3.198-7.13,7.13v4.129h-2.304h-2.303v-4.129
		c0-3.932-3.198-7.13-7.13-7.13c-3.931,0-7.129,3.198-7.129,7.13c0,3.931,3.198,7.129,7.129,7.129h4.13v25.516h3v-25.516h2.303
		h2.304v25.516h3v-25.516h4.13c3.932,0,7.13-3.198,7.13-7.129C-2173.456-320.285-2176.654-323.483-2180.585-323.483z
		 M-2195.323-312.224h-4.13c-2.277,0-4.129-1.852-4.129-4.129c0-2.277,1.853-4.13,4.129-4.13c2.278,0,4.13,1.853,4.13,4.13V-312.224
		z M-2180.585-312.224h-4.13v-4.129c0-2.277,1.853-4.13,4.13-4.13s4.13,1.853,4.13,4.13
		C-2176.456-314.077-2178.308-312.224-2180.585-312.224z"/>
	<path fill="#FFFFFF" d="M-2167.573-325.107c0.124-0.81,0.208-1.633,0.208-2.478c0-8.804-7.005-15.954-15.743-16.225
		c2.034,0.838,4.03,1.957,5.913,3.378C-2171.755-336.327-2168.408-330.66-2167.573-325.107z"/>
</g>
<ellipse fill="#7C0505" cx="-801.937" cy="42.331" rx="0" ry="0.25"/>
<g>
	<g>
		<g>
			<polygon fill="#FFFFFF" points="-2569.204,-329.55 -2569.209,-407.732 -2501.505,-446.827 -2433.795,-407.741 -2433.79,-329.559 
				-2501.494,-290.464 			"/>
		</g>
	</g>
	<g>
		<path fill="#FCA2A4" d="M-2460.797-391.263c-0.021-0.091-0.041-0.183-0.063-0.274c-0.059-0.25-0.129-0.496-0.195-0.745
			c-0.197-0.746-0.441-1.475-0.693-2.202c-0.133-0.378-0.271-0.753-0.418-1.125c-0.039-0.1-0.071-0.202-0.112-0.302l-0.016-0.003
			c-5.227-12.933-19.17-22.202-35.595-22.202c-11.056,0-21.001,4.195-27.918,10.88c-4.57,4.417-7.813,9.921-9.183,16.023
			c-0.324,1.444-0.539,2.922-0.646,4.426c-0.208,1.586-0.343,2.767-0.343,2.767l-6.777,17.627c-0.16,0.315-0.234,0.678-0.234,1.052
			c0,1.486,1.36,2.693,3.055,2.693h3.957v9.366v5.569c0,4.422,4.063,8.007,9.076,8.007h11.841v0.014
			c2.431,0.076,4.379,1.827,4.379,3.989v17.243l36.149-11.345v-18.118v-10.325c4.533-3.146,8.238-7.186,10.771-11.818
			c2.404-4.396,3.752-9.325,3.752-14.527C-2460.01-386.88-2460.29-389.108-2460.797-391.263z"/>
	</g>
	<ellipse fill="#FD5459" cx="-2497.592" cy="-384.891" rx="28.488" ry="25.058"/>
	<path fill="#EC4348" d="M-2486.357-386.95c-0.02-0.048-0.055-0.094-0.076-0.141c-0.01-0.025-0.025-0.05-0.035-0.075
		c-0.25-1.693,0.83-3.95,0.83-3.95l-1.4-1.399l-1.4-1.4c0,0-2.293,1.101-3.99,0.828c-0.155-0.068-0.312,0.02-0.47-0.041
		c-1.431-0.985-2.298-3.328-2.298-3.328h-1.979h-1.979c0,0-0.875,2.37-2.319,3.344c-0.105,0.042-0.21,0.006-0.313,0.05
		c-1.715,0.372-4.189-0.867-4.189-0.867l-1.399,1.379l-1.433,1.357c0,0,1.298,2.633,0.817,4.352
		c-0.881,1.552-3.642,2.499-3.642,2.499v1.887v0.091l-0.028,1.979c0,0,2.78,0.954,3.659,2.508c0.485,1.721-0.823,4.382-0.823,4.382
		l1.397,1.399l1.399,1.399c0,0,2.588-1.101,4.31-0.671c1.6,0.832,2.584,3.914,2.584,3.914h1.979h1.979c0,0,1.088-3.383,2.834-4.022
		c1.701-0.244,3.985,0.78,3.985,0.78l1.399-1.441l1.399-1.42c0,0-1.22-2.524-0.819-4.24c0.008-0.018,0.04-0.043,0.047-0.061
		c0.857-1.574,3.697-2.546,3.697-2.546v-1.979v-0.072v-1.907C-2482.634-384.364-2485.531-385.349-2486.357-386.95z
		 M-2492.511-382.36c0,2.571-2.084,4.647-4.656,4.647s-4.656-2.073-4.656-4.644c0-0.039,0.005-0.101,0.005-0.101
		c0.061-2,2.117-4.542,4.651-4.542s4.59,2.542,4.65,4.542C-2492.516-382.457-2492.511-382.398-2492.511-382.36z"/>
	<g>
		<g>
			<path fill="none" d="M-2497.137-379.515c2.571,0,4.656-2.303,4.656-4.874c0-0.038-0.005-0.332-0.006-0.332h-9.3
				c0,0-0.006,0.294-0.006,0.332C-2501.792-381.818-2499.708-379.515-2497.137-379.515z"/>
			<path fill="#FFFFFF" d="M-2492.481-384.154c0,2.571-2.084,4.647-4.656,4.647s-4.656-2.073-4.656-4.644
				c0-0.039,0.005-0.101,0.005-0.101c0.061-2,2.117-4.542,4.65-4.542s4.59,2.542,4.65,4.542
				C-2492.486-384.252-2492.481-384.193-2492.481-384.154z M-2486.328-388.745c-0.02-0.048-0.055-0.094-0.076-0.141
				c-0.01-0.025-0.025-0.05-0.035-0.075c-0.25-1.694,0.83-3.95,0.83-3.95l-1.401-1.399l-1.4-1.4c0,0-2.293,1.101-3.99,0.828
				c-0.155-0.068-0.312,0.02-0.47-0.041c-1.431-0.985-2.298-3.329-2.298-3.329h-1.979h-1.979c0,0-0.875,2.37-2.319,3.344
				c-0.105,0.042-0.21,0.006-0.313,0.05c-1.715,0.372-4.189-0.867-4.189-0.867l-1.399,1.379l-1.433,1.357
				c0,0,1.298,2.633,0.817,4.352c-0.88,1.552-3.642,2.499-3.642,2.499v1.887v0.091l-0.027,1.979c0,0,2.78,0.954,3.659,2.508
				c0.485,1.721-0.823,4.382-0.823,4.382l1.397,1.399l1.399,1.399c0,0,2.588-1.101,4.31-0.671c1.6,0.832,2.584,3.914,2.584,3.914
				h1.978h1.979c0,0,1.088-3.383,2.834-4.021c1.701-0.244,3.985,0.78,3.985,0.78l1.399-1.441l1.399-1.42c0,0-1.22-2.524-0.819-4.24
				c0.008-0.018,0.04-0.042,0.047-0.061c0.857-1.574,3.697-2.546,3.697-2.546v-1.979v-0.072v-1.907
				C-2482.604-386.159-2485.501-387.144-2486.328-388.745z"/>
		</g>
		<path fill="#FCA2A4" d="M-2497.147-390.382c-3.368,0-6.098,2.73-6.098,6.098c0,3.368,2.73,6.098,6.098,6.098
			c3.368,0,6.098-2.73,6.098-6.098C-2491.05-387.652-2493.78-390.382-2497.147-390.382z M-2497.147-379.918
			c-2.411,0-4.366-1.954-4.366-4.365c0-2.411,1.955-4.365,4.366-4.365c2.411,0,4.365,1.954,4.365,4.365
			C-2492.782-381.873-2494.737-379.918-2497.147-379.918z"/>
	</g>
	<g>
		<path fill="#EC4348" d="M-2497.592-407.76c15.32,0,27.811,10.638,28.457,23.973c0.02-0.366,0.031-0.734,0.031-1.105
			c0-13.839-12.755-25.057-28.488-25.057c-15.734,0-28.488,11.219-28.488,25.057c0,0.371,0.011,0.739,0.031,1.105
			C-2525.403-397.122-2512.912-407.76-2497.592-407.76z"/>
	</g>
</g>
<g>
	<polygon fill="#FD5459" points="-248.321,333.087 -248.326,254.906 -180.621,215.81 -112.911,254.897 -112.906,333.078 
		-180.611,372.173 	"/>
	<g>
		<g>
			<path fill="#0063AD" d="M-134.886,277.007h-27.688v31.75c0,2.209-1.791,4-4,4h-29.022v8.25c0,2.209,1.791,4,4,4h31.624
				l14.5,10.25l-0.25-10.25h10.836c2.209,0,4-1.791,4-4v-40C-130.886,278.797-132.677,277.007-134.886,277.007z"/>
			<path fill="#004F7F" d="M-162.574,308.757v-31.75h-5.164v26.269c0,2.209-1.791,4-4,4h-23.857v6.481h29.022
				C-164.53,313.757-162.574,311.507-162.574,308.757z"/>
		</g>
		<path fill="#FFFFFF" d="M-152.408,290.244h-5.237c-0.619,0-1.311,0.814-1.311,1.904v3.782h6.548v5.39h-6.548v16.187h-6.181
			v-16.187h-5.604v-5.39h5.604v-3.173c0-4.549,3.158-8.25,7.492-8.25h5.237V290.244z"/>
		<g>
			<path fill="#C9CED1" d="M-162.574,309.201v-22.728c-1.594,1.514-2.562,3.766-2.562,6.28v3.173h-2.602v5.39h2.602l-0.02,12.011
				C-163.66,312.747-162.574,310.901-162.574,309.201z"/>
		</g>
		<path fill="#3FA9E2" d="M-165.636,305.257c0,2.209-1.791,4-4,4h-31.624l-14.5,10.25l0.25-10.25h-10.836c-2.209,0-4-1.791-4-4v-40
			c0-2.209,1.791-4,4-4h56.71c2.209,0,4,1.791,4,4V305.257z"/>
		<path fill="#FFFFFF" d="M-180.416,276.427c-1.118,0.496-2.318,0.83-3.578,0.981c1.286-0.771,2.274-1.992,2.739-3.446
			c-1.204,0.714-2.537,1.232-3.955,1.511c-1.136-1.211-2.755-1.967-4.546-1.967c-3.44,0-6.229,2.788-6.229,6.228
			c0,0.488,0.055,0.964,0.161,1.419c-5.176-0.259-9.767-2.739-12.838-6.508c-0.536,0.92-0.844,1.99-0.844,3.131
			c0,2.161,1.1,4.067,2.771,5.184c-1.02-0.032-1.981-0.312-2.821-0.779c-0.001,0.026-0.001,0.052-0.001,0.078
			c0,3.018,2.148,5.535,4.996,6.107c-0.522,0.142-1.072,0.219-1.641,0.219c-0.401,0-0.791-0.039-1.172-0.112
			c0.793,2.474,3.094,4.275,5.819,4.325c-2.132,1.671-4.817,2.667-7.735,2.667c-0.503,0-0.998-0.03-1.486-0.088
			c2.756,1.768,6.029,2.799,9.548,2.799c11.456,0,17.721-9.491,17.721-17.722c0-0.269-0.006-0.538-0.018-0.806
			C-182.307,278.773-181.252,277.676-180.416,276.427z"/>
	</g>
</g>
<g>
	<polyline fill="#FD5459" points="-38.618,475.619 -38.613,553.801 -106.318,592.896 -174.028,553.809 -174.033,475.628 
		-106.328,436.533 	"/>
	<g>
		<path fill="#FCA2A4" d="M-107.608,551.657l-2.543,3.497c0.259,0.553,0.63,1.064,1.114,1.497l1.87,1.822
			c1.922,1.719,4.873,1.554,6.591-0.367c0.094-0.105,0.164-0.223,0.245-0.335C-103.531,555.245-107.65,552.364-107.608,551.657z"/>
		<path fill="#FCA2A4" d="M-92.728,535.803c0.087-0.494,0.46-0.924,0.783-1.216l-12.371-10.792l1.427-9.157l0.764-16.739
			c0,0-10.656-1.322-18.006-0.578c-5.122,0.518-11.62,1.663-15.096,2.31l0.677,0.471c0,0-3.524,23.787-11.894,33.258l-0.617,0.835
			l34.629,11.468l4.072,3.552c-0.376,0.231-0.735,0.499-1.044,0.845c-1.076,1.203-1.413,2.81-1.044,4.266l2.629-3.615
			c1.556-2.055,1.151-4.983-0.905-6.539c-1.58-1.196-3.669-1.224-5.26-0.244c0.814-1.922,0.273-4.219-1.467-5.536
			c-1.306-0.989-2.961-1.18-4.396-0.665c1.625-1.588,4.199-1.807,6.065-0.394c1.74,1.317,2.282,3.614,1.468,5.536
			c1.592-0.98,3.681-0.952,5.26,0.244c2.056,1.556,2.461,4.484,0.905,6.539l-0.981,1.349c0.943,0.739,7.054,5.525,7.308,5.675
			c0.015,0.036,0.037,0.079,0.053,0.116c0.008-0.02,0.021-0.038,0.029-0.058l0.013,0.011c2.2,1.919,5.539,1.691,7.458-0.509
			l0.29-0.332c1.598-1.832,1.687-4.443,0.408-6.378l3.73,3.253c2.2,1.919,5.539,1.692,7.458-0.508l0.29-0.332
			c0.89-1.021,1.298-2.286,1.282-3.541C-82.076,545.667-92.863,536.571-92.728,535.803z"/>
		<path fill="#3F3F3F" d="M-107.265,550.895c-0.164,0.22-0.301,0.469-0.349,0.74c-0.001,0.006,0.005,0.016,0.005,0.022l0.478-0.657
			C-107.209,550.938-107.265,550.895-107.265,550.895z"/>
		<path fill="#FD7174" d="M-107.131,551l-0.478,0.657c-0.041,0.707,4.077,3.588,7.278,6.114c0.226-0.31,0.418-0.637,0.561-0.98
			c-0.017-0.038-0.038-0.08-0.053-0.116C-100.076,556.525-106.187,551.739-107.131,551z"/>
		<path fill="#FFFFFF" d="M-88.135,509.781l-14.776,1.556l29.558,27.859l6.345-6.091c-5.9-9.506-11.939-26.091-12.996-29.054
			L-88.135,509.781z"/>
		<g>
			<path fill="#FD7174" d="M-134.551,500.101l0.025-0.6l-0.702,0.13c-1.513,0.282-2.461,0.471-2.461,0.471
				s-3.524,23.787-11.894,33.258l0,0l2.522,0.835l0.617-0.835C-138.075,523.889-134.551,500.101-134.551,500.101z"/>
			<path fill="#FFFFFF" d="M-147.96,492.964l-2.724-1.893c0,0-5.286,25.769-14.536,40.967l13.726,3.91l0.546-0.739l1.366-1.85
				c8.37-9.47,11.894-33.258,11.894-33.258L-147.96,492.964z"/>
		</g>
		<path fill="#3787AF" d="M-78.411,502.915l-1.762,0.661c0,0,0.062,0.177,0.169,0.475l1.597-1.126
			C-78.408,502.925-78.411,502.915-78.411,502.915z"/>
		<polygon fill="#C9CED1" points="-72.228,538.116 -70.973,536.911 -101.332,512.64 		"/>
		<path fill="#FD7174" d="M-99.421,528.868c-0.164,0.22-0.301,0.469-0.349,0.74c-0.135,0.768,17.694,16.059,20.957,18.79
			c-0.009-0.683-0.156-1.36-0.421-1.996c-0.274-0.162-0.542-0.344-0.791-0.561L-99.421,528.868z"/>
		<path fill="#FD7174" d="M-106.036,536.99c-0.164,0.22-0.301,0.469-0.349,0.74c-0.135,0.768,12.37,11.201,15.634,13.932
			c-0.009-0.683-0.523-1.509-0.788-2.145C-91.813,549.354-106.036,536.99-106.036,536.99z"/>
		<path fill="#FCA2A4" d="M-72.784,537.543l-28.548-24.903c-2.2-1.919-5.539-1.691-7.458,0.508l-0.289,0.332
			c-1.919,2.2-1.691,5.539,0.508,7.458l16.192,14.125l12.356,10.779c0.249,0.217,0.516,0.398,0.791,0.561
			c2.151,1.273,4.966,0.882,6.668-1.069l0.29-0.332C-70.357,542.801-70.584,539.462-72.784,537.543z"/>
		<g>
			<g>
				<path fill="#FD7174" d="M-110.081,511.546c-0.91,6.373-10.095,10.283-14.203,10.086c0.188,0.306,1.777,1.115,2.403,1.435
					c3.403,1.735,13.225-2.893,14.277-10.256c0.235-1.648,2.477-1.994,5.282-0.851
					C-106.179,509.617-109.779,509.433-110.081,511.546z"/>
			</g>
			<path fill="#FFFFFF" d="M-78.393,502.915h-9.742c0,0-4.199-5.711-14.277-5.711c-10.078,0-13.438,4.031-14.949,5.711
				c-1.512,1.68-3.191,7.559-4.367,10.078c-1.176,2.519-5.375,6.906-2.184,8.912c3.191,2.006,13.225-2.893,14.277-10.256
				c0.316-2.212,4.246-1.65,8.303,0.99c4.273,2.781,9.612,4.875,9.612,4.875L-78.393,502.915z"/>
		</g>
		<g>
			<path fill="none" d="M-121.787,539.067c0.083-0.098,0.17-0.19,0.26-0.28C-121.619,538.873-121.701,538.971-121.787,539.067z"/>
			<path fill="#FD7174" d="M-107.054,543.111c-1.58-1.196-3.669-1.224-5.26-0.244c0.814-1.922,0.273-4.219-1.468-5.536
				c-1.841-1.393-4.366-1.193-5.994,0.336c1.424-0.496,3.061-0.295,4.354,0.683c1.74,1.318,2.282,3.614,1.468,5.537
				c1.591-0.98,3.681-0.952,5.26,0.244c2.056,1.556,2.461,4.484,0.905,6.539l-2.659,3.656c0.072,0.283,0.171,0.56,0.297,0.828
				l4.002-5.503C-104.593,547.595-104.998,544.667-107.054,543.111z"/>
			<path fill="#FD7174" d="M-124.465,534.777c2.056,1.556,2.461,4.484,0.905,6.539l1.599-2.062c0.053-0.07,0.119-0.122,0.174-0.188
				c0.085-0.095,0.168-0.194,0.26-0.28c0.142-0.143,0.29-0.274,0.446-0.395c0.338-1.699-0.27-3.518-1.744-4.634
				c-1.561-1.181-3.601-1.195-5.179-0.243l-0.338,0.468C-127.04,533.671-125.618,533.904-124.465,534.777z"/>
			<path fill="#FFFFFF" d="M-130.828,535.5c0.249-1.638-0.362-3.356-1.776-4.426c-1.306-0.989-2.961-1.179-4.396-0.665
				c0.023-0.022,0.049-0.037,0.072-0.059c-0.841,0.292-1.608,0.826-2.186,1.589l-1.663,2.013c-1.556,2.056-1.151,4.983,0.905,6.539
				c1.515,1.147,3.501,1.222,5.065,0.363l3.981-5.355C-130.828,535.5-130.828,535.5-130.828,535.5z"/>
			<path fill="#FFFFFF" d="M-107.819,550.709c1.556-2.055,1.151-4.983-0.905-6.539c-1.58-1.196-3.669-1.224-5.26-0.244
				c0.814-1.922,0.273-4.219-1.467-5.536c-1.306-0.989-2.961-1.18-4.396-0.665c0.022-0.022,0.049-0.037,0.072-0.058
				c-0.468,0.163-0.903,0.415-1.305,0.726c-0.001,0.007-0.001,0.013-0.003,0.02c-0.153,0.117-0.301,0.242-0.443,0.375
				c-0.089,0.089-0.177,0.182-0.26,0.28c-0.068,0.076-0.141,0.145-0.204,0.227l-2.528,3.339l0.929-1.277
				c1.556-2.056,1.151-4.983-0.905-6.54c-1.154-0.874-2.575-1.109-3.877-0.793l-7.815,10.817c0.125,1.247,0.736,2.441,1.814,3.258
				c1.79,1.355,4.241,1.22,5.872-0.194c-1.516,2.053-1.107,4.947,0.933,6.492c2.056,1.556,4.983,1.151,6.539-0.905l0.745-0.984
				c-0.483,1.783,0.118,3.76,1.682,4.943c2.056,1.556,4.983,1.151,6.539-0.905l1.615-2.221l0-0.001L-107.819,550.709z"/>
			<path fill="#FD5459" d="M-108.694,544.13c-1.58-1.196-3.669-1.223-5.26-0.244c0.814-1.922,0.273-4.219-1.468-5.537
				c-1.293-0.978-2.93-1.179-4.354-0.683c-0.023,0.021-0.049,0.036-0.072,0.058c1.435-0.515,3.09-0.324,4.396,0.665
				c1.74,1.317,2.282,3.614,1.467,5.536c1.591-0.98,3.681-0.952,5.26,0.244c2.056,1.556,2.461,4.484,0.905,6.539l-2.629,3.615
				l0,0.001l2.659-3.656C-106.233,548.614-106.638,545.686-108.694,544.13z"/>
			<path fill="#FD5459" d="M-123.56,541.317c1.556-2.055,1.151-4.983-0.905-6.539c-1.154-0.873-2.575-1.106-3.878-0.794
				l-0.029,0.041c1.302-0.316,2.723-0.081,3.877,0.793c2.056,1.556,2.461,4.484,0.905,6.54l-0.929,1.277l2.528-3.339
				c0.063-0.083,0.136-0.152,0.204-0.227c-0.056,0.066-0.122,0.118-0.174,0.188L-123.56,541.317z"/>
			<path fill="#FD5459" d="M-121.527,538.787c0.142-0.133,0.29-0.258,0.443-0.375c0.001-0.007,0.001-0.013,0.003-0.02
				C-121.237,538.513-121.385,538.644-121.527,538.787z"/>
			<path fill="#FD7174" d="M-129.232,533.569c-0.063-1.325-0.836-2.612-1.977-3.476c-1.84-1.393-4.473-1.118-6.101,0.409
				c1.424-0.495,3.169-0.369,4.462,0.61c1.414,1.07,2.218,2.788,1.968,4.426c0.466-0.539,1.037-0.932,1.653-1.205
				C-129.198,534.079-129.22,533.824-129.232,533.569z"/>
			<path fill="#C9CED1" d="M-128.88,534.175c0.021-0.02,0.046-0.034,0.067-0.055c-0.112,0.04-0.222,0.086-0.332,0.135
				c-0.001,0.009,0.001,0.018,0,0.027c-0.627,0.273-1.209,0.669-1.682,1.216l-3.981,5.355c0.021-0.012,0.044-0.019,0.065-0.031
				l-0.535,0.736c-0.74,0.977-1.023,2.151-0.909,3.282l7.815-10.817C-128.544,534.065-128.714,534.114-128.88,534.175z"/>
			<path fill="#C9CED1" d="M-112.998,543.426c0.021-0.02,0.046-0.034,0.067-0.055c-0.112,0.04-0.222,0.086-0.332,0.135
				c-0.001,0.009,0.001,0.018,0,0.027c-0.627,0.273-1.209,0.669-1.682,1.216l-3.981,5.355c0.021-0.012,0.044-0.019,0.065-0.031
				l-0.535,0.736c-0.74,0.978-1.023,2.151-0.909,3.282l7.815-10.817C-112.661,543.316-112.831,543.365-112.998,543.426z"/>
			<path fill="#C9CED1" d="M-119.919,537.733c0.021-0.02,0.046-0.034,0.067-0.055c-0.112,0.04-0.222,0.086-0.332,0.135
				c-0.001,0.009,0.001,0.018,0,0.027c-0.627,0.273-1.209,0.669-1.682,1.216l-6.138,8.233c0.021-0.012,2.202-2.897,2.223-2.909
				l-2.591,3.367c-0.74,0.978-1.135,2.189-1.011,3.529l9.972-13.695C-119.582,537.623-119.752,537.672-119.919,537.733z"/>
		</g>
		<path fill="#FD7174" d="M-78.393,502.931c0,0,10.625,30.385,18.114,35.495l12.885-7.445c0,0-14.59-30.363-15.581-33.887
			L-78.393,502.931z"/>
		<path fill="#C9CED1" d="M-78.407,502.925h-1.997l0.4,1.126c1.058,2.963,7.096,19.547,12.996,29.054l1.368-1.313
			C-71.977,521.265-78.345,503.103-78.407,502.925z"/>
	</g>
</g>
<g>
	<polygon fill="none" stroke="#FFFFFF" stroke-width="3" stroke-linejoin="round" stroke-miterlimit="10" points="-395.09,332.264 
		-395.095,254.082 -327.39,214.987 -259.681,254.073 -259.676,332.255 -327.38,371.35 	"/>
	<g>
		
			<circle fill="none" stroke="#FFFFFF" stroke-width="3" stroke-linejoin="round" stroke-miterlimit="10" cx="-326.621" cy="276.076" r="24.999"/>
		
			<circle fill="none" stroke="#FFFFFF" stroke-width="3" stroke-linejoin="round" stroke-miterlimit="10" cx="-347.006" cy="310.261" r="24.999"/>
		
			<circle fill="none" stroke="#FFFFFF" stroke-width="3" stroke-linejoin="round" stroke-miterlimit="10" cx="-307.765" cy="309.161" r="24.999"/>
	</g>
</g>
<g>
	<polygon fill="none" stroke="#FFFFFF" stroke-width="3" stroke-linejoin="round" stroke-miterlimit="10" points="-773.006,548.504 
		-773.011,470.322 -705.306,431.227 -637.596,470.313 -637.591,548.495 -705.296,587.59 	"/>
	<g>
		<polygon fill="none" stroke="#FFFFFF" stroke-width="3" stroke-linejoin="round" stroke-miterlimit="10" points="
			-749.301,540.101 -749.301,519.751 -728.335,514.155 -706.301,499.434 -682.634,498.101 -661.301,478.767 -661.301,540.101 		"/>
		<circle fill="#FFFFFF" cx="-727.301" cy="513.434" r="4"/>
		<circle fill="#FFFFFF" cx="-706.301" cy="500.101" r="4"/>
		<circle fill="#FFFFFF" cx="-682.634" cy="498.101" r="4"/>
		<circle fill="#FFFFFF" cx="-661.301" cy="478.767" r="4"/>
		<circle fill="#FFFFFF" cx="-749.301" cy="519.751" r="4"/>
		
			<line fill="none" stroke="#FFFFFF" stroke-width="3" stroke-linejoin="round" stroke-miterlimit="10" x1="-727.301" y1="513.434" x2="-727.301" y2="540.101"/>
		
			<line fill="none" stroke="#FFFFFF" stroke-width="3" stroke-linejoin="round" stroke-miterlimit="10" x1="-706.301" y1="500.101" x2="-706.301" y2="540.101"/>
		
			<line fill="none" stroke="#FFFFFF" stroke-width="3" stroke-linejoin="round" stroke-miterlimit="10" x1="-682.634" y1="498.101" x2="-682.634" y2="540.101"/>
	</g>
</g>
<g>
	<polygon fill="#FCA2A4" points="-696.799,333.423 -696.805,255.241 -629.1,216.146 -561.39,255.233 -561.385,333.414 
		-629.09,372.509 	"/>
	<g>
		<g>
			<path fill="#FFFFFF" d="M-614.825,248.843h-46.527c-1.169,0-2.117,0.948-2.117,2.117v84.677c0,1.169,0.948,2.116,2.117,2.116
				h64.514c1.169,0,2.117-0.948,2.117-2.116v-66.689L-614.825,248.843z"/>
			<path fill="#3FA9E2" d="M-614.825,266.831c0,1.169,0.948,2.116,2.117,2.116h17.987l-20.104-20.104V266.831z"/>
			<g>
				<path fill="#C9CED1" d="M-612.708,269.046c-1.169,0-2.117-0.948-2.117-2.116v1.919c0,1.169,0.948,2.117,2.117,2.117h17.987
					v-1.919H-612.708z"/>
			</g>
		</g>
		<rect x="-653.138" y="266.329" fill="#C9CED1" width="10.964" height="4.702"/>
		<rect x="-653.138" y="288.466" fill="#C9CED1" width="48.596" height="4.702"/>
		<rect x="-653.138" y="279.633" fill="#C9CED1" width="48.596" height="4.702"/>
		<rect x="-653.138" y="297.4" fill="#C9CED1" width="48.596" height="4.702"/>
		<rect x="-653.138" y="306.334" fill="#C9CED1" width="48.596" height="4.702"/>
		<rect x="-625.506" y="316.622" fill="#C9CED1" width="20.963" height="4.702"/>
	</g>
	<circle fill="#F4CC0C" cx="-650.326" cy="326.103" r="8.714"/>
	<g>
		<path fill="#FD5459" d="M-655.493,335.109v8.645l5.167-4l5.167,4v-8.645c-1.447,1.069-3.23,1.708-5.167,1.708
			S-654.046,336.177-655.493,335.109z"/>
		<path fill="#CD2C31" d="M-650.326,334.839c-1.935,0-3.721-0.633-5.167-1.701v1.97c1.447,1.069,3.23,1.708,5.167,1.708
			s3.72-0.64,5.167-1.708v-1.97C-646.605,334.206-648.391,334.839-650.326,334.839z"/>
	</g>
</g>
<g>
	<polygon fill="none" stroke="#FFFFFF" stroke-width="3" stroke-linejoin="round" stroke-miterlimit="10" points="-621.69,548.504 
		-621.695,470.322 -553.99,431.227 -486.281,470.313 -486.275,548.495 -553.98,587.59 	"/>
	
		<circle fill="none" stroke="#FFFFFF" stroke-width="3" stroke-linejoin="round" stroke-miterlimit="10" cx="-531.5" cy="540.035" r="9.7"/>
	
		<circle fill="none" stroke="#FFFFFF" stroke-width="3" stroke-linejoin="round" stroke-miterlimit="10" cx="-588.524" cy="489.673" r="9.7"/>
	<g>
		<path fill="#FFFFFF" d="M-511.151,511.842l-6.83-6.83l-6.79,6.79c-0.639,0.639-1.677,0.639-2.316,0
			c-0.639-0.639-0.639-1.677,0-2.316l6.79-6.79l-6.83-6.83c-0.599-0.599-0.599-1.558,0-2.157c0.599-0.599,1.557-0.599,2.157,0
			l6.83,6.83l6.829-6.83c0.639-0.639,1.677-0.639,2.317,0c0.639,0.639,0.639,1.677,0,2.317l-6.829,6.829l6.83,6.83
			c0.599,0.599,0.599,1.558,0,2.157C-509.593,512.441-510.552,512.441-511.151,511.842z"/>
	</g>
	<g>
		<path fill="#FFFFFF" d="M-575.661,539.823l-6.83-6.83l-6.79,6.79c-0.639,0.639-1.677,0.639-2.316,0
			c-0.639-0.639-0.639-1.677,0-2.316l6.79-6.79l-6.83-6.83c-0.599-0.599-0.599-1.558,0-2.157c0.599-0.599,1.557-0.599,2.157,0
			l6.83,6.83l6.83-6.829c0.639-0.639,1.677-0.639,2.317,0c0.639,0.639,0.639,1.677,0,2.317l-6.829,6.83l6.83,6.83
			c0.599,0.599,0.599,1.558,0,2.157C-574.103,540.422-575.062,540.422-575.661,539.823z"/>
	</g>
	<g>
		<g>
			<path fill="none" stroke="#FFFFFF" stroke-width="3" stroke-linecap="round" stroke-linejoin="round" d="M-547.185,529.912
				c0,0-27.76-20.523,6.532-59.938"/>
			<g>
				<polygon fill="#FFFFFF" points="-537.483,485.536 -540.481,485.705 -541.297,470.935 -555.969,472.829 -556.35,469.85 
					-538.481,467.548 				"/>
			</g>
		</g>
	</g>
</g>
<g>
	<polygon fill="#FFFFFF" points="-545.087,333.423 -545.092,255.241 -477.387,216.146 -409.677,255.233 -409.672,333.414 
		-477.377,372.509 	"/>
	<path fill="#FD5459" d="M-437.232,328.457c0,0.877-0.711,1.589-1.589,1.589h-77.917c-0.877,0-1.589-0.711-1.589-1.589v-31.733
		c0-0.877,0.711-1.589,1.589-1.589h77.917c0.877,0,1.589,0.711,1.589,1.589V328.457z"/>
	<path fill="#FD7174" d="M-434.452,302.546c0,0.877-0.711,1.589-1.589,1.589h-82.682c-0.877,0-1.589-0.711-1.589-1.589v-31.733
		c0-0.877,0.711-1.589,1.589-1.589h82.682c0.877,0,1.589,0.711,1.589,1.589V302.546z"/>
	<g>
		<path fill="#CD2C31" d="M-496.359,269.181v-1.628c0-3.268,2.65-5.918,5.918-5.918h26.12c3.268,0,5.918,2.649,5.918,5.918v1.628
			c0,0.015-0.002,0.029-0.002,0.044h4.291v-2.037c0-4.737-3.84-8.577-8.577-8.577h-29.378c-4.737,0-8.577,3.84-8.577,8.577v2.037
			h4.291C-496.357,269.21-496.359,269.196-496.359,269.181z"/>
	</g>
	<g>
		<path fill="#CD2C31" d="M-497.549,266.158h-2.123c-2,0-3.685,1.284-4.318,3.066h10.759
			C-493.865,267.442-495.55,266.158-497.549,266.158z"/>
	</g>
	<g>
		<path fill="#CD2C31" d="M-455.327,266.158h-2.123c-2,0-3.685,1.284-4.318,3.066h10.759
			C-451.643,267.442-453.328,266.158-455.327,266.158z"/>
	</g>
	<rect x="-518.326" y="304.135" fill="#CD2C31" width="81.094" height="2.224"/>
	<rect x="-500.648" y="269.225" fill="#EC4348" width="4.387" height="34.91"/>
	<rect x="-458.582" y="269.225" fill="#EC4348" width="4.387" height="34.91"/>
	<rect x="-500.648" y="312.591" fill="#EC4348" width="4.387" height="15.66"/>
	<rect x="-458.582" y="312.591" fill="#EC4348" width="4.387" height="15.66"/>
	<g>
		<g>
			<path fill="#FFFFFF" d="M-505.569,307.909c0,2.084,1.69,3.774,3.774,3.774h6.369c2.084,0,3.774-1.69,3.774-3.774v-3.774h-13.917
				V307.909z"/>
			<path fill="#C9CED1" d="M-495.427,293.992h-6.369c-2.084,0-3.774,1.69-3.774,3.774v6.369h13.917v-6.369
				C-491.652,295.682-493.342,293.992-495.427,293.992z"/>
		</g>
		<path fill="#CD2C31" d="M-496.625,306.518c0,0.877-0.711,1.589-1.589,1.589h-0.794c-0.877,0-1.589-0.711-1.589-1.589v-4.766
			c0-0.877,0.711-1.589,1.589-1.589h0.794c0.877,0,1.589,0.711,1.589,1.589V306.518z"/>
	</g>
	<g>
		<g>
			<path fill="#FFFFFF" d="M-463.347,307.909c0,2.084,1.69,3.774,3.774,3.774h6.369c2.085,0,3.774-1.69,3.774-3.774v-3.774h-13.917
				V307.909z"/>
			<path fill="#C9CED1" d="M-453.204,293.992h-6.369c-2.084,0-3.774,1.69-3.774,3.774v6.369h13.917v-6.369
				C-449.43,295.682-451.12,293.992-453.204,293.992z"/>
		</g>
		<path fill="#CD2C31" d="M-454.403,306.518c0,0.877-0.711,1.589-1.589,1.589h-0.794c-0.877,0-1.589-0.711-1.589-1.589v-4.766
			c0-0.877,0.711-1.589,1.589-1.589h0.794c0.877,0,1.589,0.711,1.589,1.589V306.518z"/>
	</g>
	<g>
		<path fill="#CD2C31" d="M-495.427,311.683h-6.369c-2.084,0-3.774-1.69-3.774-3.774v1.853c0,2.084,1.69,3.774,3.774,3.774h6.369
			c2.085,0,3.774-1.69,3.774-3.774v-1.853C-491.653,309.993-493.342,311.683-495.427,311.683z"/>
	</g>
	<g>
		<path fill="#CD2C31" d="M-453.204,311.683h-6.369c-2.084,0-3.774-1.69-3.774-3.774v1.853c0,2.084,1.69,3.774,3.774,3.774h6.369
			c2.085,0,3.774-1.69,3.774-3.774v-1.853C-449.43,309.993-451.12,311.683-453.204,311.683z"/>
	</g>
</g>
<g>
	<polygon fill="#FCA2A4" points="-471.296,553.638 -471.301,475.457 -403.597,436.362 -335.887,475.448 -335.882,553.629 
		-403.586,592.725 	"/>
	<rect x="-414.951" y="539.409" fill="#EC4348" width="23.753" height="16.122"/>
	<g>
		<path fill="#F4CC0C" d="M-403.074,471.474c-14.561,0-29.123,9.107-29.123,28.552c0,19.445,10.517,19.432,14.561,28.798
			c2.364,5.475,2.685,10.584,2.685,10.584h11.876h11.876c0,0,0.321-5.109,2.685-10.584c4.045-9.366,14.561-9.353,14.561-28.798
			C-373.952,480.582-388.513,471.474-403.074,471.474z"/>
		<polygon fill="#FD7174" points="-391.198,543.486 -414.951,545.886 -414.951,542.947 -391.198,540.547 		"/>
		<polygon fill="#FD7174" points="-391.198,550.593 -414.951,552.993 -414.951,550.055 -391.198,547.655 		"/>
		<rect x="-411.759" y="555.531" fill="#FD7174" width="17.369" height="2.989"/>
	</g>
	<path fill="#FC9D0E" d="M-395.422,501.634c-3.932,0-7.13,3.198-7.13,7.13v4.129h-2.304h-2.304v-4.129c0-3.932-3.198-7.13-7.13-7.13
		c-3.931,0-7.129,3.198-7.129,7.13c0,3.931,3.198,7.129,7.129,7.129h4.13v23.494h3v-23.494h2.304h2.304v23.494h3v-23.494h4.13
		c3.932,0,7.13-3.198,7.13-7.129C-388.292,504.832-391.491,501.634-395.422,501.634z M-410.159,512.893h-4.13
		c-2.277,0-4.129-1.853-4.129-4.129c0-2.277,1.853-4.13,4.129-4.13c2.277,0,4.13,1.853,4.13,4.13V512.893z M-395.422,512.893h-4.13
		v-4.129c0-2.277,1.853-4.13,4.13-4.13s4.13,1.853,4.13,4.13C-391.292,511.04-393.145,512.893-395.422,512.893z"/>
	<path fill="#FFFFFF" d="M-393.641,499.635c-3.932,0-7.13,3.198-7.13,7.13v4.129h-2.304h-2.304v-4.129c0-3.932-3.198-7.13-7.13-7.13
		c-3.931,0-7.129,3.198-7.129,7.13c0,3.931,3.198,7.129,7.129,7.129h4.13v25.516h3v-25.516h2.304h2.304v25.516h3v-25.516h4.13
		c3.932,0,7.13-3.198,7.13-7.129C-386.511,502.833-389.709,499.635-393.641,499.635z M-408.378,510.893h-4.13
		c-2.277,0-4.129-1.853-4.129-4.129c0-2.277,1.853-4.13,4.129-4.13c2.277,0,4.13,1.853,4.13,4.13V510.893z M-393.641,510.893h-4.13
		v-4.129c0-2.277,1.853-4.13,4.13-4.13s4.13,1.853,4.13,4.13C-389.511,509.041-391.364,510.893-393.641,510.893z"/>
	<path fill="#FFFFFF" d="M-380.629,498.01c0.124-0.81,0.209-1.633,0.209-2.478c0-8.804-7.005-15.954-15.743-16.224
		c2.034,0.838,4.03,1.957,5.913,3.378C-384.81,486.79-381.464,492.458-380.629,498.01z"/>
</g>
<g>
	<g>
		<g>
			<polygon fill="#FFFFFF" points="-324.204,553.45 -324.209,475.268 -256.505,436.173 -188.795,475.259 -188.79,553.441 
				-256.494,592.536 			"/>
		</g>
	</g>
	<g>
		<path fill="#FCA2A4" d="M-215.797,491.737c-0.021-0.091-0.041-0.183-0.063-0.274c-0.059-0.25-0.129-0.496-0.195-0.745
			c-0.197-0.746-0.441-1.475-0.693-2.202c-0.132-0.378-0.271-0.753-0.418-1.125c-0.039-0.1-0.071-0.202-0.112-0.302l-0.016-0.003
			c-5.227-12.933-19.17-22.202-35.595-22.202c-11.056,0-21.001,4.195-27.918,10.88c-4.57,4.417-7.814,9.921-9.183,16.023
			c-0.324,1.444-0.539,2.922-0.646,4.426c-0.208,1.586-0.343,2.767-0.343,2.767l-6.777,17.627c-0.16,0.315-0.234,0.678-0.234,1.052
			c0,1.486,1.36,2.693,3.055,2.693h3.956v9.366v5.569c0,4.422,4.064,8.007,9.076,8.007h11.841v0.014
			c2.431,0.076,4.379,1.826,4.379,3.989v17.244l36.149-11.345V535.08v-10.325c4.533-3.146,8.238-7.186,10.771-11.818
			c2.404-4.396,3.752-9.325,3.752-14.527C-215.01,496.12-215.29,493.892-215.797,491.737z"/>
	</g>
	<ellipse fill="#FD5459" cx="-252.592" cy="498.108" rx="28.488" ry="25.058"/>
	<path fill="#EC4348" d="M-241.357,496.05c-0.02-0.048-0.055-0.094-0.076-0.141c-0.011-0.025-0.025-0.05-0.035-0.075
		c-0.25-1.693,0.83-3.95,0.83-3.95l-1.4-1.399l-1.4-1.4c0,0-2.293,1.101-3.99,0.828c-0.155-0.068-0.312,0.02-0.47-0.041
		c-1.431-0.985-2.298-3.328-2.298-3.328h-1.979h-1.979c0,0-0.875,2.37-2.319,3.344c-0.105,0.042-0.21,0.006-0.313,0.05
		c-1.715,0.372-4.189-0.867-4.189-0.867l-1.399,1.379l-1.433,1.357c0,0,1.298,2.633,0.817,4.352
		c-0.88,1.552-3.642,2.499-3.642,2.499v1.887v0.091l-0.027,1.979c0,0,2.78,0.954,3.659,2.508c0.485,1.721-0.823,4.382-0.823,4.382
		l1.397,1.399l1.399,1.399c0,0,2.588-1.101,4.31-0.671c1.6,0.832,2.584,3.914,2.584,3.914h1.978h1.979c0,0,1.088-3.383,2.834-4.022
		c1.701-0.244,3.985,0.78,3.985,0.78l1.399-1.441l1.399-1.42c0,0-1.22-2.524-0.819-4.24c0.008-0.018,0.04-0.043,0.047-0.061
		c0.857-1.574,3.697-2.546,3.697-2.546v-1.979v-0.072v-1.907C-237.634,498.636-240.531,497.651-241.357,496.05z M-247.511,500.64
		c0,2.571-2.084,4.647-4.656,4.647s-4.656-2.073-4.656-4.644c0-0.039,0.005-0.101,0.005-0.101c0.061-2,2.117-4.542,4.651-4.542
		s4.589,2.542,4.65,4.542C-247.516,500.543-247.511,500.602-247.511,500.64z"/>
	<g>
		<g>
			<path fill="none" d="M-252.137,503.485c2.571,0,4.656-2.303,4.656-4.874c0-0.038-0.005-0.332-0.006-0.332h-9.299
				c0,0-0.006,0.294-0.006,0.332C-256.792,501.182-254.708,503.485-252.137,503.485z"/>
			<path fill="#FFFFFF" d="M-247.481,498.846c0,2.571-2.084,4.647-4.656,4.647c-2.571,0-4.655-2.073-4.655-4.644
				c0-0.039,0.005-0.101,0.005-0.101c0.061-2,2.117-4.542,4.651-4.542c2.533,0,4.589,2.542,4.65,4.542
				C-247.486,498.748-247.481,498.807-247.481,498.846z M-241.328,494.255c-0.02-0.048-0.055-0.094-0.076-0.141
				c-0.011-0.025-0.026-0.05-0.035-0.075c-0.25-1.694,0.83-3.95,0.83-3.95l-1.401-1.399l-1.4-1.4c0,0-2.293,1.101-3.99,0.828
				c-0.155-0.068-0.312,0.02-0.47-0.041c-1.431-0.985-2.298-3.329-2.298-3.329h-1.979h-1.979c0,0-0.875,2.37-2.319,3.344
				c-0.105,0.042-0.21,0.006-0.313,0.05c-1.715,0.372-4.189-0.867-4.189-0.867l-1.399,1.379l-1.433,1.357
				c0,0,1.298,2.633,0.817,4.352c-0.88,1.552-3.642,2.499-3.642,2.499v1.887v0.091l-0.027,1.979c0,0,2.78,0.954,3.659,2.508
				c0.485,1.721-0.823,4.382-0.823,4.382l1.397,1.399l1.399,1.399c0,0,2.588-1.101,4.31-0.671c1.6,0.832,2.584,3.914,2.584,3.914
				h1.978h1.979c0,0,1.088-3.383,2.834-4.021c1.701-0.244,3.986,0.78,3.986,0.78l1.399-1.441l1.399-1.42c0,0-1.22-2.524-0.819-4.24
				c0.008-0.018,0.039-0.042,0.047-0.061c0.857-1.574,3.697-2.546,3.697-2.546v-1.979v-0.072v-1.907
				C-237.604,496.841-240.501,495.856-241.328,494.255z"/>
		</g>
		<path fill="#FCA2A4" d="M-252.148,492.618c-3.368,0-6.098,2.73-6.098,6.098c0,3.368,2.73,6.098,6.098,6.098
			s6.098-2.73,6.098-6.098C-246.05,495.348-248.78,492.618-252.148,492.618z M-252.148,503.082c-2.411,0-4.366-1.954-4.366-4.365
			c0-2.411,1.955-4.365,4.366-4.365s4.366,1.954,4.366,4.365C-247.782,501.127-249.737,503.082-252.148,503.082z"/>
	</g>
	<g>
		<path fill="#EC4348" d="M-252.592,475.24c15.32,0,27.811,10.638,28.457,23.973c0.02-0.366,0.031-0.734,0.031-1.105
			c0-13.839-12.755-25.057-28.488-25.057s-28.488,11.219-28.488,25.057c0,0.371,0.011,0.739,0.031,1.105
			C-280.403,485.878-267.912,475.24-252.592,475.24z"/>
	</g>
</g>
<g>
	<circle fill="#3FA9E2" cx="-210.725" cy="30.536" r="67.1"/>
	<circle fill="#FFFFFF" cx="-210.725" cy="30.536" r="60.326"/>
	<g>
		<path fill="#F4CC0C" d="M-171.281,12.717c-0.407-0.447-0.988-0.733-1.64-0.733h-4.571h-27.581h-11.279v0.007
			c-0.017-0.002-0.035-0.005-0.052-0.007h-27.54h-4.585c-0.61,0-1.162,0.247-1.564,0.644l-0.03,0.033
			c-0.016,0.017-0.029,0.037-0.045,0.055c-0.36,0.395-0.585,0.915-0.585,1.492v10.378c0,1.228,0.996,2.224,2.224,2.224h75.608
			c1.228,0,2.224-0.996,2.224-2.224V14.207C-170.697,13.632-170.922,13.112-171.281,12.717z"/>
		<path fill="#F4CC0C" d="M-174.033,63.501c0,1.228-0.996,2.224-2.224,2.224h-68.937c-1.228,0-2.224-0.996-2.224-2.224V21.62
			c0-1.228,0.996-2.224,2.224-2.224h68.937c1.228,0,2.224,0.996,2.224,2.224V63.501z"/>
		<g>
			<rect x="-247.417" y="26.809" fill="#FC9D0E" width="31.318" height="3.382"/>
			<rect x="-204.795" y="26.809" fill="#FC9D0E" width="30.762" height="3.382"/>
		</g>
		<rect x="-216.377" y="26.809" fill="#2487B2" width="11.304" height="3.382"/>
		<path fill="#3FA9E2" d="M-210.725,10.335"/>
		<path fill="#3FA9E2" d="M-216.377,11.653v15.156h11.304V11.653C-207.784,11.653-213.725,11.619-216.377,11.653z"/>
		<path fill="#3FA9E2" d="M-205.073,10.07V8.11h-11.304v1.96c2.589,0.339,4.669,0.473,5.653,0.473
			C-209.741,10.543-207.661,10.41-205.073,10.07z"/>
		<path fill="#3FA9E2" d="M-250.172,12.715l0.004,0c0.016-0.018,0.029-0.038,0.045-0.055L-250.172,12.715z"/>
		<path fill="#EC4348" d="M-216.352,10.045v1.939h11.279v-1.946c2.661-0.349,5.86-0.915,8.966-1.779
			c1.451-0.404,2.88-0.875,4.225-1.417h-37.678c1.35,0.545,2.786,1.018,4.244,1.424C-222.211,9.13-219.013,9.696-216.352,10.045z"/>
		<path fill="#FC9D0E" d="M-243.944,11.984h27.54c-4.286-0.565-9.95-1.693-14.369-3.718c-0.944-0.432-1.827-0.908-2.632-1.424
			h-11.418v0.132l-0.023-0.132l-5.247,5.787c0.402-0.398,0.954-0.644,1.564-0.644H-243.944z"/>
		<path fill="#FC9D0E" d="M-205.073,11.984h27.581h4.571c0.652,0,1.233,0.286,1.64,0.733l0.016-0.002l-5.326-5.874l-0.013,0.076
			V6.841h-11.428c-0.802,0.514-1.68,0.987-2.619,1.417C-195.088,10.291-200.781,11.421-205.073,11.984z"/>
		<path fill="#D87600" d="M-216.404,11.984h0.052v-1.939c-2.661-0.349-5.859-0.915-8.965-1.779
			c-1.458-0.406-2.893-0.879-4.244-1.424h-3.844c0.805,0.517,1.688,0.992,2.632,1.424C-226.354,10.29-220.69,11.419-216.404,11.984z
			"/>
		<path fill="#CD2C31" d="M-216.352,11.991v-0.007h-0.052C-216.387,11.986-216.369,11.989-216.352,11.991z"/>
		<path fill="#D87600" d="M-205.073,10.038v1.946c4.291-0.563,9.985-1.693,14.421-3.726c0.939-0.43,1.818-0.903,2.619-1.417h-3.851
			c-1.345,0.542-2.773,1.013-4.225,1.417C-199.213,9.123-202.412,9.689-205.073,10.038z"/>
		<rect x="-216.377" y="8.11" fill="#2487B2" width="11.304" height="3.874"/>
		<path fill="#3FA9E2" d="M-184.239-5.007c-1.613-3.716-4.885-5.847-8.977-5.847c-3.433,0-7.205,1.482-10.348,4.065
			c-3.036,2.494-5.481,5.906-7.161,8.672c-1.68-2.766-4.125-6.178-7.16-8.672c-3.143-2.583-6.916-4.065-10.349-4.065
			c-4.092,0-7.364,2.132-8.977,5.847c-1.006,2.319-0.88,4.624,0.366,6.666c4.348,7.123,22.531,8.89,26.121,8.89
			c3.59,0,21.771-1.767,26.119-8.89C-183.36-0.383-183.233-2.688-184.239-5.007z M-232.099-1.237
			c-0.194-0.318-0.371-0.727-0.011-1.557c0.74-1.706,1.972-2.501,3.876-2.501c2.136,0,4.685,1.048,6.819,2.802
			c2.345,1.927,4.327,4.651,5.748,6.951C-222.574,3.491-230.444,1.474-232.099-1.237z M-189.351-1.239
			c-1.676,2.749-9.462,4.747-16.443,5.705c1.419-2.298,3.401-5.023,5.759-6.96c2.134-1.754,4.683-2.802,6.818-2.802
			c1.904,0,3.136,0.795,3.877,2.501C-188.979-1.965-189.156-1.557-189.351-1.239z"/>
		<rect x="-216.377" y="30.191" fill="#3FA9E2" width="11.304" height="35.534"/>
	</g>
</g>
</svg>
