<?xml version="1.0" encoding="utf-8"?>
<!-- Generator: Adobe Illustrator 17.0.0, SVG Export Plug-In . SVG Version: 6.00 Build 0)  -->
<!DOCTYPE svg PUBLIC "-//W3C//DTD SVG 1.1//EN" "http://www.w3.org/Graphics/SVG/1.1/DTD/svg11.dtd">
<svg version="1.1" id="Layer_1" xmlns="http://www.w3.org/2000/svg" xmlns:xlink="http://www.w3.org/1999/xlink" x="0px" y="0px"
	 width="241.832px" height="253.981px" viewBox="0 0 241.832 253.981" enable-background="new 0 0 241.832 253.981"
	 xml:space="preserve">
<g>
	
		<rect x="7.356" y="2.237" fill="none" stroke="#FFFFFF" stroke-width="3" stroke-miterlimit="10" width="227.119" height="250.244"/>
	<rect x="0" y="0" fill="#FFFFFF" width="241.832" height="7.214"/>
	<g>
		<g>
			<path fill="none" stroke="#FFFFFF" stroke-width="3" stroke-miterlimit="10" d="M53.798,22.507
				c-12.314,0-22.296,9.982-22.296,22.296h44.592C76.094,32.489,66.111,22.507,53.798,22.507z"/>
		</g>
		
			<rect x="31.502" y="44.803" fill="none" stroke="#FFFFFF" stroke-width="3" stroke-miterlimit="10" width="44.592" height="47.945"/>
		<line fill="none" stroke="#FFFFFF" stroke-width="3" stroke-miterlimit="10" x1="53.798" y1="22.507" x2="53.798" y2="92.748"/>
		<polyline fill="none" stroke="#FFFFFF" stroke-width="3" stroke-miterlimit="10" points="38.436,28.652 53.798,44.803 
			69.554,29.047 		"/>
		<line fill="none" stroke="#FFFFFF" stroke-width="3" stroke-miterlimit="10" x1="31.502" y1="66.635" x2="76.094" y2="66.635"/>
	</g>
	<rect x="0" y="88.287" fill="#FFFFFF" width="241.832" height="7.214"/>
	<g>
		
			<rect x="31.502" y="110.267" fill="none" stroke="#FFFFFF" stroke-width="3" stroke-miterlimit="10" width="22.296" height="46.374"/>
		
			<rect x="53.995" y="110.267" fill="none" stroke="#FFFFFF" stroke-width="3" stroke-miterlimit="10" width="22.296" height="46.374"/>
		<rect x="26.349" y="153.55" fill="#FFFFFF" width="55.649" height="7.214"/>
	</g>
	<g>
		
			<rect x="31.502" y="178.97" fill="none" stroke="#FFFFFF" stroke-width="3" stroke-miterlimit="10" width="22.296" height="46.374"/>
		
			<rect x="53.995" y="178.97" fill="none" stroke="#FFFFFF" stroke-width="3" stroke-miterlimit="10" width="22.296" height="46.374"/>
		<rect x="26.349" y="222.252" fill="#FFFFFF" width="55.649" height="7.214"/>
	</g>
	<g>
		
			<rect x="161.725" y="178.97" fill="none" stroke="#FFFFFF" stroke-width="3" stroke-miterlimit="10" width="22.296" height="46.374"/>
		
			<rect x="184.218" y="178.97" fill="none" stroke="#FFFFFF" stroke-width="3" stroke-miterlimit="10" width="22.296" height="46.374"/>
		<rect x="156.572" y="222.252" fill="#FFFFFF" width="55.649" height="7.214"/>
	</g>
	<g>
		<g>
			<path fill="none" stroke="#FFFFFF" stroke-width="3" stroke-miterlimit="10" d="M120.54,22.507
				c-12.314,0-22.296,9.982-22.296,22.296h44.592C142.836,32.489,132.854,22.507,120.54,22.507z"/>
		</g>
		
			<rect x="98.244" y="44.803" fill="none" stroke="#FFFFFF" stroke-width="3" stroke-miterlimit="10" width="44.592" height="47.945"/>
		<line fill="none" stroke="#FFFFFF" stroke-width="3" stroke-miterlimit="10" x1="120.54" y1="22.507" x2="120.54" y2="92.748"/>
		<polyline fill="none" stroke="#FFFFFF" stroke-width="3" stroke-miterlimit="10" points="105.179,28.652 120.54,44.803 
			136.297,29.047 		"/>
		<line fill="none" stroke="#FFFFFF" stroke-width="3" stroke-miterlimit="10" x1="98.244" y1="66.635" x2="142.836" y2="66.635"/>
	</g>
	<g>
		
			<rect x="98.244" y="110.267" fill="none" stroke="#FFFFFF" stroke-width="3" stroke-miterlimit="10" width="22.296" height="46.374"/>
		
			<rect x="120.738" y="110.267" fill="none" stroke="#FFFFFF" stroke-width="3" stroke-miterlimit="10" width="22.296" height="46.374"/>
		<rect x="93.092" y="153.55" fill="#FFFFFF" width="55.649" height="7.214"/>
	</g>
	<g>
		<g>
			<path fill="none" stroke="#FFFFFF" stroke-width="3" stroke-miterlimit="10" d="M184.397,22.507
				c-12.314,0-22.296,9.982-22.296,22.296h44.592C206.693,32.489,196.711,22.507,184.397,22.507z"/>
		</g>
		
			<rect x="162.101" y="44.803" fill="none" stroke="#FFFFFF" stroke-width="3" stroke-miterlimit="10" width="44.592" height="47.945"/>
		<line fill="none" stroke="#FFFFFF" stroke-width="3" stroke-miterlimit="10" x1="184.397" y1="22.507" x2="184.397" y2="92.748"/>
		<polyline fill="none" stroke="#FFFFFF" stroke-width="3" stroke-miterlimit="10" points="169.035,28.652 184.397,44.803 
			200.153,29.047 		"/>
		<line fill="none" stroke="#FFFFFF" stroke-width="3" stroke-miterlimit="10" x1="162.101" y1="66.635" x2="206.693" y2="66.635"/>
	</g>
	<g>
		
			<rect x="162.101" y="110.267" fill="none" stroke="#FFFFFF" stroke-width="3" stroke-miterlimit="10" width="22.296" height="46.374"/>
		
			<rect x="184.594" y="110.267" fill="none" stroke="#FFFFFF" stroke-width="3" stroke-miterlimit="10" width="22.296" height="46.374"/>
		<rect x="156.948" y="153.55" fill="#FFFFFF" width="55.649" height="7.214"/>
	</g>
	
		<rect x="98.244" y="178.97" fill="none" stroke="#FFFFFF" stroke-width="3" stroke-miterlimit="10" width="44.789" height="73.511"/>
	<line fill="none" stroke="#FFFFFF" stroke-width="3" stroke-miterlimit="10" x1="98.244" y1="192.71" x2="143.033" y2="192.71"/>
	<line fill="none" stroke="#FFFFFF" stroke-width="3" stroke-miterlimit="10" x1="120.54" y1="192.71" x2="120.54" y2="252.481"/>
	
		<rect x="114.499" y="215.726" fill="none" stroke="#FFFFFF" stroke-width="3" stroke-miterlimit="10" width="12.155" height="14.084"/>
</g>
</svg>
