<?xml version="1.0" encoding="utf-8"?>
<!-- Generator: Adobe Illustrator 17.0.0, SVG Export Plug-In . SVG Version: 6.00 Build 0)  -->
<!DOCTYPE svg PUBLIC "-//W3C//DTD SVG 1.1//EN" "http://www.w3.org/Graphics/SVG/1.1/DTD/svg11.dtd">
<svg version="1.1" id="Layer_1" xmlns="http://www.w3.org/2000/svg" xmlns:xlink="http://www.w3.org/1999/xlink" x="0px" y="0px"
	 width="49.17px" height="132.152px" viewBox="0 0 49.17 132.152" enable-background="new 0 0 49.17 132.152" xml:space="preserve">
<g>
	<circle fill="#FD5459" cx="23.943" cy="10.782" r="10.782"/>
	<path fill="#FD5459" d="M11.196,126.107c0,3.336,2.709,6.045,6.045,6.045c3.342,0,6.047-2.709,6.047-6.045l0.005-50.712h2.692
		l-0.017,50.712c0,3.336,2.707,6.045,6.045,6.045s6.043-2.709,6.043-6.045l0.027-87.429h2.651v32.219c0,6.482,8.455,6.482,8.437,0
		V37.991c0-7.16-4.208-14.177-12.585-14.177l-24.168-0.011C4.782,23.803,0,30.027,0,37.794v33.104c0,6.434,8.501,6.434,8.501,0
		V38.679h2.706L11.196,126.107z"/>
</g>
</svg>
