<?xml version="1.0" encoding="utf-8"?>
<!-- Generator: Adobe Illustrator 17.0.0, SVG Export Plug-In . SVG Version: 6.00 Build 0)  -->
<!DOCTYPE svg PUBLIC "-//W3C//DTD SVG 1.1//EN" "http://www.w3.org/Graphics/SVG/1.1/DTD/svg11.dtd">
<svg version="1.1" id="Layer_1" xmlns="http://www.w3.org/2000/svg" xmlns:xlink="http://www.w3.org/1999/xlink" x="0px" y="0px"
	 width="84.118px" height="97.09px" viewBox="0 0 84.118 97.09" enable-background="new 0 0 84.118 97.09" xml:space="preserve">
<g>
	<polygon fill="none" stroke="#FFFFFF" stroke-width="3" stroke-miterlimit="10" points="78.618,1.5 15.5,1.5 1.5,1.5 1.5,5.5 
		1.5,74.5 1.5,78.5 30.371,78.5 42.059,94.542 53.747,78.5 82.618,78.5 82.618,74.5 82.618,5.5 82.618,1.5 	"/>
	<g>
		<polygon fill="#FFFFFF" points="35.711,30.168 29.425,30.168 29.425,23.881 25.694,23.881 25.694,30.168 19.407,30.168 
			19.407,33.9 25.694,33.9 25.694,40.186 29.425,40.186 29.425,33.9 35.711,33.9 		"/>
		<g>
			<circle fill="#FFFFFF" cx="49.407" cy="32.034" r="6.167"/>
			<path fill="#FFFFFF" d="M56.637,39.488l-13.824-0.006c-4.367,0-7.102,3.56-7.102,8.003v10.689h4.863V47.991h1.548l-0.001,10.183
				h15.37l0.003-10.184h1.516v10.184h4.826V47.597C63.836,43.501,61.429,39.488,56.637,39.488z"/>
		</g>
	</g>
</g>
</svg>
