<?xml version="1.0" encoding="utf-8"?>
<!-- Generator: Adobe Illustrator 17.0.0, SVG Export Plug-In . SVG Version: 6.00 Build 0)  -->
<!DOCTYPE svg PUBLIC "-//W3C//DTD SVG 1.1//EN" "http://www.w3.org/Graphics/SVG/1.1/DTD/svg11.dtd">
<svg version="1.1" id="Layer_1" xmlns="http://www.w3.org/2000/svg" xmlns:xlink="http://www.w3.org/1999/xlink" x="0px" y="0px"
	 width="132.118px" height="97.09px" viewBox="0 0 132.118 97.09" enable-background="new 0 0 132.118 97.09" xml:space="preserve">
<g>
	<g>
		
			<rect x="20.732" y="22.537" fill="none" stroke="#FFFFFF" stroke-width="3" stroke-miterlimit="10" width="37.295" height="37.295"/>
		<g>
			<circle fill="#FFFFFF" cx="39.038" cy="34.764" r="5.734"/>
			<path fill="#FFFFFF" d="M45.76,41.694l-12.851-0.006c-4.059,0-6.603,3.31-6.603,7.44v9.938h4.521v-9.467h1.439l-0.001,9.467
				h14.289l0.003-9.467h1.41v9.467h4.486v-9.833C52.452,45.425,50.215,41.694,45.76,41.694z"/>
		</g>
		<rect x="67.592" y="22.537" fill="#FFFFFF" width="45.649" height="4.537"/>
		<rect x="67.592" y="32.227" fill="#FFFFFF" width="27.824" height="4.537"/>
		<rect x="67.592" y="42.229" fill="#FFFFFF" width="27.824" height="4.537"/>
		<rect x="67.592" y="56.797" fill="#FFFFFF" width="45.649" height="4.537"/>
	</g>
	<polygon fill="none" stroke="#FFFFFF" stroke-width="3" stroke-miterlimit="10" points="126.618,1.5 5.5,1.5 1.5,1.5 1.5,5.5 
		1.5,74.5 1.5,78.5 54.371,78.5 66.059,94.542 77.747,78.5 130.618,78.5 130.618,74.5 130.618,5.5 130.618,1.5 	"/>
</g>
</svg>
