<?xml version="1.0" encoding="utf-8"?>
<!-- Generator: Adobe Illustrator 17.0.0, SVG Export Plug-In . SVG Version: 6.00 Build 0)  -->
<!DOCTYPE svg PUBLIC "-//W3C//DTD SVG 1.1//EN" "http://www.w3.org/Graphics/SVG/1.1/DTD/svg11.dtd">
<svg version="1.1" id="Layer_1" xmlns="http://www.w3.org/2000/svg" xmlns:xlink="http://www.w3.org/1999/xlink" x="0px" y="0px"
	 width="79.7px" height="100.3px" viewBox="0 0 79.7 100.3" style="enable-background:new 0 0 79.7 100.3;" xml:space="preserve">
<style type="text/css">
	.st0{fill:#2DCC70;}
	.st1{fill:#20A056;}
	.st2{fill:#0D7F3B;}
	.st3{fill:#F75A92;}
	.st4{fill:#CC3E78;}
	.st5{fill:#B22465;}
	.st6{fill:#FFFFFF;}
	.st7{fill:#FC9D0E;}
	.st8{fill:#D87600;}
	.st9{fill:#B25D00;}
	.st10{fill:#217CCE;}
	.st11{fill:#0063AD;}
	.st12{fill:#005182;}
	.st13{fill:#353E4C;}
	.st14{fill:#1A2433;}
	.st15{fill:#050B14;}
	.st16{fill:#FFFFFF;stroke:#FFFFFF;stroke-miterlimit:10;}
	.st17{fill:#272727;}
	.st18{fill:#EC4348;}
	.st19{fill:#FD7174;}
	.st20{fill:#FCA2A4;}
	.st21{fill:#CD2C31;}
	.st22{fill:none;stroke:#FFFFFF;stroke-width:3;stroke-miterlimit:10;}
	.st23{fill:none;stroke:#FFFFFF;stroke-width:2;stroke-miterlimit:10;}
</style>
<g>
	<path class="st0" d="M59.9,0H1.6C0.7,0,0,0.7,0,1.6v97.1c0,0.9,0.7,1.6,1.6,1.6h76.5c0.9,0,1.6-0.7,1.6-1.6V19.8L59.9,0z"/>
	<path class="st1" d="M59.9,18.2c0,0.9,0.7,1.6,1.6,1.6h18.2L59.9,0V18.2z"/>
	<g>
		<path class="st2" d="M61.5,19.9c-0.9,0-1.6-0.7-1.6-1.6v1.5c0,0.9,0.7,1.6,1.6,1.6h18.2v-1.5H61.5z"/>
	</g>
</g>
<g>
	<ellipse class="st17" cx="19.7" cy="32.1" rx="8.7" ry="5.4"/>
	<ellipse class="st17" cx="52.5" cy="36.1" rx="8.7" ry="5.4"/>
	<ellipse class="st17" cx="60" cy="57.9" rx="8.7" ry="5.4"/>
	<ellipse class="st17" cx="51.3" cy="77.4" rx="8.7" ry="5.4"/>
	<ellipse class="st17" cx="19.7" cy="80" rx="8.7" ry="5.4"/>
	<ellipse class="st17" cx="24.7" cy="52.8" rx="11" ry="6.9"/>
	<polygon class="st17" points="18.7,36.6 24.9,49.4 28.5,48.6 23,35.4 	"/>
	<polygon class="st17" points="20.5,67.6 23.6,57.1 28.5,55.6 24.1,68.4 21.6,69.4 	"/>
	<polygon class="st17" points="34.6,52.6 46.3,54.4 45.5,57.6 33.4,55.6 	"/>
	<polygon class="st17" points="38.6,42 30.6,48.1 32.9,51 40.8,45 40.8,42.9 	"/>
	<path class="st17" d="M31.7,57.6c0,0,0,8,8.1,11.6l-0.4,2.4h-2.3c0,0-8.5-5.3-8.6-13.1L31.7,57.6z"/>
	<polygon class="st17" points="36.1,40.6 44.7,39.7 41.1,47.6 39.7,43.3 	"/>
	<polygon class="st17" points="44.3,51.3 50.9,56.9 42.8,59.8 44.9,55.8 	"/>
	<polygon class="st17" points="40.1,66.5 43.3,74.5 34.8,73.3 38.5,70.7 	"/>
	<polygon class="st17" points="26.5,68.3 20.1,74.1 18.3,65.7 22,68.2 	"/>
</g>
</svg>
