<?xml version="1.0" encoding="utf-8"?>
<!-- Generator: Adobe Illustrator 17.0.0, SVG Export Plug-In . SVG Version: 6.00 Build 0)  -->
<!DOCTYPE svg PUBLIC "-//W3C//DTD SVG 1.1//EN" "http://www.w3.org/Graphics/SVG/1.1/DTD/svg11.dtd">
<svg version="1.1" id="Layer_1" xmlns="http://www.w3.org/2000/svg" xmlns:xlink="http://www.w3.org/1999/xlink" x="0px" y="0px"
	 width="474.1px" height="259.8px" viewBox="0 0 474.1 259.8" style="enable-background:new 0 0 474.1 259.8;" xml:space="preserve"
	>
<style type="text/css">
	.st0{fill:#2DCC70;}
	.st1{fill:#20A056;}
	.st2{fill:#0D7F3B;}
	.st3{fill:#F75A92;}
	.st4{fill:#CC3E78;}
	.st5{fill:#B22465;}
	.st6{fill:#FFFFFF;}
	.st7{fill:#FC9D0E;}
	.st8{fill:#D87600;}
	.st9{fill:#B25D00;}
	.st10{fill:#217CCE;}
	.st11{fill:#0063AD;}
	.st12{fill:#005182;}
	.st13{fill:#353E4C;}
	.st14{fill:#1A2433;}
	.st15{fill:#050B14;}
	.st16{fill:#FFFFFF;stroke:#FFFFFF;stroke-miterlimit:10;}
	.st17{fill:#272727;}
	.st18{fill:#EC4348;}
	.st19{fill:#FD7174;}
	.st20{fill:#FCA2A4;}
	.st21{fill:#CD2C31;}
	.st22{fill:none;stroke:#FFFFFF;stroke-width:3;stroke-miterlimit:10;}
	.st23{fill:none;stroke:#FFFFFF;stroke-width:2;stroke-miterlimit:10;}
	.st24{fill:#F4CC0C;}
	.st25{fill:#E6E2E1;}
</style>
<path class="st25" d="M414.2,235.2V10.5c0-5.8-4.7-10.5-10.5-10.5H230.3H70.4c-5.8,0-10.5,4.7-10.5,10.5v224.7H0v16.6h0.7
	c1.7,2.1,8,8,24.7,8h423.1c16.8,0,23-5.9,24.7-8h0.7v-16.6H414.2z"/>
<g>
	<g>
		<g>
			<path class="st6" d="M62.9,236.7h-3V10.5C59.9,4.7,64.6,0,70.4,0h159.9v3H70.4c-4.1,0-7.5,3.4-7.5,7.5V236.7z"/>
		</g>
	</g>
	<g>
		<path class="st23" d="M230.3,1.5"/>
	</g>
	<g>
		<g>
			<path class="st6" d="M414.2,236.7h-3V10.5c0-4.1-3.4-7.5-7.5-7.5H230.3V0h173.4c5.8,0,10.5,4.7,10.5,10.5V236.7z"/>
		</g>
	</g>
	<g>
		<path class="st6" d="M474.1,251.8H0v-16.6h474.1V251.8z M3,248.8h468.1v-10.6H3V248.8z"/>
	</g>
	<g>
		<path class="st6" d="M448.6,259.8H25.5c-20.1,0-25.1-8.4-25.3-8.8l2.6-1.5c0,0.1,4.5,7.2,22.7,7.2h423.1c18.1,0,22.6-7.2,22.7-7.2
			l2.6,1.5C473.7,251.4,468.7,259.8,448.6,259.8z"/>
	</g>
	<g>
		<path class="st6" d="M257.9,245h-42.7c-3.5,0-6.1-1-7.7-2.9c-2-2.5-1.4-5.6-1.4-5.7l2.9,0.6c0,0-0.3,1.9,0.8,3.3
			c1,1.2,2.8,1.8,5.4,1.8h42.7c2.6,0,4.4-0.6,5.4-1.8c1.1-1.4,0.8-3.2,0.8-3.2l2.9-0.6c0,0.1,0.6,3.2-1.4,5.7
			C264,244,261.4,245,257.9,245z"/>
	</g>
	<g>
		<path class="st6" d="M399,226.5H75V17.1h324V226.5z M78,223.5h318V20.1H78V223.5z"/>
	</g>
	<g>
		<path class="st23" d="M230.3,1.5"/>
	</g>
	<g>
		<path class="st6" d="M459.9,243.5c0,1.1-0.9,2.1-2.1,2.1h-21.9c-1.1,0-2.1-0.9-2.1-2.1l0,0c0-1.1,0.9-2.1,2.1-2.1h21.9
			C458.9,241.4,459.9,242.4,459.9,243.5L459.9,243.5z"/>
	</g>
</g>
</svg>
