<?xml version="1.0" encoding="utf-8"?>
<!-- Generator: Adobe Illustrator 17.0.0, SVG Export Plug-In . SVG Version: 6.00 Build 0)  -->
<!DOCTYPE svg PUBLIC "-//W3C//DTD SVG 1.1//EN" "http://www.w3.org/Graphics/SVG/1.1/DTD/svg11.dtd">
<svg version="1.1" id="Layer_1" xmlns="http://www.w3.org/2000/svg" xmlns:xlink="http://www.w3.org/1999/xlink" x="0px" y="0px"
	 width="79.7px" height="100.3px" viewBox="0 0 79.7 100.3" style="enable-background:new 0 0 79.7 100.3;" xml:space="preserve">
<style type="text/css">
	.st0{fill:#2DCC70;}
	.st1{fill:#20A056;}
	.st2{fill:#0D7F3B;}
	.st3{fill:#F75A92;}
	.st4{fill:#CC3E78;}
	.st5{fill:#B22465;}
	.st6{fill:#FFFFFF;}
	.st7{fill:#FC9D0E;}
	.st8{fill:#D87600;}
	.st9{fill:#B25D00;}
	.st10{fill:#217CCE;}
	.st11{fill:#0063AD;}
	.st12{fill:#005182;}
	.st13{fill:#353E4C;}
	.st14{fill:#1A2433;}
	.st15{fill:#050B14;}
	.st16{fill:#FFFFFF;stroke:#FFFFFF;stroke-miterlimit:10;}
	.st17{fill:#272727;}
	.st18{fill:#EC4348;}
	.st19{fill:#FD7174;}
	.st20{fill:#FCA2A4;}
	.st21{fill:#CD2C31;}
	.st22{fill:none;stroke:#FFFFFF;stroke-width:3;stroke-miterlimit:10;}
	.st23{fill:none;stroke:#FFFFFF;stroke-width:2;stroke-miterlimit:10;}
</style>
<g>
	<path class="st13" d="M59.9,0H1.6C0.7,0,0,0.7,0,1.6v97.1c0,0.9,0.7,1.6,1.6,1.6h76.5c0.9,0,1.6-0.7,1.6-1.6V19.8L59.9,0z"/>
	<path class="st14" d="M59.9,18.2c0,0.9,0.7,1.6,1.6,1.6h18.2L59.9,0V18.2z"/>
	<g>
		<path class="st15" d="M61.5,19.9c-0.9,0-1.6-0.7-1.6-1.6v1.5c0,0.9,0.7,1.6,1.6,1.6h18.2v-1.5H61.5z"/>
	</g>
</g>
<g>
	<path class="st16" d="M10.9,58.3l12.2-9.7c0.2-0.1,0.4-0.2,0.7-0.2c0.7,0,1.2,0.5,1.2,1.2c0,0.3-0.1,0.7-0.5,1l-11.3,8.7L24.5,68
		c0.3,0.3,0.5,0.6,0.5,1c0,0.7-0.5,1.2-1.2,1.2c-0.3,0-0.5-0.1-0.7-0.2l-12.2-9.7c-0.3-0.2-0.6-0.5-0.6-1
		C10.4,58.8,10.6,58.5,10.9,58.3z"/>
	<path class="st16" d="M44.3,37.9c0.2-0.7,0.8-1,1.3-1c0.8,0,1.4,0.6,1.4,1.4c0,0.2,0,0.4-0.1,0.7L35.4,72.8c-0.2,0.7-0.8,1-1.3,1
		c-0.8,0-1.4-0.6-1.4-1.4c0-0.2,0-0.4,0.1-0.7L44.3,37.9z"/>
	<path class="st16" d="M68.8,60.3l-12.2,9.7c-0.2,0.1-0.4,0.2-0.7,0.2c-0.7,0-1.2-0.5-1.2-1.2c0-0.3,0.1-0.7,0.5-1l11.3-8.7
		l-11.3-8.7c-0.3-0.3-0.5-0.6-0.5-1c0-0.7,0.5-1.2,1.2-1.2c0.3,0,0.5,0.1,0.7,0.2l12.2,9.7c0.3,0.2,0.6,0.5,0.6,1
		C69.4,59.8,69.1,60.1,68.8,60.3z"/>
</g>
</svg>
