<?xml version="1.0" encoding="utf-8"?>
<!-- Generator: Adobe Illustrator 17.0.0, SVG Export Plug-In . SVG Version: 6.00 Build 0)  -->
<!DOCTYPE svg PUBLIC "-//W3C//DTD SVG 1.1//EN" "http://www.w3.org/Graphics/SVG/1.1/DTD/svg11.dtd">
<svg version="1.1" id="Layer_1" xmlns="http://www.w3.org/2000/svg" xmlns:xlink="http://www.w3.org/1999/xlink" x="0px" y="0px"
	 width="79.7px" height="100.3px" viewBox="0 0 79.7 100.3" style="enable-background:new 0 0 79.7 100.3;" xml:space="preserve">
<style type="text/css">
	.st0{fill:#2DCC70;}
	.st1{fill:#20A056;}
	.st2{fill:#0D7F3B;}
	.st3{fill:#F75A92;}
	.st4{fill:#CC3E78;}
	.st5{fill:#B22465;}
	.st6{fill:#FFFFFF;}
	.st7{fill:#FC9D0E;}
	.st8{fill:#D87600;}
	.st9{fill:#B25D00;}
	.st10{fill:#217CCE;}
	.st11{fill:#0063AD;}
	.st12{fill:#005182;}
	.st13{fill:#353E4C;}
	.st14{fill:#1A2433;}
	.st15{fill:#050B14;}
	.st16{fill:#FFFFFF;stroke:#FFFFFF;stroke-miterlimit:10;}
	.st17{fill:#272727;}
	.st18{fill:#EC4348;}
	.st19{fill:#FD7174;}
	.st20{fill:#FCA2A4;}
	.st21{fill:#CD2C31;}
	.st22{fill:none;stroke:#FFFFFF;stroke-width:3;stroke-miterlimit:10;}
	.st23{fill:none;stroke:#FFFFFF;stroke-width:2;stroke-miterlimit:10;}
</style>
<g>
	<path class="st3" d="M59.9,0H1.6C0.7,0,0,0.7,0,1.6v97.1c0,0.9,0.7,1.6,1.6,1.6h76.5c0.9,0,1.6-0.7,1.6-1.6V19.8L59.9,0z"/>
	<path class="st4" d="M59.9,18.2c0,0.9,0.7,1.6,1.6,1.6h18.2L59.9,0V18.2z"/>
	<g>
		<path class="st5" d="M61.5,19.9c-0.9,0-1.6-0.7-1.6-1.6v1.5c0,0.9,0.7,1.6,1.6,1.6h18.2v-1.5H61.5z"/>
	</g>
</g>
<g>
	<path class="st6" d="M64.2,30v48.6H15.6V30H64.2 M68.2,26H11.6v56.6h56.6V26L68.2,26z"/>
</g>
<g>
	<path class="st6" d="M32.7,42.5v27h-4.9v-27H32.7z"/>
	<path class="st6" d="M54.2,41v23c0,2,0.1,4.2,0.2,5.5h-4.4l-0.2-3.1h-0.1c-1.2,2.2-3.5,3.5-6.4,3.5c-4.7,0-8.3-4-8.3-10
		c0-6.5,4.1-10.4,8.7-10.4c2.7,0,4.6,1.1,5.5,2.6h0.1V41H54.2z M49.2,58.1c0-0.4,0-0.9-0.1-1.3c-0.4-1.9-2-3.5-4.3-3.5
		c-3.2,0-4.9,2.8-4.9,6.5c0,3.6,1.8,6.2,4.9,6.2c2,0,3.8-1.4,4.3-3.5c0.1-0.4,0.2-0.9,0.2-1.4V58.1z"/>
</g>
</svg>
