<?xml version="1.0" encoding="utf-8"?>
<!-- Generator: Adobe Illustrator 17.0.0, SVG Export Plug-In . SVG Version: 6.00 Build 0)  -->
<!DOCTYPE svg PUBLIC "-//W3C//DTD SVG 1.1//EN" "http://www.w3.org/Graphics/SVG/1.1/DTD/svg11.dtd">
<svg version="1.1" id="Layer_1" xmlns="http://www.w3.org/2000/svg" xmlns:xlink="http://www.w3.org/1999/xlink" x="0px" y="0px"
	 width="78.7px" height="105.9px" viewBox="0 0 78.7 105.9" style="enable-background:new 0 0 78.7 105.9;" xml:space="preserve">
<style type="text/css">
	.st0{fill:#E6E2E1;}
	.st1{fill:#F0F3F4;}
	.st2{fill:#414141;}
	.st3{fill:#C03527;}
	.st4{fill:#F39C12;}
	.st5{fill:#27AE60;}
	.st6{fill:#373737;}
	.st7{fill:#FCA2A4;}
	.st8{fill:#5DBF87;}
	.st9{fill:#FFFFFF;}
	.st10{fill:#F4CC0C;}
	.st11{fill:#EE634C;}
	.st12{fill:none;stroke:#FFFFFF;stroke-width:3;stroke-miterlimit:10;}
	.st13{fill:none;stroke:#FFFFFF;stroke-width:3;stroke-linecap:round;stroke-miterlimit:10;}
	.st14{fill:#FD7174;}
	.st15{fill:#EC4348;}
	.st16{fill:#FD5459;}
	.st17{fill:#5D5D5D;}
	.st18{fill:#2DCC70;}
	.st19{fill:#D4D8D8;}
	.st20{fill:#C9CED1;}
	.st21{fill:#CD2C31;}
	.st22{fill:#20A056;}
	.st23{fill:none;stroke:#E6E2E1;stroke-width:4;stroke-miterlimit:10;}
	.st24{fill:none;stroke:#EC4348;stroke-miterlimit:10;}
	.st25{fill:none;stroke:#FFFFFF;stroke-width:4;stroke-miterlimit:10;}
	.st26{fill:none;stroke:#FFFFFF;stroke-miterlimit:10;}
	.st27{fill:none;stroke:#20A056;stroke-miterlimit:10;}
</style>
<g>
	<g>
		<path class="st7" d="M52.6,0H2.1C0.9,0,0,0.9,0,2.1v101.7c0,1.2,0.9,2.1,2.1,2.1h74.5c1.2,0,2.1-0.9,2.1-2.1V26.1L52.6,0z"/>
		<path class="st14" d="M52.6,24c0,1.2,0.9,2.1,2.1,2.1h24L52.6,0V24z"/>
		<g>
			<path class="st15" d="M54.8,26.2c-1.2,0-2.1-0.9-2.1-2.1V26c0,1.2,0.9,2.1,2.1,2.1h24v-1.9H54.8z"/>
		</g>
	</g>
	<rect x="10.3" y="24.5" class="st9" width="21" height="4.7"/>
	<rect x="10.3" y="46.6" class="st9" width="58.6" height="4.7"/>
	<rect x="10.3" y="37.8" class="st9" width="58.6" height="4.7"/>
	<rect x="10.3" y="55.6" class="st9" width="58.6" height="4.7"/>
	<rect x="10.3" y="64.5" class="st9" width="58.6" height="4.7"/>
	<rect x="10.3" y="73.4" class="st9" width="58.6" height="4.7"/>
	<rect x="48" y="84.8" class="st9" width="21" height="4.7"/>
</g>
</svg>
