<?xml version="1.0" encoding="utf-8"?>
<!-- Generator: Adobe Illustrator 17.0.0, SVG Export Plug-In . SVG Version: 6.00 Build 0)  -->
<!DOCTYPE svg PUBLIC "-//W3C//DTD SVG 1.1//EN" "http://www.w3.org/Graphics/SVG/1.1/DTD/svg11.dtd">
<svg version="1.1" id="Layer_1" xmlns="http://www.w3.org/2000/svg" xmlns:xlink="http://www.w3.org/1999/xlink" x="0px" y="0px"
	 width="86.1px" height="105.1px" viewBox="0 0 86.1 105.1" style="enable-background:new 0 0 86.1 105.1;" xml:space="preserve">
<style type="text/css">
	.st0{fill:#E6E2E1;}
	.st1{fill:#F0F3F4;}
	.st2{fill:#414141;}
	.st3{fill:#C03527;}
	.st4{fill:#F39C12;}
	.st5{fill:#27AE60;}
	.st6{fill:#373737;}
	.st7{fill:#FCA2A4;}
	.st8{fill:#5DBF87;}
	.st9{fill:#FFFFFF;}
	.st10{fill:#F4CC0C;}
	.st11{fill:#EE634C;}
	.st12{fill:none;stroke:#FFFFFF;stroke-width:3;stroke-miterlimit:10;}
	.st13{fill:none;stroke:#FFFFFF;stroke-width:3;stroke-linecap:round;stroke-miterlimit:10;}
	.st14{fill:#FD7174;}
	.st15{fill:#EC4348;}
	.st16{fill:#FD5459;}
	.st17{fill:#5D5D5D;}
	.st18{fill:#2DCC70;}
	.st19{fill:#D4D8D8;}
	.st20{fill:#C9CED1;}
	.st21{fill:#CD2C31;}
	.st22{fill:#20A056;}
	.st23{fill:none;stroke:#E6E2E1;stroke-width:4;stroke-miterlimit:10;}
	.st24{fill:none;stroke:#EC4348;stroke-miterlimit:10;}
	.st25{fill:none;stroke:#FFFFFF;stroke-width:4;stroke-miterlimit:10;}
	.st26{fill:none;stroke:#FFFFFF;stroke-miterlimit:10;}
	.st27{fill:none;stroke:#20A056;stroke-miterlimit:10;}
</style>
<g>
	<polygon class="st9" points="16.8,61.5 8.8,61.5 4.9,61.5 4.9,4.9 61.5,4.9 61.5,35.7 61.5,38.7 61.5,38.7 66.4,38.7 66.4,38.7 
		66.4,38.7 66.4,35.7 66.4,35.7 66.4,0 0,0 0,66.4 16.8,66.4 19.6,66.4 19.6,61.5 	"/>
	<path class="st12" d="M19.4,49.7c-0.9,0.3-1.8,0.7-2.6,1c-4.9,2-8,4-8,5.4c0,1.6,0,5.5,0,5.5h8h2.8V49.6
		C19.5,49.6,19.5,49.6,19.4,49.7z"/>
	<path class="st12" d="M39.8,38.7c0.5-0.6,1.1-1.4,1.5-3c0.1-0.3,0.1-0.6,0.2-0.9c0.4-1.9,2.1,0,2.4-4.4c0-1.7-0.9-2.2-0.9-2.2
		s0.5-2.6,0.7-4.6c0.2-2.5-1.4-8.9-10.3-8.9c-8.9,0-10.6,6.4-10.3,8.9c0.2,2,0.7,4.6,0.7,4.6s-0.9,0.4-0.9,2.2
		c0.3,4.4,2.1,2.5,2.4,4.4c0.1,0.3,0.1,0.6,0.2,0.9c0.4,1.6,1,2.4,1.5,3c0,0,0,0,0,0L39.8,38.7C39.7,38.7,39.8,38.7,39.8,38.7z"/>
	<g>
		<path class="st9" d="M66.4,38.7h-4.9H39.7h-13h-7.1v10.9v11.9v4.9v38.7h66.4V38.7H66.4z M81.1,100.2H24.6V43.6h56.6V100.2z"/>
	</g>
	<polygon class="st12" points="64.9,63 50.9,82.3 49,84.8 49,84.8 46.9,81.8 38.2,69.9 24.6,88.7 24.6,100.2 37.3,100.2 37.9,100.2 
		56.4,100.2 81.1,100.2 81.1,85.4 	"/>
	<circle class="st12" cx="42.5" cy="56.3" r="6.6"/>
</g>
</svg>
