<?xml version="1.0" encoding="utf-8"?>
<!-- Generator: Adobe Illustrator 17.0.0, SVG Export Plug-In . SVG Version: 6.00 Build 0)  -->
<!DOCTYPE svg PUBLIC "-//W3C//DTD SVG 1.1//EN" "http://www.w3.org/Graphics/SVG/1.1/DTD/svg11.dtd">
<svg version="1.1" id="Layer_1" xmlns="http://www.w3.org/2000/svg" xmlns:xlink="http://www.w3.org/1999/xlink" x="0px" y="0px"
	 width="107.5px" height="107.4px" viewBox="0 0 107.5 107.4" style="enable-background:new 0 0 107.5 107.4;" xml:space="preserve"
	>
<style type="text/css">
	.st0{fill:#E6E2E1;}
	.st1{fill:#F0F3F4;}
	.st2{fill:#414141;}
	.st3{fill:#C03527;}
	.st4{fill:#F39C12;}
	.st5{fill:#27AE60;}
	.st6{fill:#373737;}
	.st7{fill:#FCA2A4;}
	.st8{fill:#5DBF87;}
	.st9{fill:#FFFFFF;}
	.st10{fill:#F4CC0C;}
	.st11{fill:#EE634C;}
	.st12{fill:none;stroke:#FFFFFF;stroke-width:3;stroke-miterlimit:10;}
	.st13{fill:none;stroke:#FFFFFF;stroke-width:3;stroke-linecap:round;stroke-miterlimit:10;}
	.st14{fill:#FD7174;}
	.st15{fill:#EC4348;}
	.st16{fill:#FD5459;}
	.st17{fill:#5D5D5D;}
	.st18{fill:#2DCC70;}
	.st19{fill:#D4D8D8;}
	.st20{fill:#C9CED1;}
	.st21{fill:#CD2C31;}
	.st22{fill:#20A056;}
	.st23{fill:none;stroke:#E6E2E1;stroke-width:4;stroke-miterlimit:10;}
	.st24{fill:none;stroke:#EC4348;stroke-miterlimit:10;}
	.st25{fill:none;stroke:#FFFFFF;stroke-width:4;stroke-miterlimit:10;}
	.st26{fill:none;stroke:#FFFFFF;stroke-miterlimit:10;}
	.st27{fill:none;stroke:#20A056;stroke-miterlimit:10;}
</style>
<g>
	<g>
		<path class="st17" d="M28.9,106.6c-1.2,1.2-3.1,1.2-4.2,0l0,0c-1.2-1.2-1.2-3.1,0-4.2l31.2-31.2c1.2-1.2,3.1-1.2,4.2,0l0,0
			c1.2,1.2,1.2,3.1,0,4.2L28.9,106.6z"/>
		<path class="st17" d="M78.6,106.6c1.2,1.2,3.1,1.2,4.2,0l0,0c1.2-1.2,1.2-3.1,0-4.2L51.7,71.2c-1.2-1.2-3.1-1.2-4.2,0l0,0
			c-1.2,1.2-1.2,3.1,0,4.2L78.6,106.6z"/>
	</g>
	<path class="st9" d="M107.5,84.1c0,2.2-1.8,4-4,4H4c-2.2,0-4-1.8-4-4V4c0-2.2,1.8-4,4-4h99.5c2.2,0,4,1.8,4,4V84.1z"/>
	<g>
		<path class="st14" d="M80.2,44.1V62H62.3c0,9.9,8,17.9,17.9,17.9c9.9,0,17.9-8,17.9-17.9C98.1,52.1,90,44.1,80.2,44.1z"/>
		<path class="st18" d="M78,41.9c-9.9,0-17.9,8-17.9,17.9H78V41.9z"/>
	</g>
	<g>
		<rect x="11.4" y="9.3" class="st19" width="6.5" height="5.8"/>
		<rect x="21" y="9.3" class="st15" width="21.3" height="5.8"/>
		<rect x="11.4" y="18" class="st19" width="6.5" height="5.8"/>
		<rect x="21" y="18" class="st7" width="36.5" height="5.8"/>
		<rect x="11.4" y="27" class="st19" width="6.5" height="5.8"/>
		<rect x="21" y="27" class="st14" width="21.3" height="5.8"/>
	</g>
	<g>
		<path class="st19" d="M30.4,52.8c0-4.8-2.6-7.5-7.4-7.5c-4.8,0-7.4,2.7-7.4,7.5s2.6,7.5,7.4,7.5C27.8,60.3,30.4,57.6,30.4,52.8z
			 M19,52.8c0-3.1,1.2-4.5,4-4.5c2.8,0,4,1.4,4,4.5c0,3.1-1.3,4.5-4,4.5C20.3,57.3,19,55.9,19,52.8z"/>
		<path class="st19" d="M41,47.1c0-0.9-0.8-1.6-1.7-1.6c-0.7,0-1.3,0.4-1.5,0.8L22.4,73.8c-0.2,0.3-0.2,0.5-0.2,0.7
			c0,0.9,0.8,1.6,1.7,1.6c0.6,0,1.2-0.3,1.5-0.8l15.3-27.4C40.9,47.6,41,47.3,41,47.1z"/>
		<path class="st19" d="M40.3,61.3c-4.8,0-7.4,2.7-7.4,7.5s2.6,7.5,7.4,7.5c4.8,0,7.4-2.7,7.4-7.5S45.1,61.3,40.3,61.3z M40.3,73.3
			c-2.7,0-4-1.4-4-4.5c0-3.1,1.2-4.5,4-4.5c2.8,0,4,1.4,4,4.5C44.3,71.9,43.1,73.3,40.3,73.3z"/>
	</g>
</g>
</svg>
