<?xml version="1.0" encoding="utf-8"?>
<!-- Generator: Adobe Illustrator 17.0.0, SVG Export Plug-In . SVG Version: 6.00 Build 0)  -->
<!DOCTYPE svg PUBLIC "-//W3C//DTD SVG 1.1//EN" "http://www.w3.org/Graphics/SVG/1.1/DTD/svg11.dtd">
<svg version="1.1" id="Layer_1" xmlns="http://www.w3.org/2000/svg" xmlns:xlink="http://www.w3.org/1999/xlink" x="0px" y="0px"
	 width="135.7px" height="108.9px" viewBox="0 0 135.7 108.9" style="enable-background:new 0 0 135.7 108.9;" xml:space="preserve"
	>
<style type="text/css">
	.st0{fill:#E6E2E1;}
	.st1{fill:#F0F3F4;}
	.st2{fill:#414141;}
	.st3{fill:#C03527;}
	.st4{fill:#F39C12;}
	.st5{fill:#27AE60;}
	.st6{fill:#373737;}
	.st7{fill:#FCA2A4;}
	.st8{fill:#5DBF87;}
	.st9{fill:#FFFFFF;}
	.st10{fill:#F4CC0C;}
	.st11{fill:#EE634C;}
	.st12{fill:none;stroke:#FFFFFF;stroke-width:3;stroke-miterlimit:10;}
	.st13{fill:none;stroke:#FFFFFF;stroke-width:3;stroke-linecap:round;stroke-miterlimit:10;}
	.st14{fill:#FD7174;}
	.st15{fill:#EC4348;}
	.st16{fill:#FD5459;}
	.st17{fill:#5D5D5D;}
	.st18{fill:#2DCC70;}
	.st19{fill:#D4D8D8;}
	.st20{fill:#C9CED1;}
	.st21{fill:#CD2C31;}
	.st22{fill:#20A056;}
	.st23{fill:none;stroke:#E6E2E1;stroke-width:4;stroke-miterlimit:10;}
	.st24{fill:none;stroke:#EC4348;stroke-miterlimit:10;}
	.st25{fill:none;stroke:#FFFFFF;stroke-width:4;stroke-miterlimit:10;}
	.st26{fill:none;stroke:#FFFFFF;stroke-miterlimit:10;}
	.st27{fill:none;stroke:#20A056;stroke-miterlimit:10;}
</style>
<g>
	<path class="st12" d="M74.2,6c-0.7-2.5-3-4.5-5.8-4.5H7.5c-3.3,0-6,2.7-6,6v26.9"/>
	<g>
		<path class="st9" d="M56.7,15.8c0.5-0.6,1.6-1.9,2.9-3.5h-0.8H13.4c-0.8,0-1.4,0.6-1.4,1.4V28v0.4h34.4L56.7,15.8z"/>
		<path class="st12" d="M128.2,6H66.8c-1.7,0-4.8,3.4-7.2,6.2c-1.3,1.6-2.4,3-2.9,3.5L46.4,28.4H12H7.5c-3.3,0-6,2.7-6,6v67
			c0,3.3,2.7,6,6,6h120.7c3.3,0,6-2.7,6-6V45.8V34.4V12C134.2,8.7,131.5,6,128.2,6z"/>
	</g>
</g>
</svg>
