<?xml version="1.0" encoding="utf-8"?>
<!-- Generator: Adobe Illustrator 17.0.0, SVG Export Plug-In . SVG Version: 6.00 Build 0)  -->
<!DOCTYPE svg PUBLIC "-//W3C//DTD SVG 1.1//EN" "http://www.w3.org/Graphics/SVG/1.1/DTD/svg11.dtd">
<svg version="1.1" id="Layer_1" xmlns="http://www.w3.org/2000/svg" xmlns:xlink="http://www.w3.org/1999/xlink" x="0px" y="0px"
	 width="86px" height="86px" viewBox="0 0 86 86" style="enable-background:new 0 0 86 86;" xml:space="preserve">
<style type="text/css">
	.st0{fill:#3FA9E2;}
	.st1{fill:#2487B2;}
	.st2{fill:#FFFFFF;}
	.st3{fill:#0063AD;}
	.st4{fill:#004F7F;}
	.st5{fill:#F4CC0C;}
	.st6{fill:#2DCC70;}
	.st7{fill:#EC4348;}
	.st8{fill:#FCA2A4;}
</style>
<g>
	<circle class="st0" cx="43" cy="43" r="43"/>
	<g>
		<path class="st1" d="M65.4,27.8c-0.9,0.4-1.8,0.7-2.7,1c0.6-0.8,0.9-2,1.1-2.7c0.2-0.6,0.3-1.9,0.3-1.9c-1.8,1.1-3.7,1.8-5.8,2.2
			c-1.7-1.8-4.1-2.9-6.7-2.9c-5.1,0-9.2,4.1-9.2,9.2c0,0.3,0,1.5,0,1.8c0,0.1,0,0.2,0,0.3c-7.5-0.4-14.2-4.1-18.7-9.6
			c-0.8,1.4-1.2,2.9-1.3,4.6c0,0.3-0.7,4.9,1.9,7.3c-0.7-0.2-1.3-0.5-1.9-0.8c0,0-0.2,2.2-0.1,2.8c0.6,3.9,1.6,4.9,3.9,6.5
			c-0.2,0-0.4,0-0.6-0.1c0,0,0.2,2.3,0.5,3.2c0.9,2.3,2.8,3.8,5.8,4.6c-2.7,1.6-5.8,2.5-9.2,2.5c-0.7,0-1.5,0-2.2-0.1
			c0,0,0.4,1.7,2.1,3.2c2.4,2.1,6.8,3.5,12,3.5c16.9,0,26.2-13.7,26.1-26.1c0-0.3,0-0.6,0-0.9c0-0.1,0-0.2,0-0.3
			c1.8-1.3,3.5-3.6,3.9-4.3C65.3,29.7,65.4,27.8,65.4,27.8z"/>
		<path class="st2" d="M65.4,27.8c-1.6,0.7-3.4,1.2-5.3,1.4c1.9-1.1,3.4-2.9,4-5.1c-1.8,1.1-3.7,1.8-5.8,2.2
			c-1.7-1.8-4.1-2.9-6.7-2.9c-5.1,0-9.2,4.1-9.2,9.2c0,0.7,0.1,1.4,0.2,2.1c-7.6-0.4-14.4-4-18.9-9.6c-0.8,1.4-1.2,2.9-1.2,4.6
			c0,3.2,1.6,6,4.1,7.6c-1.5,0-2.9-0.5-4.2-1.1c0,0,0,0.1,0,0.1c0,4.5,3.2,8.2,7.4,9c-0.8,0.2-1.6,0.3-2.4,0.3
			c-0.6,0-1.2-0.1-1.7-0.2c1.2,3.7,4.6,6.3,8.6,6.4c-3.1,2.5-7.1,3.9-11.4,3.9c-0.7,0-1.5,0-2.2-0.1c4.1,2.6,8.9,4.1,14.1,4.1
			c16.9,0,26.1-14,26.1-26.1c0-0.4,0-0.8,0-1.2C62.6,31.3,64.2,29.7,65.4,27.8z"/>
	</g>
</g>
</svg>
