<?xml version="1.0" encoding="utf-8"?>
<!-- Generator: Adobe Illustrator 17.0.0, SVG Export Plug-In . SVG Version: 6.00 Build 0)  -->
<!DOCTYPE svg PUBLIC "-//W3C//DTD SVG 1.1//EN" "http://www.w3.org/Graphics/SVG/1.1/DTD/svg11.dtd">
<svg version="1.1" id="Layer_1" xmlns="http://www.w3.org/2000/svg" xmlns:xlink="http://www.w3.org/1999/xlink" x="0px" y="0px"
	 width="96px" height="96px" viewBox="0 0 96 96" style="enable-background:new 0 0 96 96;" xml:space="preserve">
<style type="text/css">
	.st0{fill:#3FA9E2;}
	.st1{fill:#2487B2;}
	.st2{fill:#FFFFFF;}
	.st3{fill:#0063AD;}
	.st4{fill:#004F7F;}
	.st5{fill:#F4CC0C;}
	.st6{fill:#2DCC70;}
	.st7{fill:#EC4348;}
	.st8{fill:#FCA2A4;}
</style>
<g>
	<circle class="st5" cx="48" cy="48" r="48"/>
	<path class="st2" d="M62.7,48.9c0,6.8-5.5,12.2-12.2,12.2c-6.8,0-12.2-5.5-12.2-12.2c0-0.8,0.1-1.6,0.2-2.4h-8.2v16.3
		c0,3.5,2.8,6.3,6.3,6.3h27.8c3.5,0,6.3-2.8,6.3-6.3V46.5h-8.2C62.6,47.3,62.7,48,62.7,48.9z M64.3,28.6H36.5
		c-3.5,0-6.3,2.8-6.3,6.3v6.9h10.3c2.2-3.1,5.9-5.2,10-5.2c4.1,0,7.8,2,10,5.2h10.3v-6.9C70.7,31.4,67.8,28.6,64.3,28.6z M67.4,36.4
		c0,0.6-0.5,1.1-1.1,1.1h-3.4c-0.6,0-1.1-0.5-1.1-1.1V33c0-0.6,0.5-1.1,1.1-1.1h3.4c0.6,0,1.1,0.5,1.1,1.1V36.4z M58,48.9
		c0-4.2-3.4-7.5-7.5-7.5c-4.2,0-7.5,3.4-7.5,7.5c0,4.2,3.4,7.5,7.5,7.5C54.6,56.4,58,53,58,48.9z"/>
</g>
</svg>
