<?xml version="1.0" encoding="utf-8"?>
<!-- Generator: Adobe Illustrator 17.0.0, SVG Export Plug-In . SVG Version: 6.00 Build 0)  -->
<!DOCTYPE svg PUBLIC "-//W3C//DTD SVG 1.1//EN" "http://www.w3.org/Graphics/SVG/1.1/DTD/svg11.dtd">
<svg version="1.1" id="Layer_1" xmlns="http://www.w3.org/2000/svg" xmlns:xlink="http://www.w3.org/1999/xlink" x="0px" y="0px"
	 width="210.382px" height="210.382px" viewBox="0 0 210.382 210.382" enable-background="new 0 0 210.382 210.382"
	 xml:space="preserve">
<g>
	<path fill="#FCA2A4" d="M158.247,54.256l21.325-21.325c0.586-0.586,0.586-1.535,0-2.121s-1.535-0.586-2.121,0l-21.322,21.322
		C156.85,52.825,157.555,53.534,158.247,54.256z"/>
	<path fill="#FCA2A4" d="M52.132,156.129L30.81,177.451c-0.586,0.586-0.586,1.535,0,2.121c0.293,0.293,0.677,0.439,1.061,0.439
		s0.768-0.146,1.061-0.439l21.326-21.326C53.534,157.555,52.825,156.85,52.132,156.129z"/>
	<path fill="#FCA2A4" d="M54.18,52.059l-21.25-21.25c-0.586-0.586-1.535-0.586-2.121,0s-0.586,1.535,0,2.121l21.25,21.25
		C52.752,53.459,53.459,52.752,54.18,52.059z"/>
	<path fill="#FCA2A4" d="M156.054,158.175l21.398,21.398c0.293,0.293,0.677,0.439,1.061,0.439s0.768-0.146,1.061-0.439
		c0.586-0.586,0.586-1.535,0-2.121l-21.398-21.398C157.482,156.775,156.775,157.482,156.054,158.175z"/>
	<path fill="#FCA2A4" d="M31.582,103.746H1.5c-0.828,0-1.5,0.672-1.5,1.5s0.672,1.5,1.5,1.5h30.086c-0.011-1-0.04-1.046-0.04-1.573
		C31.546,104.694,31.573,103.746,31.582,103.746z"/>
	<path fill="#FCA2A4" d="M208.882,103.746h-30.23c0.009,0,0.036,0.948,0.036,1.427c0,0.528-0.029,0.573-0.04,1.573h30.234
		c0.828,0,1.5-0.672,1.5-1.5S209.71,103.746,208.882,103.746z"/>
	<path fill="#FCA2A4" d="M104.067,178.652v30.23c0,0.828,0.672,1.5,1.5,1.5s1.5-0.672,1.5-1.5v-30.234
		c-1,0.011-1.046,0.04-1.573,0.04C105.016,178.688,104.067,178.661,104.067,178.652z"/>
	<path fill="#FCA2A4" d="M107.067,31.586V1.5c0-0.828-0.672-1.5-1.5-1.5s-1.5,0.672-1.5,1.5v30.082c0-0.009,0.948-0.036,1.427-0.036
		C106.022,31.546,106.067,31.575,107.067,31.586z"/>
	<path fill="#FCA2A4" d="M8.587,142.897c-0.768,0.312-1.136,1.188-0.824,1.955c0.237,0.582,0.798,0.935,1.391,0.935
		c0.188,0,0.38-0.035,0.564-0.11l27.871-11.346c-0.397-0.916-0.769-1.845-1.129-2.78L8.587,142.897z"/>
	<path fill="#FCA2A4" d="M201.794,67.484c0.768-0.312,1.136-1.188,0.824-1.955c-0.312-0.767-1.188-1.137-1.955-0.824l-27.938,11.373
		c0.394,0.917,0.763,1.848,1.121,2.783L201.794,67.484z"/>
	<path fill="#FCA2A4" d="M67.484,8.587c-0.312-0.767-1.188-1.139-1.955-0.824c-0.768,0.312-1.136,1.188-0.824,1.955l11.323,27.814
		c0.917-0.395,1.847-0.765,2.782-1.123L67.484,8.587z"/>
	<path fill="#FCA2A4" d="M142.897,201.794c0.237,0.582,0.798,0.935,1.391,0.935c0.188,0,0.38-0.035,0.564-0.11
		c0.768-0.312,1.136-1.188,0.824-1.955l-11.396-27.995c-0.916,0.396-1.846,0.767-2.781,1.127L142.897,201.794z"/>
	<path fill="#FCA2A4" d="M10.219,63.545c-0.761-0.325-1.643,0.036-1.964,0.8c-0.322,0.763,0.036,1.643,0.8,1.964l27.684,11.665
		c0.37-0.931,0.757-1.852,1.163-2.764L10.219,63.545z"/>
	<path fill="#FCA2A4" d="M200.163,146.837c0.189,0.081,0.387,0.118,0.581,0.118c0.586,0,1.142-0.345,1.383-0.918
		c0.322-0.763-0.036-1.643-0.8-1.964l-27.861-11.74c-0.371,0.93-0.759,1.851-1.167,2.763L200.163,146.837z"/>
	<path fill="#FCA2A4" d="M146.837,10.219c0.322-0.763-0.036-1.643-0.8-1.964c-0.761-0.324-1.643,0.036-1.964,0.8l-11.686,27.734
		c0.93,0.372,1.85,0.761,2.761,1.169L146.837,10.219z"/>
	<path fill="#FCA2A4" d="M63.545,200.163c-0.322,0.763,0.036,1.643,0.8,1.964c0.189,0.081,0.387,0.118,0.581,0.118
		c0.586,0,1.142-0.345,1.383-0.918l11.719-27.811c-0.931-0.369-1.853-0.755-2.765-1.161L63.545,200.163z"/>
	<path fill="#FCA2A4" d="M178.93,58.075c0.69-0.458,0.879-1.389,0.421-2.079c-0.459-0.692-1.392-0.879-2.079-0.421l-11.637,7.72
		c0.569,0.822,1.117,1.658,1.653,2.503L178.93,58.075z"/>
	<path fill="#FCA2A4" d="M31.451,152.307c-0.69,0.458-0.879,1.389-0.421,2.079c0.289,0.436,0.766,0.671,1.251,0.671
		c0.285,0,0.573-0.081,0.828-0.25l11.609-7.701c-0.571-0.82-1.123-1.654-1.661-2.498L31.451,152.307z"/>
	<path fill="#FCA2A4" d="M152.307,178.93c0.289,0.436,0.766,0.671,1.251,0.671c0.285,0,0.573-0.081,0.828-0.25
		c0.69-0.458,0.879-1.389,0.421-2.079l-7.767-11.709c-0.821,0.57-1.656,1.121-2.5,1.658L152.307,178.93z"/>
	<path fill="#FCA2A4" d="M58.075,31.451c-0.459-0.691-1.391-0.878-2.079-0.421c-0.69,0.458-0.879,1.389-0.421,2.079l7.654,11.538
		c0.821-0.57,1.656-1.12,2.501-1.656L58.075,31.451z"/>
	<path fill="#FCA2A4" d="M190.647,124.016c0.101,0.021,0.201,0.03,0.3,0.03c0.698,0,1.324-0.491,1.468-1.202
		c0.165-0.812-0.36-1.604-1.172-1.768l-13.755-2.784c-0.179,0.987-0.375,1.967-0.592,2.94L190.647,124.016z"/>
	<path fill="#FCA2A4" d="M19.733,86.365c-0.812-0.164-1.604,0.36-1.768,1.172c-0.165,0.812,0.36,1.604,1.172,1.768l13.588,2.75
		c0.177-0.987,0.371-1.968,0.587-2.941L19.733,86.365z"/>
	<path fill="#FCA2A4" d="M86.365,190.647c-0.165,0.812,0.36,1.604,1.172,1.768c0.101,0.021,0.201,0.03,0.3,0.03
		c0.698,0,1.324-0.491,1.468-1.202l2.779-13.73c-0.987-0.177-1.968-0.37-2.942-0.585L86.365,190.647z"/>
	<path fill="#FCA2A4" d="M124.016,19.733c0.165-0.812-0.36-1.604-1.172-1.768c-0.81-0.162-1.604,0.36-1.768,1.172l-2.755,13.613
		c0.987,0.179,1.967,0.376,2.94,0.594L124.016,19.733z"/>
	<path fill="#FCA2A4" d="M191.438,90.405c0.814-0.153,1.35-0.938,1.195-1.752c-0.153-0.815-0.946-1.347-1.752-1.195l-13.742,2.599
		c0.203,0.975,0.375,1.961,0.539,2.951L191.438,90.405z"/>
	<path fill="#FCA2A4" d="M18.942,119.976c-0.814,0.153-1.35,0.938-1.195,1.752c0.136,0.721,0.766,1.222,1.472,1.222
		c0.093,0,0.187-0.009,0.28-0.026l13.634-2.579c-0.205-0.975-0.381-1.96-0.547-2.949L18.942,119.976z"/>
	<path fill="#FCA2A4" d="M90.405,18.942c-0.153-0.815-0.947-1.349-1.752-1.195c-0.814,0.153-1.35,0.938-1.195,1.752l2.572,13.602
		c0.975-0.203,1.961-0.376,2.95-0.54L90.405,18.942z"/>
	<path fill="#FCA2A4" d="M119.976,191.438c0.136,0.721,0.766,1.222,1.472,1.222c0.093,0,0.187-0.009,0.28-0.026
		c0.814-0.153,1.35-0.938,1.195-1.752l-2.605-13.775c-0.975,0.205-1.96,0.38-2.949,0.546L119.976,191.438z"/>
	<path fill="#FCA2A4" d="M176.633,155.723c0.258,0.177,0.553,0.261,0.844,0.261c0.479,0,0.95-0.229,1.24-0.655
		c0.467-0.685,0.29-1.617-0.395-2.084l-11.608-7.915c-0.548,0.838-1.115,1.661-1.695,2.475L176.633,155.723z"/>
	<path fill="#FCA2A4" d="M33.749,54.658c-0.682-0.468-1.617-0.29-2.084,0.395s-0.29,1.617,0.395,2.084l11.44,7.801
		c0.547-0.838,1.113-1.662,1.694-2.476L33.749,54.658z"/>
	<path fill="#FCA2A4" d="M155.723,33.749c0.467-0.684,0.29-1.617-0.395-2.084c-0.682-0.468-1.618-0.29-2.084,0.395l-7.845,11.505
		c0.837,0.549,1.66,1.117,2.472,1.698L155.723,33.749z"/>
	<path fill="#FCA2A4" d="M54.658,176.633c-0.467,0.685-0.29,1.617,0.395,2.084c0.258,0.177,0.553,0.261,0.844,0.261
		c0.479,0,0.95-0.229,1.24-0.655l7.871-11.542c-0.839-0.547-1.664-1.111-2.478-1.69L54.658,176.633z"/>
	<path fill="#FD5459" d="M31.582,103.746c-0.009,0-0.036,0.948-0.036,1.427c0,0.528,0.029,0.573,0.04,1.573"/>
</g>
</svg>
