<?xml version="1.0" encoding="utf-8"?>
<!-- Generator: Adobe Illustrator 17.0.0, SVG Export Plug-In . SVG Version: 6.00 Build 0)  -->
<!DOCTYPE svg PUBLIC "-//W3C//DTD SVG 1.1//EN" "http://www.w3.org/Graphics/SVG/1.1/DTD/svg11.dtd">
<svg version="1.1" id="Layer_1" xmlns="http://www.w3.org/2000/svg" xmlns:xlink="http://www.w3.org/1999/xlink" x="0px" y="0px"
	 width="138.419px" height="159.363px" viewBox="0 0 138.419 159.363" enable-background="new 0 0 138.419 159.363"
	 xml:space="preserve">
<g>
	<polygon fill="none" stroke="#FFFFFF" stroke-width="3" stroke-linejoin="round" stroke-miterlimit="10" points="1.505,118.777 
		1.5,40.595 69.205,1.5 136.914,40.586 136.919,118.768 69.215,157.863 	"/>
	
		<circle fill="none" stroke="#FFFFFF" stroke-width="3" stroke-linejoin="round" stroke-miterlimit="10" cx="91.695" cy="110.308" r="9.7"/>
	
		<circle fill="none" stroke="#FFFFFF" stroke-width="3" stroke-linejoin="round" stroke-miterlimit="10" cx="34.671" cy="59.946" r="9.7"/>
	<g>
		<path fill="#FFFFFF" d="M112.043,82.115l-6.83-6.83l-6.79,6.79c-0.639,0.639-1.677,0.639-2.316,0
			c-0.639-0.639-0.639-1.677,0-2.316l6.79-6.79l-6.83-6.83c-0.599-0.599-0.599-1.558,0-2.157c0.599-0.599,1.557-0.599,2.157,0
			l6.83,6.83l6.829-6.829c0.639-0.639,1.677-0.639,2.317,0c0.639,0.639,0.639,1.677,0,2.317l-6.829,6.829l6.83,6.83
			c0.599,0.599,0.599,1.558,0,2.157C113.601,82.714,112.643,82.714,112.043,82.115z"/>
	</g>
	<g>
		<path fill="#FFFFFF" d="M47.534,110.096l-6.83-6.83l-6.79,6.79c-0.639,0.639-1.677,0.639-2.316,0
			c-0.639-0.639-0.639-1.677,0-2.316l6.79-6.79l-6.83-6.83c-0.599-0.599-0.599-1.558,0-2.157c0.599-0.599,1.557-0.599,2.157,0
			l6.83,6.83l6.829-6.829c0.639-0.639,1.678-0.639,2.317,0c0.639,0.639,0.639,1.677,0,2.317l-6.829,6.829l6.83,6.83
			c0.599,0.599,0.599,1.558,0,2.157C49.092,110.695,48.133,110.695,47.534,110.096z"/>
	</g>
	<g>
		<g>
			<path fill="none" stroke="#FFFFFF" stroke-width="3" stroke-linecap="round" stroke-linejoin="round" d="M76.01,100.185
				c0,0-27.76-20.523,6.533-59.938"/>
			<g>
				<polygon fill="#FFFFFF" points="85.712,55.809 82.714,55.978 81.898,41.208 67.226,43.101 66.844,40.123 84.714,37.821 				"/>
			</g>
		</g>
	</g>
</g>
</svg>
