<?xml version="1.0" encoding="utf-8"?>
<!-- Generator: Adobe Illustrator 17.0.0, SVG Export Plug-In . SVG Version: 6.00 Build 0)  -->
<!DOCTYPE svg PUBLIC "-//W3C//DTD SVG 1.1//EN" "http://www.w3.org/Graphics/SVG/1.1/DTD/svg11.dtd">
<svg version="1.1" id="Layer_1" xmlns="http://www.w3.org/2000/svg" xmlns:xlink="http://www.w3.org/1999/xlink" x="0px" y="0px"
	 width="135.419px" height="156.363px" viewBox="0 0 135.419 156.363" enable-background="new 0 0 135.419 156.363"
	 xml:space="preserve">
<g>
	<polyline fill="#FD5459" points="135.414,39.086 135.419,117.268 67.715,156.363 0.005,117.277 0,39.095 67.705,0 	"/>
	<g>
		<path fill="#FCA2A4" d="M66.424,115.124l-2.543,3.497c0.259,0.553,0.63,1.064,1.114,1.497l1.87,1.822
			c1.922,1.719,4.873,1.554,6.592-0.367c0.094-0.105,0.164-0.223,0.245-0.335C70.502,118.712,66.383,115.831,66.424,115.124z"/>
		<path fill="#FCA2A4" d="M81.305,99.27c0.087-0.494,0.46-0.924,0.783-1.216L69.716,87.262l1.427-9.157l0.764-16.739
			c0,0-10.655-1.321-18.006-0.578c-5.122,0.518-11.62,1.663-15.096,2.31l0.677,0.471c0,0-3.524,23.787-11.894,33.258l-0.617,0.835
			L61.6,109.129l4.072,3.552c-0.376,0.231-0.735,0.499-1.044,0.845c-1.076,1.203-1.413,2.81-1.044,4.266l2.629-3.615
			c1.556-2.055,1.151-4.983-0.905-6.539c-1.58-1.196-3.669-1.223-5.26-0.244c0.814-1.922,0.273-4.219-1.467-5.536
			c-1.306-0.989-2.961-1.18-4.396-0.665c1.625-1.588,4.199-1.807,6.065-0.394c1.74,1.317,2.282,3.614,1.468,5.536
			c1.592-0.98,3.681-0.952,5.26,0.244c2.056,1.556,2.461,4.484,0.905,6.539l-0.981,1.349c0.943,0.739,7.054,5.525,7.308,5.675
			c0.015,0.036,0.037,0.079,0.053,0.116c0.008-0.02,0.021-0.038,0.029-0.058l0.013,0.011c2.2,1.919,5.539,1.691,7.458-0.508
			l0.29-0.332c1.598-1.832,1.687-4.443,0.408-6.378l3.73,3.253c2.2,1.919,5.539,1.692,7.458-0.508l0.29-0.332
			c0.89-1.021,1.298-2.286,1.282-3.541C91.957,109.134,81.169,100.038,81.305,99.27z"/>
		<path fill="#3F3F3F" d="M66.768,114.362c-0.164,0.22-0.301,0.469-0.348,0.74c-0.001,0.006,0.005,0.016,0.005,0.022l0.478-0.657
			C66.823,114.406,66.768,114.362,66.768,114.362z"/>
		<path fill="#FD7174" d="M66.902,114.467l-0.478,0.657c-0.041,0.707,4.077,3.588,7.278,6.114c0.226-0.31,0.418-0.637,0.561-0.98
			c-0.017-0.038-0.038-0.08-0.053-0.116C73.956,119.992,67.845,115.206,66.902,114.467z"/>
		<path fill="#FFFFFF" d="M85.898,73.248l-14.776,1.556l29.558,27.859l6.345-6.091c-5.9-9.506-11.939-26.091-12.996-29.054
			L85.898,73.248z"/>
		<g>
			<path fill="#FD7174" d="M39.482,63.569l0.024-0.6l-0.702,0.13c-1.513,0.282-2.461,0.471-2.461,0.471S32.819,87.356,24.45,96.826
				l0,0l2.522,0.835l0.617-0.835C35.958,87.356,39.482,63.569,39.482,63.569z"/>
			<path fill="#FFFFFF" d="M26.072,56.431l-2.724-1.893c0,0-5.286,25.769-14.536,40.967l13.726,3.91l0.545-0.739l1.366-1.85
				c8.369-9.47,11.894-33.258,11.894-33.258L26.072,56.431z"/>
		</g>
		<path fill="#3787AF" d="M95.621,66.382l-1.762,0.661c0,0,0.062,0.177,0.169,0.475l1.597-1.126
			C95.625,66.392,95.621,66.382,95.621,66.382z"/>
		<polygon fill="#C9CED1" points="101.804,101.583 103.06,100.378 72.701,76.107 		"/>
		<path fill="#FD7174" d="M74.612,92.335c-0.164,0.22-0.301,0.469-0.349,0.74c-0.135,0.768,17.694,16.059,20.957,18.791
			c-0.009-0.683-0.156-1.36-0.421-1.996c-0.274-0.162-0.542-0.344-0.791-0.561L74.612,92.335z"/>
		<path fill="#FD7174" d="M67.997,100.457c-0.164,0.22-0.301,0.468-0.349,0.74c-0.135,0.768,12.37,11.201,15.634,13.932
			c-0.009-0.683-0.523-1.509-0.788-2.145C82.219,112.821,67.997,100.457,67.997,100.457z"/>
		<path fill="#FCA2A4" d="M101.248,101.01L72.701,76.107c-2.2-1.919-5.539-1.691-7.458,0.508l-0.289,0.332
			c-1.919,2.2-1.691,5.539,0.508,7.458L81.653,98.53l12.356,10.778c0.249,0.217,0.516,0.398,0.791,0.561
			c2.151,1.273,4.966,0.882,6.668-1.069l0.29-0.332C103.676,106.268,103.448,102.929,101.248,101.01z"/>
		<g>
			<g>
				<path fill="#FD7174" d="M63.952,75.013c-0.91,6.373-10.095,10.283-14.203,10.086c0.188,0.306,1.777,1.115,2.403,1.435
					c3.403,1.735,13.225-2.893,14.277-10.256c0.235-1.648,2.477-1.994,5.282-0.851C67.854,73.084,64.254,72.9,63.952,75.013z"/>
			</g>
			<path fill="#FFFFFF" d="M95.64,66.382h-9.742c0,0-4.199-5.711-14.277-5.711c-10.078,0-13.438,4.031-14.949,5.711
				c-1.512,1.68-3.191,7.559-4.367,10.078c-1.176,2.52-5.375,6.906-2.184,8.912c3.191,2.006,13.225-2.892,14.277-10.256
				c0.316-2.212,4.246-1.65,8.303,0.99c4.273,2.781,9.612,4.875,9.612,4.875L95.64,66.382z"/>
		</g>
		<g>
			<path fill="none" d="M52.246,102.534c0.083-0.098,0.17-0.19,0.26-0.28C52.414,102.34,52.331,102.439,52.246,102.534z"/>
			<path fill="#FD7174" d="M66.979,106.578c-1.58-1.196-3.669-1.223-5.26-0.244c0.814-1.922,0.273-4.219-1.468-5.536
				c-1.841-1.394-4.366-1.193-5.994,0.335c1.425-0.496,3.061-0.295,4.354,0.684c1.74,1.317,2.282,3.614,1.468,5.537
				c1.591-0.98,3.681-0.952,5.26,0.244c2.056,1.556,2.461,4.484,0.905,6.539l-2.659,3.656c0.072,0.283,0.171,0.56,0.297,0.828
				l4.002-5.503C69.439,111.062,69.034,108.134,66.979,106.578z"/>
			<path fill="#FD7174" d="M49.568,98.244c2.056,1.556,2.461,4.484,0.905,6.539l1.599-2.062c0.053-0.07,0.119-0.122,0.174-0.188
				c0.085-0.095,0.168-0.194,0.26-0.28c0.142-0.143,0.29-0.274,0.446-0.395c0.338-1.699-0.27-3.518-1.744-4.634
				c-1.561-1.181-3.601-1.195-5.179-0.243L45.69,97.45C46.993,97.138,48.414,97.371,49.568,98.244z"/>
			<path fill="#FFFFFF" d="M43.204,98.967c0.249-1.638-0.362-3.356-1.776-4.426c-1.306-0.988-2.961-1.179-4.396-0.665
				c0.023-0.022,0.049-0.037,0.072-0.059c-0.841,0.292-1.608,0.826-2.186,1.589l-1.663,2.013c-1.556,2.056-1.151,4.983,0.905,6.54
				c1.515,1.147,3.501,1.222,5.065,0.363l3.981-5.355C43.205,98.967,43.205,98.967,43.204,98.967z"/>
			<path fill="#FFFFFF" d="M66.214,114.176c1.556-2.055,1.151-4.983-0.905-6.539c-1.58-1.196-3.669-1.223-5.26-0.244
				c0.814-1.922,0.273-4.219-1.467-5.536c-1.306-0.989-2.961-1.18-4.396-0.665c0.022-0.022,0.049-0.037,0.072-0.058
				c-0.468,0.163-0.903,0.415-1.305,0.726c-0.001,0.007-0.001,0.013-0.003,0.02c-0.153,0.117-0.301,0.242-0.443,0.375
				c-0.089,0.089-0.177,0.182-0.26,0.28c-0.068,0.076-0.141,0.145-0.204,0.228l-2.528,3.339l0.929-1.277
				c1.556-2.055,1.151-4.983-0.905-6.539c-1.154-0.874-2.575-1.109-3.877-0.793l-7.815,10.817c0.125,1.247,0.736,2.441,1.814,3.257
				c1.79,1.355,4.241,1.22,5.872-0.194c-1.516,2.053-1.107,4.947,0.933,6.492c2.056,1.556,4.983,1.151,6.539-0.905l0.745-0.984
				c-0.483,1.784,0.118,3.76,1.682,4.943c2.056,1.556,4.983,1.151,6.539-0.905l1.615-2.221l0-0.001L66.214,114.176z"/>
			<path fill="#FD5459" d="M65.339,107.597c-1.58-1.196-3.669-1.223-5.26-0.244c0.814-1.922,0.273-4.219-1.468-5.537
				c-1.293-0.978-2.93-1.179-4.354-0.684c-0.023,0.021-0.049,0.036-0.072,0.058c1.435-0.515,3.09-0.324,4.396,0.665
				c1.74,1.317,2.282,3.614,1.467,5.536c1.591-0.979,3.681-0.952,5.26,0.244c2.056,1.556,2.461,4.484,0.905,6.539l-2.629,3.615
				l0,0.001l2.659-3.656C67.8,112.081,67.395,109.153,65.339,107.597z"/>
			<path fill="#FD5459" d="M50.473,104.784c1.556-2.055,1.151-4.983-0.905-6.539c-1.154-0.873-2.575-1.106-3.878-0.794l-0.029,0.041
				c1.303-0.316,2.723-0.081,3.877,0.793c2.056,1.556,2.461,4.484,0.905,6.539l-0.929,1.277l2.528-3.339
				c0.063-0.083,0.136-0.152,0.204-0.228c-0.056,0.066-0.122,0.118-0.174,0.188L50.473,104.784z"/>
			<path fill="#FD5459" d="M52.506,102.254c0.142-0.133,0.29-0.258,0.443-0.375c0.001-0.007,0.001-0.013,0.003-0.02
				C52.795,101.98,52.648,102.112,52.506,102.254z"/>
			<path fill="#FD7174" d="M44.801,97.037c-0.063-1.325-0.836-2.612-1.977-3.476c-1.84-1.393-4.473-1.118-6.101,0.409
				c1.424-0.495,3.169-0.369,4.462,0.61c1.414,1.07,2.218,2.788,1.968,4.426c0.466-0.539,1.037-0.932,1.653-1.205
				C44.835,97.546,44.813,97.291,44.801,97.037z"/>
			<path fill="#C9CED1" d="M45.152,97.642c0.021-0.02,0.045-0.035,0.067-0.055c-0.112,0.04-0.222,0.086-0.332,0.135
				c-0.001,0.009,0.001,0.018,0,0.027c-0.627,0.273-1.209,0.669-1.682,1.216l-3.981,5.355c0.021-0.012,0.044-0.019,0.065-0.031
				l-0.535,0.736c-0.74,0.978-1.023,2.151-0.909,3.282l7.815-10.817C45.489,97.533,45.319,97.582,45.152,97.642z"/>
			<path fill="#C9CED1" d="M61.035,106.893c0.021-0.02,0.046-0.035,0.067-0.054c-0.112,0.04-0.222,0.087-0.332,0.135
				c-0.001,0.009,0.001,0.018,0,0.027c-0.627,0.273-1.209,0.669-1.682,1.216l-3.981,5.355c0.021-0.012,0.044-0.019,0.065-0.031
				l-0.535,0.736c-0.74,0.978-1.023,2.151-0.909,3.282l7.815-10.817C61.372,106.783,61.201,106.832,61.035,106.893z"/>
			<path fill="#C9CED1" d="M54.114,101.2c0.021-0.02,0.046-0.035,0.067-0.054c-0.112,0.04-0.222,0.086-0.332,0.135
				c-0.001,0.009,0.001,0.018,0,0.027c-0.627,0.273-1.209,0.669-1.682,1.216l-6.138,8.233c0.021-0.012,2.202-2.897,2.223-2.909
				l-2.591,3.367c-0.74,0.978-1.135,2.189-1.011,3.529l9.972-13.695C54.451,101.09,54.28,101.139,54.114,101.2z"/>
		</g>
		<path fill="#FD7174" d="M95.64,66.398c0,0,10.625,30.385,18.114,35.495l12.885-7.445c0,0-14.59-30.363-15.581-33.887L95.64,66.398
			z"/>
		<path fill="#C9CED1" d="M95.625,66.393h-1.997l0.4,1.126c1.058,2.963,7.096,19.547,12.996,29.054l1.368-1.313
			C102.055,84.732,95.687,66.57,95.625,66.393z"/>
	</g>
</g>
</svg>
