<?xml version="1.0" encoding="utf-8"?>
<!-- Generator: Adobe Illustrator 17.0.0, SVG Export Plug-In . SVG Version: 6.00 Build 0)  -->
<!DOCTYPE svg PUBLIC "-//W3C//DTD SVG 1.1//EN" "http://www.w3.org/Graphics/SVG/1.1/DTD/svg11.dtd">
<svg version="1.1" id="Layer_1" xmlns="http://www.w3.org/2000/svg" xmlns:xlink="http://www.w3.org/1999/xlink" x="0px" y="0px"
	 width="135.419px" height="156.363px" viewBox="0 0 135.419 156.363" enable-background="new 0 0 135.419 156.363"
	 xml:space="preserve">
<g>
	<polygon fill="#FD5459" points="0.005,117.277 0,39.095 67.705,0 135.414,39.086 135.419,117.268 67.715,156.363 	"/>
	<g>
		<g>
			<path fill="#0063AD" d="M113.439,61.196H85.751v31.75c0,2.209-1.791,4-4,4H52.73v8.25c0,2.209,1.791,4,4,4h31.624l14.5,10.25
				l-0.25-10.25h10.836c2.209,0,4-1.791,4-4v-40C117.439,62.987,115.649,61.196,113.439,61.196z"/>
			<path fill="#004F7F" d="M85.751,92.946v-31.75h-5.165v26.269c0,2.209-1.791,4-4,4H52.73v6.481h29.022
				C83.795,97.946,85.751,95.696,85.751,92.946z"/>
		</g>
		<path fill="#FFFFFF" d="M95.918,74.433h-5.237c-0.619,0-1.311,0.814-1.311,1.904v3.782h6.548v5.39H89.37v16.187h-6.181V85.509
			h-5.604v-5.39h5.604v-3.173c0-4.549,3.158-8.25,7.492-8.25h5.237V74.433z"/>
		<g>
			<path fill="#C9CED1" d="M85.751,93.39V70.662c-1.595,1.514-2.562,3.766-2.562,6.28v3.173h-2.602v5.39h2.602l-0.02,12.011
				C84.666,96.937,85.751,95.091,85.751,93.39z"/>
		</g>
		<path fill="#3FA9E2" d="M82.689,89.446c0,2.209-1.791,4-4,4H47.065l-14.5,10.25l0.25-10.25H21.98c-2.209,0-4-1.791-4-4v-40
			c0-2.209,1.791-4,4-4h56.71c2.209,0,4,1.791,4,4V89.446z"/>
		<path fill="#FFFFFF" d="M67.909,60.616c-1.118,0.496-2.318,0.83-3.578,0.981c1.286-0.771,2.274-1.991,2.739-3.446
			c-1.204,0.714-2.537,1.232-3.955,1.511c-1.136-1.211-2.755-1.967-4.546-1.967c-3.44,0-6.229,2.789-6.229,6.228
			c0,0.488,0.055,0.964,0.161,1.419c-5.176-0.259-9.767-2.739-12.838-6.508c-0.536,0.92-0.844,1.99-0.844,3.131
			c0,2.161,1.1,4.067,2.771,5.184c-1.02-0.032-1.981-0.312-2.821-0.779c-0.001,0.026-0.001,0.051-0.001,0.078
			c0,3.018,2.148,5.535,4.996,6.107c-0.522,0.142-1.072,0.219-1.641,0.219c-0.401,0-0.791-0.039-1.172-0.112
			c0.793,2.474,3.094,4.275,5.819,4.325c-2.132,1.671-4.817,2.667-7.735,2.667c-0.503,0-0.998-0.03-1.486-0.088
			c2.756,1.768,6.029,2.799,9.548,2.799c11.456,0,17.722-9.491,17.722-17.722c0-0.269-0.006-0.538-0.018-0.806
			C66.018,62.963,67.074,61.866,67.909,60.616z"/>
	</g>
</g>
</svg>
